<svg width="22" height="22" viewBox="0 0 22 22" fill="none" xmlns="http://www.w3.org/2000/svg">
<path d="M11 17C12.1867 17 13.3467 16.6481 14.3334 15.9888C15.3201 15.3295 16.0892 14.3925 16.5433 13.2961C16.9974 12.1997 17.1162 10.9933 16.8847 9.82946C16.6532 8.66557 16.0818 7.59647 15.2426 6.75736C14.4035 5.91824 13.3344 5.3468 12.1705 5.11529C11.0067 4.88378 9.80026 5.0026 8.7039 5.45672C7.60754 5.91085 6.67047 6.67988 6.01118 7.66658C5.35189 8.65327 5 9.81331 5 11C5.00159 12.5908 5.63424 14.116 6.75911 15.2409C7.88399 16.3658 9.40919 16.9984 11 17ZM11 7C11.7911 7 12.5645 7.2346 13.2223 7.67412C13.8801 8.11365 14.3928 8.73836 14.6955 9.46927C14.9983 10.2002 15.0775 11.0044 14.9231 11.7804C14.7688 12.5563 14.3878 13.269 13.8284 13.8284C13.269 14.3878 12.5563 14.7688 11.7804 14.9231C11.0044 15.0775 10.2002 14.9983 9.46927 14.6955C8.73836 14.3928 8.11365 13.8801 7.67412 13.2223C7.2346 12.5645 7 11.7911 7 11C7 9.93913 7.42143 8.92172 8.17157 8.17157C8.92172 7.42143 9.93913 7 11 7ZM10 2V1C10 0.734784 10.1054 0.48043 10.2929 0.292893C10.4804 0.105357 10.7348 0 11 0C11.2652 0 11.5196 0.105357 11.7071 0.292893C11.8946 0.48043 12 0.734784 12 1V2C12 2.26522 11.8946 2.51957 11.7071 2.70711C11.5196 2.89464 11.2652 3 11 3C10.7348 3 10.4804 2.89464 10.2929 2.70711C10.1054 2.51957 10 2.26522 10 2ZM11 19C11.2652 19 11.5196 19.1054 11.7071 19.2929C11.8946 19.4804 12 19.7348 12 20V21C12 21.2652 11.8946 21.5196 11.7071 21.7071C11.5196 21.8946 11.2652 22 11 22C10.7348 22 10.4804 21.8946 10.2929 21.7071C10.1054 21.5196 10 21.2652 10 21V20C10 19.7348 10.1054 19.4804 10.2929 19.2929C10.4804 19.1054 10.7348 19 11 19ZM16.657 5.343C16.4695 5.15547 16.3642 4.90116 16.3642 4.636C16.3642 4.37084 16.4695 4.11653 16.657 3.929L17.364 3.222C17.5526 3.03984 17.8052 2.93905 18.0674 2.94133C18.3296 2.9436 18.5804 3.04877 18.7658 3.23418C18.9512 3.41959 19.0564 3.6704 19.0587 3.9326C19.061 4.1948 18.9602 4.4474 18.778 4.636L18.071 5.343C17.8835 5.53047 17.6292 5.63579 17.364 5.63579C17.0988 5.63579 16.8445 5.53047 16.657 5.343ZM5.343 16.657C5.53047 16.8445 5.63579 17.0988 5.63579 17.364C5.63579 17.6292 5.53047 17.8835 5.343 18.071L4.636 18.778C4.4474 18.9602 4.1948 19.061 3.9326 19.0587C3.6704 19.0564 3.41959 18.9512 3.23418 18.7658C3.04877 18.5804 2.9436 18.3296 2.94133 18.0674C2.93905 17.8052 3.03984 17.5526 3.222 17.364L3.929 16.657C4.11653 16.4695 4.37084 16.3642 4.636 16.3642C4.90116 16.3642 5.15547 16.4695 5.343 16.657ZM22 11C22 11.2652 21.8946 11.5196 21.7071 11.7071C21.5196 11.8946 21.2652 12 21 12H20C19.7348 12 19.4804 11.8946 19.2929 11.7071C19.1054 11.5196 19 11.2652 19 11C19 10.7348 19.1054 10.4804 19.2929 10.2929C19.4804 10.1054 19.7348 10 20 10H21C21.2652 10 21.5196 10.1054 21.7071 10.2929C21.8946 10.4804 22 10.7348 22 11ZM0 11C0 10.7348 0.105357 10.4804 0.292893 10.2929C0.48043 10.1054 0.734784 10 1 10H2C2.26522 10 2.51957 10.1054 2.70711 10.2929C2.89464 10.4804 3 10.7348 3 11C3 11.2652 2.89464 11.5196 2.70711 11.7071C2.51957 11.8946 2.26522 12 2 12H1C0.734784 12 0.48043 11.8946 0.292893 11.7071C0.105357 11.5196 0 11.2652 0 11ZM18.071 16.657L18.778 17.364C18.8735 17.4562 18.9497 17.5666 19.0021 17.6886C19.0545 17.8106 19.0821 17.9418 19.0833 18.0746C19.0844 18.2074 19.0591 18.3391 19.0088 18.462C18.9585 18.5849 18.8843 18.6965 18.7904 18.7904C18.6965 18.8843 18.5849 18.9585 18.462 19.0088C18.3391 19.0591 18.2074 19.0844 18.0746 19.0833C17.9418 19.0821 17.8106 19.0545 17.6886 19.0021C17.5666 18.9497 17.4562 18.8735 17.364 18.778L16.657 18.071C16.4748 17.8824 16.374 17.6298 16.3763 17.3676C16.3786 17.1054 16.4838 16.8546 16.6692 16.6692C16.8546 16.4838 17.1054 16.3786 17.3676 16.3763C17.6298 16.374 17.8824 16.4748 18.071 16.657ZM3.222 4.636C3.03984 4.4474 2.93905 4.1948 2.94133 3.9326C2.9436 3.6704 3.04877 3.41959 3.23418 3.23418C3.41959 3.04877 3.6704 2.9436 3.9326 2.94133C4.1948 2.93905 4.4474 3.03984 4.636 3.222L5.343 3.929C5.43851 4.02125 5.51469 4.13159 5.5671 4.2536C5.61951 4.3756 5.6471 4.50682 5.64825 4.6396C5.6494 4.77238 5.6241 4.90406 5.57382 5.02695C5.52354 5.14985 5.44929 5.2615 5.35539 5.35539C5.2615 5.44929 5.14985 5.52354 5.02695 5.57382C4.90406 5.6241 4.77238 5.6494 4.6396 5.64825C4.50682 5.6471 4.3756 5.61951 4.2536 5.5671C4.13159 5.51469 4.02125 5.43851 3.929 5.343L3.222 4.636Z" fill="#ff1a41"/>
</svg>
