<svg width="24" height="24" viewBox="0 0 24 24" fill="none" xmlns="http://www.w3.org/2000/svg">
<path d="M2.99999 11.9834C2.94523 14.5791 3.92161 17.0908 5.71523 18.968C7.50884 20.8452 9.97342 21.9349 12.569 21.9984C14.2807 21.9793 15.9556 21.4994 17.4178 20.6092C18.8799 19.7189 20.0752 18.4513 20.878 16.9394C20.964 16.7819 21.0061 16.6042 20.9998 16.4249C20.9935 16.2456 20.9391 16.0712 20.8422 15.9202C20.7454 15.7692 20.6097 15.647 20.4494 15.5664C20.289 15.4858 20.11 15.4499 19.931 15.4624L19.821 15.4704C19.69 15.4804 19.558 15.4904 19.421 15.4904C17.3558 15.4271 15.3999 14.5481 13.9813 13.046C12.5627 11.5438 11.7971 9.54077 11.852 7.47536C11.8518 6.07817 12.2011 4.70312 12.868 3.47536C12.9539 3.31805 12.9959 3.14055 12.9897 2.96142C12.9835 2.7823 12.9293 2.60813 12.8327 2.45715C12.7361 2.30618 12.6007 2.18394 12.4406 2.10322C12.2806 2.02251 12.1018 1.9863 11.923 1.99836C9.45142 2.23276 7.15939 3.39137 5.5051 5.24255C3.8508 7.09374 2.95615 9.5011 2.99999 11.9834ZM10.343 4.33136C10.0198 5.34807 9.85515 6.40851 9.85499 7.47536C9.81555 9.84778 10.6304 12.1553 12.1507 13.977C13.6711 15.7986 15.7958 17.0129 18.137 17.3984C17.4493 18.2053 16.5963 18.8551 15.6356 19.3037C14.675 19.7522 13.6292 19.9892 12.569 19.9984C10.5038 19.9351 8.54786 19.0561 7.12927 17.554C5.71069 16.0518 4.94506 14.0488 4.99999 11.9834C4.97662 10.3089 5.47982 8.66946 6.43852 7.29645C7.39723 5.92343 8.763 4.88626 10.343 4.33136Z" fill="#FFFFFF"/>
</svg>
