<svg width="24" height="24" viewBox="0 0 24 24" fill="none" xmlns="http://www.w3.org/2000/svg">
<path d="M2.99999 11.9851C2.94523 14.5808 3.92161 17.0925 5.71523 18.9697C7.50884 20.8469 9.97342 21.9366 12.569 22.0001C14.2807 21.981 15.9556 21.5011 17.4178 20.6109C18.8799 19.7207 20.0752 18.453 20.878 16.9411C20.964 16.7836 21.0061 16.6059 20.9998 16.4266C20.9935 16.2473 20.9391 16.073 20.8422 15.9219C20.7454 15.7709 20.6097 15.6487 20.4494 15.5681C20.289 15.4876 20.11 15.4516 19.931 15.4641L19.821 15.4721C19.69 15.4821 19.558 15.4921 19.421 15.4921C17.3558 15.4288 15.3999 14.5499 13.9813 13.0477C12.5627 11.5455 11.7971 9.54248 11.852 7.47707C11.8518 6.07988 12.2011 4.70483 12.868 3.47707C12.9539 3.31976 12.9959 3.14226 12.9897 2.96313C12.9835 2.784 12.9293 2.60984 12.8327 2.45886C12.7361 2.30789 12.6007 2.18564 12.4406 2.10493C12.2806 2.02422 12.1018 1.988 11.923 2.00007C9.45142 2.23447 7.15939 3.39308 5.5051 5.24426C3.8508 7.09545 2.95615 9.5028 2.99999 11.9851ZM10.343 4.33307C10.0198 5.34977 9.85515 6.41022 9.85499 7.47707C9.81555 9.84949 10.6304 12.157 12.1507 13.9787C13.6711 15.8003 15.7958 17.0146 18.137 17.4001C17.4493 18.207 16.5963 18.8568 15.6356 19.3054C14.675 19.7539 13.6292 19.9909 12.569 20.0001C10.5038 19.9368 8.54786 19.0579 7.12927 17.5557C5.71069 16.0535 4.94506 14.0505 4.99999 11.9851C4.97662 10.3106 5.47982 8.67117 6.43852 7.29816C7.39723 5.92514 8.763 4.88797 10.343 4.33307Z" fill="#ff1a41"/>
</svg>
