<svg width="145" height="198" viewBox="0 0 145 198" fill="none" xmlns="http://www.w3.org/2000/svg">
<path fill-rule="evenodd" clip-rule="evenodd" d="M144.999 121.624L144.201 124.251C144.201 124.453 144.201 124.453 144.002 124.655C142.008 131.524 139.416 137.99 136.226 144.051C131.041 153.951 124.063 163.043 116.087 170.72C106.715 179.61 95.5491 186.681 83.1866 191.328C72.0205 195.571 60.0568 197.996 47.495 197.996C45.7004 197.996 43.9058 197.996 42.1113 197.794C39.5192 197.592 36.927 197.389 34.3349 196.985C17.3863 194.763 1.83356 188.298 -11.3265 178.6C-12.5229 177.59 -13.7192 176.781 -14.9156 175.771C-12.5228 173.751 -7.73742 173.549 -7.73742 173.549L-14.5168 168.094L-31.4654 158.8C-34.6557 154.557 -37.6466 150.112 -40.2387 145.465C-40.8369 144.253 -41.4351 143.243 -42.0333 142.031C-42.0333 142.031 -42.0333 142.031 -42.0333 141.828C-42.6315 140.616 -43.2296 139.404 -43.8278 138.192C-45.6224 134.353 -47.0182 130.312 -48.4139 126.069C-49.4109 123.039 -50.2085 120.008 -50.8066 116.978C-51.2054 114.755 -51.6042 112.533 -52.003 110.31C-52.6012 105.663 -53 100.814 -53 95.9653C-53 94.7531 -53 93.7429 -53 92.5307C-53 90.9144 -52.8006 89.096 -52.8006 87.4797C-52.6012 85.8634 -52.4018 84.247 -52.4018 82.6307C-52.4018 82.4286 -52.4018 82.4287 -52.4018 82.2266C-52.0031 80.0042 -51.8036 77.7817 -51.2055 75.5593C-50.6073 72.3266 -49.8097 69.2961 -48.8127 66.2655C-47.6163 62.0226 -46.0212 57.7798 -44.2266 53.941C-42.4321 50.1023 -40.4381 46.2635 -38.2448 42.6268C-31.4654 38.99 -27.0787 36.9697 -27.0787 36.9697C-27.0787 36.9697 89.9661 13.533 91.7607 11.5126C93.5552 9.49218 102.329 10.7044 102.329 10.7044C107.912 14.3411 112.896 18.584 117.682 23.2309C118.878 24.2411 119.875 25.4533 120.872 26.4635C121.47 27.2717 122.268 28.0799 122.866 28.8881C124.063 30.3023 125.06 31.5146 126.256 32.9289C130.244 38.1819 133.833 43.6369 136.824 49.4961C138.02 51.7185 139.017 54.143 140.014 56.3655C148.987 92.1266 137.821 122.635 137.821 122.635C140.812 122.029 143.204 121.827 144.999 121.624Z" fill="url(#paint0_radial_803_31469)"/>
<path fill-rule="evenodd" clip-rule="evenodd" d="M144.999 121.624L144.201 124.251C144.201 124.453 144.201 124.453 144.002 124.655C142.008 131.524 139.416 137.99 136.226 144.051C131.041 153.951 124.063 163.043 116.087 170.72C106.715 179.61 95.5491 186.681 83.1866 191.328C72.0205 195.571 60.0568 197.996 47.495 197.996C45.7004 197.996 43.9058 197.996 42.1113 197.794C39.5192 197.592 36.927 197.389 34.3349 196.985C17.3863 194.763 1.83356 188.298 -11.3265 178.6C-12.5229 177.59 -13.7192 176.781 -14.9156 175.771C-12.5228 173.751 -7.73742 173.549 -7.73742 173.549L-14.5168 168.094L-31.4654 158.8C-34.6557 154.557 -37.6466 150.112 -40.2387 145.465C-40.8369 144.253 -41.4351 143.243 -42.0333 142.031C-42.0333 142.031 -42.0333 142.031 -42.0333 141.828C-42.6315 140.616 -43.2296 139.404 -43.8278 138.192C-45.6224 134.353 -47.0182 130.312 -48.4139 126.069C-49.4109 123.039 -50.2085 120.008 -50.8066 116.978C-51.2054 114.755 -51.6042 112.533 -52.003 110.31C-52.6012 105.663 -53 100.814 -53 95.9653C-53 94.7531 -53 93.7429 -53 92.5307C-53 90.9144 -52.8006 89.096 -52.8006 87.4797C-52.6012 85.8634 -52.4018 84.247 -52.4018 82.6307C-52.4018 82.4286 -52.4018 82.4287 -52.4018 82.2266C-52.0031 80.0042 -51.8036 77.7817 -51.2055 75.5593C-50.6073 72.3266 -49.8097 69.2961 -48.8127 66.2655C-47.6163 62.0226 -46.0212 57.7798 -44.2266 53.941C-42.4321 50.1023 -40.4381 46.2635 -38.2448 42.6268C-31.4654 38.99 -27.0787 36.9697 -27.0787 36.9697C-27.0787 36.9697 89.9661 13.533 91.7607 11.5126C93.5552 9.49218 102.329 10.7044 102.329 10.7044C107.912 14.3411 112.896 18.584 117.682 23.2309C118.878 24.2411 119.875 25.4533 120.872 26.4635C121.47 27.2717 122.268 28.0799 122.866 28.8881C124.063 30.3023 125.06 31.5146 126.256 32.9289C130.244 38.1819 133.833 43.6369 136.824 49.4961C138.02 51.7185 139.017 54.143 140.014 56.3655C148.987 92.1266 137.821 122.635 137.821 122.635C140.812 122.029 143.204 121.827 144.999 121.624Z" fill="url(#paint1_radial_803_31469)"/>
<path fill-rule="evenodd" clip-rule="evenodd" d="M142.207 96.1711C142.207 99.8078 142.008 103.445 141.609 106.879C141.011 112.334 140.014 117.587 138.618 122.638C138.618 122.84 138.618 122.84 138.618 123.042C136.824 129.508 134.232 135.569 131.241 141.226C126.256 150.52 119.875 159.006 112.298 166.279C103.525 174.563 92.9569 181.23 81.392 185.675C71.0234 189.716 59.658 191.938 47.8937 191.938C46.2985 191.938 44.504 191.938 42.9088 191.736C40.5161 191.534 37.9239 191.332 35.5312 191.13C19.5796 189.11 5.02376 182.846 -7.33871 173.755C-9.13327 172.34 -10.9278 170.926 -12.7224 169.512C-13.1212 169.108 -13.7193 168.704 -14.1181 168.299C-18.5048 164.259 -22.6921 160.016 -26.2812 155.167C-29.2721 151.328 -32.0637 147.085 -34.6558 142.64C-35.254 141.63 -35.8522 140.62 -36.251 139.408C-36.251 139.408 -36.251 139.408 -36.251 139.206C-36.8491 137.993 -37.4473 136.983 -37.8461 135.771C-39.4413 132.134 -40.837 128.295 -42.0334 124.457C-42.831 121.628 -43.6286 118.8 -44.2268 115.971C-44.6255 113.951 -45.0243 111.93 -45.2237 109.708C-45.8219 105.263 -46.2207 100.818 -46.2207 96.1711C-46.2207 95.1609 -46.2207 93.9487 -46.2207 92.9385C-46.2207 91.3221 -46.0213 89.7058 -46.0213 88.2916C-45.8219 86.6752 -45.8219 85.2609 -45.6225 83.6446C-45.6225 83.4426 -45.6225 83.4426 -45.6225 83.2406C-45.4231 81.2202 -45.0244 78.9977 -44.6256 76.9773C-44.0274 73.9467 -43.2298 71.1181 -42.4322 68.0875C-41.2358 64.0467 -39.8401 60.208 -38.0455 56.3692C-36.2509 52.3284 -34.0576 48.2876 -31.6649 44.4488C-30.0697 41.8223 -28.2752 39.1958 -26.2812 36.7713C-23.6891 33.3366 -20.6982 30.104 -17.7073 27.0734C-0.758709 10.304 22.5705 0 48.093 0C49.09 0 50.087 0 51.0839 0C52.0809 0 53.2773 1.23327e-05 54.2743 0.202052C57.2652 0.404093 60.0567 0.808173 63.0476 1.21225C63.0476 1.21225 63.0476 1.21225 63.247 1.21225C65.6398 1.61633 68.0325 2.02041 70.2259 2.62653C73.2168 3.43469 76.2077 4.24286 78.9992 5.25306C80.9932 5.85918 82.7878 6.66735 84.7817 7.47551C86.1775 8.08163 87.5732 8.68774 88.9689 9.29386C89.1684 9.4959 89.3678 9.49589 89.7666 9.69793C98.9388 14.1428 107.313 20.204 114.492 27.4775C115.488 28.4877 116.485 29.4979 117.482 30.5081C118.081 31.3162 118.878 31.9224 119.476 32.7305C120.473 33.9428 121.67 35.357 122.667 36.5693C126.455 41.4182 129.646 46.6713 132.437 52.1264C135.627 58.5917 138.219 65.461 140.014 72.5324C141.21 76.9773 141.809 81.6242 142.407 86.4732C142.008 89.9079 142.207 92.9385 142.207 96.1711Z" fill="url(#paint2_radial_803_31469)"/>
<path fill-rule="evenodd" clip-rule="evenodd" d="M1.63509 57.9859C1.63509 57.9859 -0.957063 63.643 1.23628 69.3001C3.23023 74.9573 9.21207 71.3205 16.1909 69.3001C23.1697 67.2797 30.348 60.0062 34.934 55.3593C39.5201 50.7124 43.9068 44.4492 43.508 38.388C43.1092 32.3268 36.7286 28.286 36.7286 28.286C36.7286 28.286 39.1213 25.2554 37.1273 37.3778C35.1334 49.2981 32.5413 53.743 29.9492 55.5614C27.357 57.3797 19.78 62.0267 15.5927 64.6532C11.4054 67.2797 6.61998 69.9063 3.82845 69.3001C0.837527 68.2899 -0.558249 62.0267 1.63509 57.9859Z" fill="url(#paint3_radial_803_31469)"/>
<path fill-rule="evenodd" clip-rule="evenodd" d="M14.3944 53.7413C14.3944 53.7413 10.8053 56.9739 11.8023 59.6005C12.7993 62.227 19.5787 60.6107 23.9654 54.9536C28.3521 49.2964 24.9623 44.8516 24.9623 44.8516C24.9623 44.8516 23.3671 54.1454 19.1799 55.7617C14.9926 57.378 13.5968 56.7719 13.5968 56.7719C13.5968 56.7719 12.5998 55.9638 14.3944 53.7413Z" fill="url(#paint4_radial_803_31469)"/>
<path fill-rule="evenodd" clip-rule="evenodd" d="M3.62964 57.7827C3.62964 57.7827 7.01937 53.7419 11.0073 50.1052C14.9952 46.2664 21.7746 44.8521 21.7746 44.8521C21.7746 44.8521 17.7867 42.6297 12.6024 45.6603C7.61753 48.8929 3.62964 57.7827 3.62964 57.7827Z" fill="url(#paint5_radial_803_31469)"/>
<path fill-rule="evenodd" clip-rule="evenodd" d="M-10.7268 57.9859C-10.7268 57.9859 -2.55162 48.8941 7.21873 45.0554C16.9891 41.2166 20.3788 40.0043 24.7655 36.3676C29.1522 32.7309 33.9377 29.9023 33.9377 29.9023C33.9377 29.9023 24.3667 30.3064 9.8109 39.8023C-4.74493 48.8941 -10.7268 54.9553 -10.7268 57.9859Z" fill="url(#paint6_radial_803_31469)"/>
<path fill-rule="evenodd" clip-rule="evenodd" d="M-30.4667 56.1691C-30.4667 56.1691 -16.509 42.0263 -5.54232 36.3691C5.42439 30.712 12.802 27.2774 22.5724 24.6508C32.3427 22.2264 47.4967 17.7815 47.4967 17.7815L50.2882 16.3672C50.2882 16.3672 18.9832 16.9733 -1.35502 29.4998C-21.6933 42.0263 -30.4667 56.1691 -30.4667 56.1691Z" fill="url(#paint7_radial_803_31469)"/>
<path fill-rule="evenodd" clip-rule="evenodd" d="M-13.5188 72.5324C-13.5188 72.5324 -11.1261 92.1303 -7.73637 92.9384C-4.34666 93.7466 7.61706 93.7466 25.5626 84.4528C43.5081 75.159 47.0972 77.3814 57.0669 67.0773C67.0367 56.7733 71.224 45.0549 74.2149 37.3774C77.4052 29.6999 78.2028 20.8101 77.2058 18.1836C77.2058 18.1836 80.5956 20.204 80.5956 27.8816C80.5956 35.5591 78.4022 48.4896 75.2119 55.7631C72.0216 63.2386 63.647 74.9569 53.6773 80.614C43.7075 86.2711 23.5687 97.3833 4.02798 97.1813C-15.7121 96.9793 -12.5218 95.565 -14.5158 91.5242C-16.7091 87.4834 -13.5188 72.5324 -13.5188 72.5324Z" fill="url(#paint8_radial_803_31469)"/>
<path opacity="0.5" fill-rule="evenodd" clip-rule="evenodd" d="M-44.2266 89.0977C-44.2266 89.0977 -40.6374 96.9773 -38.8429 104.251C-36.8489 111.524 -37.2477 123.647 -29.0725 125.667C-20.8974 127.485 -9.53187 132.94 -5.34458 131.526C-0.95789 130.112 14.9937 127.283 23.9665 129.102C32.9392 130.92 49.0902 129.91 54.6733 127.081C60.2563 124.253 72.6188 116.777 78.4012 114.555C84.1837 112.332 92.1595 105.867 99.1383 98.7956C106.117 91.7242 105.918 83.6426 107.712 79.6018C109.507 75.561 112.897 59.5998 112.498 52.3264C112.099 45.053 107.712 31.5163 107.712 31.5163L103.724 27.2734C103.724 27.2734 108.709 45.8612 106.516 59.1958C104.323 72.3284 106.317 77.7835 97.3438 90.31C88.371 103.039 75.6097 112.938 61.4527 117.585C47.2956 122.434 38.1235 121.828 23.5677 123.242C9.80943 124.455 -7.33851 123.647 -14.1179 121.828C-20.2992 120.212 -28.4744 116.171 -34.6556 106.069C-41.2357 95.563 -44.2266 89.0977 -44.2266 89.0977Z" fill="#7D72B3"/>
<path opacity="0.4" fill-rule="evenodd" clip-rule="evenodd" d="M-12.921 68.489C-12.921 68.489 -11.5252 89.7033 -8.93311 91.5216C-6.34098 93.34 -0.558555 94.1481 4.62571 92.3298C10.0094 90.5114 27.9549 84.4502 31.1452 82.6318C34.3355 80.8134 53.278 71.1156 57.0665 68.0849C60.855 65.2564 65.8399 54.9523 67.6345 52.9319C69.429 50.9115 74.0151 38.183 75.2115 33.334C76.6072 28.4851 77.4048 22.828 77.4048 22.828C77.4048 22.828 77.8036 20.2014 75.6103 19.1912C73.4169 18.3831 73.0181 19.1912 73.0181 19.1912C73.0181 19.1912 72.6193 22.4239 70.6254 31.5157C68.6314 40.6075 41.9125 71.7217 28.3537 80.0053C14.7948 88.0869 2.03356 88.491 -2.55252 87.8848C-7.33799 87.2787 -13.1204 72.1257 -12.921 68.489Z" fill="#7D72B3"/>
<path opacity="0.4" fill-rule="evenodd" clip-rule="evenodd" d="M-13.5191 72.5321C-13.5191 72.5321 -12.921 59.3995 -9.53124 54.9546C-6.14153 50.5098 5.224 41.418 11.804 37.9833C18.5835 34.5486 28.1544 29.6996 31.5441 28.8915C34.9338 28.0833 37.3265 28.8915 37.3265 28.8915C37.3265 28.8915 33.3387 26.669 23.9671 29.0935C14.5956 31.5179 4.02763 40.2057 -1.15664 43.0343C-6.3409 45.6608 -14.1173 52.3281 -16.1112 55.7628C-17.9058 58.7934 -13.5191 72.5321 -13.5191 72.5321Z" fill="#7D72B3"/>
<path opacity="0.4" fill-rule="evenodd" clip-rule="evenodd" d="M-36.6494 58.5954L-7.73717 32.9363L10.2084 24.6527C10.2084 24.6527 27.9545 18.5915 36.1297 16.5711C44.3049 14.5507 62.4498 14.1466 62.4498 14.1466L72.0208 15.1568C72.0208 15.1568 55.471 6.06497 30.7461 12.7323C6.22051 19.3996 -10.1299 27.8853 -17.3081 34.7547C-24.2869 41.422 -35.2537 55.1607 -36.6494 58.5954Z" fill="#7D72B3"/>
<path fill-rule="evenodd" clip-rule="evenodd" d="M-37.4466 59.6046C-37.4466 59.6046 -52.9994 78.5964 -45.4224 90.3148C-37.8454 102.033 -34.4557 119.004 -32.2623 122.843C-30.069 126.682 -4.94527 132.743 0.238998 131.531C5.42326 130.319 17.9851 127.086 26.1603 130.117C26.1603 130.117 40.7162 128.904 44.7041 128.904C48.8914 128.904 56.4683 125.268 58.2629 124.46C60.0574 123.651 69.8278 120.419 74.8127 118.398C79.7976 116.378 87.9727 109.913 91.163 107.488C94.3533 104.862 102.927 94.5576 104.722 91.325C106.317 88.0923 111.302 69.5046 112.498 60.6148C113.695 51.7251 110.106 34.7537 107.115 28.8946C104.124 23.0354 95.3503 17.5803 95.3503 17.5803L95.9485 14.9538L102.927 10.7109C102.927 10.7109 115.09 26.6721 116.087 40.6129C116.686 48.6945 118.68 66.0699 116.486 73.5454C114.891 79.6066 109.109 96.9821 103.924 103.245C98.9394 109.509 83.7855 125.47 75.8097 128.702C67.8339 131.733 43.9065 135.976 29.9489 136.178C19.5803 136.38 -3.15069 134.562 -14.3168 134.157C-25.4829 133.753 -33.4587 126.682 -37.8454 123.045C-42.232 119.409 -40.8363 109.711 -45.223 101.831C-49.8091 94.1535 -52.2018 83.8495 -51.2048 78.1924C-50.2079 72.9393 -37.4466 59.6046 -37.4466 59.6046Z" fill="url(#paint9_radial_803_31469)"/>
<path fill-rule="evenodd" clip-rule="evenodd" d="M-10.13 132.137C-12.5228 131.531 -14.7161 130.319 -17.1089 129.713C-18.5046 129.309 -19.701 129.107 -21.0968 128.703C-22.4925 128.299 -23.8883 128.097 -25.2841 128.097C-28.0756 127.895 -30.8671 127.289 -32.6617 125.066C-34.2569 123.046 -35.2538 120.823 -35.852 118.197C-36.8489 114.762 -37.6466 111.327 -38.6435 108.095C-39.6405 104.862 -40.8369 102.236 -42.6314 99.407C-43.2296 98.3968 -43.8278 97.1846 -44.6254 96.1744C-45.2236 95.1642 -46.2205 94.356 -46.8187 93.1438C-48.2144 90.3152 -48.6133 87.2846 -48.6133 84.0519C-48.6133 82.4356 -48.2144 80.8193 -47.8157 79.203C-47.4169 77.1826 -46.8187 75.3642 -45.8217 73.5458C-44.8247 71.9295 -44.0272 70.1112 -43.0302 68.4948C-40.8368 64.6561 -38.6435 60.8173 -36.0514 57.3826C-32.6617 53.1398 -28.8731 48.897 -24.8853 45.0582C-22.6919 42.8358 -20.0998 40.8154 -17.5077 38.795C-15.3143 37.1787 -13.3204 35.3603 -11.3264 33.744C-7.73732 30.9154 -3.55003 29.097 0.637257 27.0766C5.62213 24.6521 10.607 22.2277 15.7913 20.4093C21.9725 18.1869 28.1537 16.3685 34.5344 14.9542C41.912 13.5399 49.489 13.1359 56.8666 13.1359C60.8545 13.1359 65.2412 12.7318 69.2291 14.1461C71.4224 14.9542 74.0146 15.9644 75.8091 17.1767C76.2079 17.5807 76.4073 17.5807 76.8061 17.9848C77.0055 18.1868 77.0055 18.591 77.2048 18.793C77.6036 19.6012 77.8031 20.6114 77.8031 21.4195C77.8031 22.2277 77.4043 23.0359 77.4043 23.844C77.4043 25.0563 77.0054 26.2685 77.0054 27.4807C77.0054 28.895 76.6067 29.9052 76.4073 31.3195C76.0085 33.7439 75.6097 36.1684 74.6127 38.5929C73.217 42.0276 72.22 45.6643 70.8242 48.897C70.4255 49.9072 69.6278 50.7153 69.0296 51.7255C68.6309 52.7357 68.2321 53.3418 67.6339 54.352C66.6369 55.9683 65.8394 57.7868 64.643 59.201C62.2503 62.4337 60.0569 65.8683 56.8666 68.4948C53.0781 71.5254 49.0902 74.152 44.9029 76.3745C42.1114 77.7887 39.3198 79.001 36.5283 80.4153C34.1356 81.6275 31.5435 83.0418 28.9513 84.254C22.5707 87.2846 15.5919 89.507 8.81246 91.7295C6.81851 92.3356 5.02397 92.9417 3.03002 93.3458C1.23547 93.5479 -0.957924 94.154 -2.75248 94.154C-4.74643 94.154 -6.74037 93.5478 -8.73432 92.9417C-11.9246 91.9315 -12.3234 88.2948 -12.5228 85.2642C-12.7222 83.0418 -12.9216 80.8193 -13.3204 78.7989C-13.7192 76.9805 -13.7192 75.3642 -14.1179 73.5458C-14.5167 71.7275 -14.7162 69.9092 -14.7162 68.0908C-14.7162 65.6663 -13.9186 63.6459 -13.3204 61.2214C-12.9216 59.8072 -12.9216 58.1908 -12.124 56.7765C-11.3264 54.7561 -9.73125 52.9378 -7.9367 51.5235C-6.34153 50.1092 -4.54698 48.4929 -2.95182 47.0786C-1.95485 46.0684 -0.75853 45.4623 0.238445 44.6541C2.033 43.2398 4.02695 42.0276 6.22029 41.0174C7.81544 40.2093 9.01184 38.795 10.607 37.7848C12.2022 36.7746 13.9967 35.7644 15.5919 34.7542C16.9876 33.946 18.5828 33.5419 20.1779 32.9358C21.3743 32.5317 22.5707 31.7235 23.7671 31.3195C24.9634 30.9154 26.1598 30.7133 27.3561 30.3093C28.5525 29.9052 29.5495 29.5011 30.7459 29.097C32.1416 28.6929 33.5374 28.2889 34.7338 28.2889C37.3259 28.2889 38.5223 29.5011 39.3198 32.1276C40.3168 35.5623 39.1205 38.5929 37.9241 41.8256C36.9271 44.4521 35.7308 46.8766 34.9332 49.5031C33.7368 52.9378 30.5465 54.7562 27.9544 57.1806C25.1628 59.6051 21.7731 62.0296 18.5828 63.4438C17.5858 63.8479 16.3894 64.252 15.3925 64.6561C14.5949 65.0602 13.5979 65.6663 12.8004 66.0704C12.2022 66.4745 11.8033 66.8786 11.2052 67.2826C10.8064 67.6867 10.2082 67.6867 9.61002 68.0908C8.41365 68.899 7.2173 69.7071 5.82154 70.3132C4.62517 70.9194 2.033 71.3234 1.23542 69.7071C0.836628 68.8989 0.836655 67.8888 0.637257 67.0806C0.437862 66.0704 0.437851 65.0602 0.437851 64.05C0.437851 63.0398 0.637272 62.2316 0.836666 61.2214C1.03606 60.2112 1.43485 59.403 1.83364 58.3928C2.83061 55.5643 4.62513 53.5439 6.22029 51.3214C7.21726 49.9071 8.21425 48.4929 9.41062 47.0786C11.2052 45.0582 13.7973 44.25 16.19 43.4419C18.3834 42.8358 21.7731 42.2296 23.9665 43.4419C25.761 44.6541 24.5647 47.0786 23.9665 48.4929C23.5677 49.301 23.3683 50.1092 22.9695 50.9174C22.7701 51.5235 22.7701 52.3317 22.3713 52.9378C21.5737 54.15 20.178 54.9582 18.9816 55.9684C18.5828 56.3725 17.7852 56.9786 17.187 57.1806C16.3894 57.3827 15.5919 57.3826 14.7943 57.5847C14.3955 57.5847 14.1961 58.1908 13.7973 57.9888C13.3985 57.7867 13.3985 57.3827 13.3985 56.9786C13.3985 56.5745 13.5979 56.1704 13.7973 55.7663C13.7973 55.7663 13.7973 55.5643 13.7973 55.3622C14.1961 54.15 15.5918 52.7357 16.19 51.7255C17.187 52.1296 16.5888 52.7357 16.3894 53.3418C16.19 53.7459 16.19 54.15 16.19 54.5541C16.19 54.9582 15.5919 55.5643 15.9907 55.9684C16.1901 56.1704 17.187 55.7663 17.3864 55.7663C19.7791 54.9582 21.1749 52.3317 21.9725 50.1092C22.3713 48.4929 22.3713 46.0684 20.7761 45.2602C19.5798 44.8561 17.9846 45.0582 16.7882 45.0582C12.2022 45.0582 9.41064 50.1092 6.81851 53.3418C5.22335 55.5643 3.82759 57.9888 2.83061 60.6153C2.23243 62.4336 1.83361 64.252 1.43483 66.0704C1.03604 67.4847 0.637257 69.5051 2.63121 69.303C3.82758 69.101 5.02392 68.4949 6.22029 68.0908C7.21726 67.6867 8.01489 67.4847 9.01186 66.8785C10.4076 66.0704 12.2022 65.8684 13.5979 65.0602C14.7943 64.4541 15.9906 63.848 17.187 63.2418C20.1779 61.6255 23.3683 58.5949 25.3622 55.9684C26.758 54.15 28.9513 52.7358 30.5465 51.1194C32.341 49.5031 33.1386 47.2806 34.335 45.2602C35.5313 43.0378 36.1295 41.0174 36.7277 38.795C37.1265 36.7746 38.5223 34.3501 37.7247 32.1276C37.1265 29.9052 34.1356 29.9052 32.341 30.1072C30.7459 30.3093 29.1507 30.7133 27.5556 31.1174C24.764 32.1276 22.1719 33.3399 19.5798 34.5521C15.3925 36.3705 11.8034 39.199 8.01489 41.6235C6.02094 42.8358 3.8276 43.8459 2.03305 45.2602C0.637283 46.2704 -0.559086 47.6847 -1.95485 48.6949C-2.95182 49.5031 -3.55006 50.5133 -4.74643 51.1194C-6.14219 52.1296 -7.33854 53.1398 -8.33551 54.352C-9.13309 55.3622 -10.1301 56.7765 -10.5289 57.9888C-10.9277 58.999 -10.5289 60.0092 -10.5289 61.0194C-10.5289 62.4337 -10.9276 63.848 -10.9276 65.2622C-10.9276 66.6765 -10.9276 68.2928 -10.9276 69.7071C-10.9276 72.7377 -11.3264 75.5663 -11.3264 78.3949C-11.3264 80.2132 -10.9277 82.2336 -10.5289 83.8499C-10.3295 85.2642 -9.73129 86.4764 -9.53189 87.8907C-9.53189 88.9009 -9.33249 90.1131 -8.53492 90.7193C-8.13612 90.9213 -7.53792 91.1234 -7.13913 91.3254C-6.74034 91.5275 -6.34153 91.7295 -5.94275 91.7295C-5.74335 91.7295 -5.54397 91.9315 -5.14518 91.9315C-4.94579 91.9315 -4.74643 92.3356 -4.74643 92.3356C-4.34764 92.5377 -3.55002 92.3356 -3.15123 92.3356C-1.95486 92.1336 -0.75853 91.9315 0.238445 91.5275C3.22937 91.1234 6.02093 91.1234 8.81246 90.1132C12.0028 88.9009 14.9937 87.0825 17.9846 85.8703C22.5707 83.8499 27.7549 82.4356 32.1416 80.0111C34.1356 79.0009 36.3289 77.7887 38.3229 76.9805C43.3077 74.7581 48.492 72.9397 52.6793 69.505C54.2745 68.2928 55.6702 66.6765 57.066 65.2622C57.8635 64.4541 58.6611 63.6459 59.4587 62.6357C61.6521 59.8071 63.646 56.7765 65.2412 53.7459C66.0387 52.5337 66.4375 50.9174 67.0357 49.7051C68.2321 47.6847 69.4285 45.8664 70.6248 43.846C71.6218 41.8256 72.22 39.8052 72.8182 37.5827C73.217 36.1684 73.6158 35.1583 73.4164 33.744C73.4164 30.9154 73.6158 28.4909 74.8121 25.8644C75.4103 24.4501 76.4073 22.4297 75.8091 20.8134C75.6097 20.0053 74.4134 19.8032 73.8152 19.6012C72.22 18.995 70.6248 18.5909 69.0296 17.9848C67.6339 17.3787 66.6369 16.5706 65.0418 16.3685C64.4436 16.1665 63.8454 16.1665 63.2472 16.1665C61.6521 16.1665 60.4557 17.3787 58.8606 17.1767C58.4618 17.1767 58.063 16.9746 57.4648 16.9746C56.6672 16.7726 55.8696 16.9746 55.072 16.9746C53.2775 16.9746 51.6824 16.5706 49.8878 16.5706C47.8939 16.5706 45.8999 16.7726 43.906 16.9746C41.912 17.1766 40.1174 16.9746 38.1235 16.9746C36.9271 16.9746 36.1295 17.5807 35.1325 17.9848C34.1356 18.3889 33.1386 18.5909 32.1416 18.995C31.1446 19.3991 30.3471 19.6012 29.3501 19.8032C27.9543 19.8032 26.758 19.6011 25.3622 20.0052C23.767 20.4093 22.1719 21.0154 20.5767 21.6216C16.3895 23.4399 12.2022 25.8644 7.81548 27.2787C5.62214 27.8848 3.42877 28.2889 1.43483 29.097C0.637245 29.5011 0.0390511 29.9052 -0.75853 30.5113C-2.15429 31.5215 -3.55001 32.3297 -4.94577 33.1378C-8.13609 35.1582 -11.127 37.3807 -14.3174 39.8052C-17.9065 42.4317 -21.2962 45.2603 -24.2871 48.6949C-29.4714 54.7561 -34.855 60.8173 -39.4411 67.4846C-41.6345 70.5152 -44.0272 73.95 -45.423 77.3847V77.5866C-46.2205 79.607 -46.6193 81.6275 -46.4199 83.8499C-46.4199 83.8499 -46.4199 83.8499 -46.4199 84.0519C-46.2205 85.8703 -45.4229 87.8907 -44.8247 89.5071C-44.0272 91.1234 -43.6284 92.7397 -42.6314 94.356C-41.6345 95.9723 -40.2387 97.3866 -39.6405 99.205C-38.8429 101.427 -38.0453 103.852 -37.2478 106.276C-36.4502 109.105 -35.6526 112.136 -35.2538 115.166C-34.855 116.984 -34.6556 119.005 -33.6587 120.621C-32.4623 123.046 -29.8702 123.854 -27.6768 125.268C-26.4805 126.076 -25.8823 126.278 -24.4865 126.278C-22.6919 126.48 -20.698 126.884 -18.9034 127.491C-15.1149 128.703 -11.127 129.511 -7.13913 129.511C-4.74639 129.511 -2.35365 128.905 -0.160309 128.501C2.03304 128.299 4.22635 128.097 6.4197 127.693C8.41364 127.289 10.4076 126.884 12.4015 126.884C14.3955 126.884 16.5888 127.289 18.3834 127.693C21.7731 128.703 24.9634 129.309 28.3531 129.309C30.5465 129.309 32.5404 128.703 34.7338 128.703C36.7277 128.501 38.5223 128.905 40.5162 129.107C43.9059 129.309 47.2956 128.501 50.486 127.289C52.6793 126.48 54.4739 125.47 56.4678 124.258C58.063 123.248 59.6581 123.046 61.2533 122.642C64.643 121.631 68.0327 120.419 71.223 118.601C75.2109 116.176 78.6006 112.742 82.5885 110.317C84.7819 108.903 87.374 107.893 89.5674 106.478C91.3619 105.266 93.1565 103.852 94.5522 102.236C96.3468 100.417 97.9419 98.5988 99.7365 96.7805C101.132 95.3662 101.73 93.5478 102.329 91.9315C103.525 89.305 103.924 86.6785 104.323 83.8499C104.721 81.0213 105.918 78.5969 107.114 76.1724C108.709 72.9398 109.906 69.9092 110.105 66.2724C110.304 63.4439 110.703 60.8173 110.703 57.9888C110.703 56.1704 110.504 54.5541 110.105 52.7357C109.906 51.1194 109.507 49.5031 109.307 47.8868C108.909 45.8664 108.909 43.846 108.51 41.8256C108.111 40.2093 107.712 38.3909 107.313 36.5725C106.915 35.3603 106.516 34.1481 106.117 32.9358C105.32 30.9154 104.123 28.895 102.727 27.0766C102.129 26.2685 101.332 26.0664 100.733 25.6624C100.135 25.2583 100.135 24.8542 99.5371 24.6522C98.7395 24.2481 97.9419 23.844 97.1443 23.4399C95.7486 22.6318 94.3528 22.4297 92.957 21.6216C91.7607 21.0154 90.5643 20.0052 89.368 19.1971C87.9722 18.3889 86.5764 17.7828 85.3801 16.5706C84.1837 15.3583 83.3861 13.944 82.3891 12.9338C81.1928 11.7216 79.5976 10.9134 78.4012 9.90323C76.2079 8.08487 73.4163 7.88283 71.0236 6.87263C69.8272 6.26651 68.4315 6.26651 67.2351 5.86243C65.64 5.45835 64.643 4.6502 63.0478 4.44816C61.652 4.24612 60.2563 4.24611 58.6612 3.84203C57.8636 3.63999 57.066 3.43796 56.069 3.43796C54.4738 3.23592 52.6793 3.43794 51.0841 3.63998C49.6884 3.84202 48.0932 3.63998 46.6975 3.63998C45.5011 3.63998 44.1053 3.84202 42.909 3.63998C39.3199 3.03386 35.5314 3.23592 31.9423 3.43796C28.5526 3.64 25.1628 3.84201 21.9725 5.05425C19.181 6.06445 16.5889 6.87263 13.7973 7.88283C12.0028 8.69099 10.4076 9.70118 8.61305 10.7114C4.42576 13.1359 0.637272 15.9644 -3.15123 18.591C-7.53792 21.6216 -11.7252 24.8542 -15.9125 28.0868C-18.704 30.1072 -21.4956 32.3297 -24.0877 34.3501C-25.2841 35.3603 -26.4804 36.3705 -27.4774 37.3807C-24.8853 33.946 -21.8943 30.7134 -18.9034 27.6828C-1.95485 10.9134 21.3743 0.609375 46.8969 0.609375C47.8939 0.609375 48.8908 0.609375 49.8878 0.609375C50.8848 0.609375 52.0811 0.609387 53.0781 0.811427C56.069 1.01347 58.8606 1.41755 61.8515 1.82163C61.8515 1.82163 61.8514 1.82163 62.0508 1.82163C65.2411 2.62979 68.4315 3.63998 71.8212 4.65018C74.6128 5.45834 77.2049 6.26649 79.797 7.07465C81.5916 7.68077 83.1867 8.48893 84.9812 9.09505C86.5764 9.70117 88.1716 10.3073 89.5674 11.1155C91.9601 12.5297 94.1534 14.1461 96.1474 15.7624C97.5431 16.7726 98.9389 18.1869 100.135 19.3991C101.93 21.2175 103.525 23.2379 104.921 25.2583C108.111 30.3093 110.703 35.9664 111.9 42.0276C112.896 47.0786 112.897 52.3316 112.697 57.3826C112.498 60.0092 112.099 63.0398 111.501 65.6663C110.903 68.6969 109.906 71.3234 109.507 74.354C109.307 75.7683 109.507 77.3846 109.307 78.7989C109.108 80.0111 108.709 81.2234 108.51 82.4357C108.111 84.8601 107.313 87.4866 106.117 89.7091C104.522 92.9417 102.528 95.5682 100.135 98.1948C97.5431 101.225 94.951 104.256 92.1595 107.085C89.5673 110.115 86.377 112.54 82.9873 114.56C80.3952 116.176 77.6037 118.197 74.8121 119.207C72.0206 120.217 69.0296 121.833 66.0387 122.238C63.8454 122.44 62.0508 123.248 60.2563 124.662C59.2593 125.47 58.2623 126.48 57.2654 127.491C56.2684 128.299 55.2714 128.501 54.075 128.905C51.4829 129.713 48.8908 129.511 46.0993 129.511C42.1114 129.511 38.3229 129.915 34.5344 130.319C32.5404 130.521 30.5465 130.723 28.7519 130.521C26.9574 130.319 25.1628 129.915 23.5677 129.713C21.5737 129.511 19.7792 129.511 17.7852 129.107C16.1901 128.905 14.9937 128.905 13.5979 129.107C12.4016 129.309 11.2052 129.107 9.80943 129.107C8.61306 129.309 7.21731 129.511 6.02094 129.713C1.23547 130.925 -4.1482 133.552 -10.13 132.137Z" fill="#00C4FF"/>
<path fill-rule="evenodd" clip-rule="evenodd" d="M-14.7151 175.981C-14.7151 175.981 7.41775 179.82 17.3875 179.618C32.5415 179.214 50.0883 181.032 63.6471 181.437C77.206 181.841 100.934 170.526 105.321 168.506C109.707 166.486 120.076 160.424 129.248 150.12C138.42 139.816 142.009 123.047 142.009 123.047H138.221C138.221 123.047 136.825 130.32 131.242 138.402C127.852 143.251 123.067 147.494 116.487 153.353C106.916 161.637 94.5533 168.102 81.9914 171.335C65.2422 175.577 50.487 174.365 40.1185 175.981C25.3633 178.204 -7.73627 172.951 -7.73627 172.951L-14.7151 175.981Z" fill="url(#paint10_radial_803_31469)"/>
<path fill-rule="evenodd" clip-rule="evenodd" d="M142.408 105.672C142.408 105.672 144.801 116.178 145 121.835C145 121.835 141.212 124.26 138.42 123.047C138.42 123.047 141.81 110.117 142.408 105.672Z" fill="url(#paint11_radial_803_31469)"/>
<path fill-rule="evenodd" clip-rule="evenodd" d="M78.4011 5.65625C78.4011 5.65625 98.1412 7.67666 102.727 10.9093C102.727 10.9093 99.537 14.546 95.7485 15.1521C95.9479 14.9501 79.9963 6.06033 78.4011 5.65625Z" fill="#EE8CFF"/>
<path opacity="0.5" fill-rule="evenodd" clip-rule="evenodd" d="M-31.4648 159.01C-31.4648 159.01 6.81897 170.325 36.5288 170.931C66.438 171.537 77.6041 164.87 90.5648 159.617C103.525 154.566 124.661 143.049 131.042 134.362C137.423 125.876 142.407 105.672 142.407 105.672C142.407 105.672 136.226 135.978 131.042 141.231C125.658 146.484 102.13 162.849 97.9424 164.87C93.7551 166.89 82.589 175.578 62.0513 173.153C62.0513 173.153 48.2931 175.174 43.3082 174.77C38.3233 174.365 30.5469 179.416 16.3899 174.77C16.3899 174.77 -3.35018 173.759 -7.53747 172.749C-11.9242 171.941 -31.4648 159.01 -31.4648 159.01Z" fill="#54469B"/>
<path fill-rule="evenodd" clip-rule="evenodd" d="M-22.0941 118.194C-22.0941 118.194 9.60964 123.852 32.54 121.427C55.4704 119.003 67.8329 113.143 74.4129 108.901C80.993 104.658 93.7542 90.717 98.5397 84.2518C103.325 77.9885 105.718 62.0273 105.718 62.0273C105.718 62.0273 106.516 77.3824 102.727 84.2518C98.7391 90.9191 85.3797 103.648 79.7966 107.284C74.2136 110.921 58.4613 119.811 50.2862 121.225C42.111 122.639 28.5521 126.882 18.5824 125.064C9.01146 123.448 -14.9159 123.852 -22.0941 118.194Z" fill="#B04FE2"/>
<path fill-rule="evenodd" clip-rule="evenodd" d="M21.7739 169.711C21.7739 169.711 54.674 167.488 66.0395 164.862C77.405 162.235 92.3597 156.174 102.728 152.133C113.097 148.294 121.073 140.617 126.855 136.374C132.637 132.131 140.015 114.352 140.015 114.352C140.015 114.352 135.23 131.929 128.051 137.586C120.873 143.243 102.329 153.749 81.5924 163.245C58.2632 173.751 40.3176 170.721 21.7739 169.711Z" fill="#8B40E0"/>
<path fill-rule="evenodd" clip-rule="evenodd" d="M136.825 127.694C137.423 126.078 137.822 124.461 138.42 123.047C136.625 129.512 134.033 135.573 131.042 141.23C130.245 142.039 129.048 142.847 128.251 143.655C127.453 144.665 126.656 145.473 125.858 146.484C121.471 150.726 116.686 154.565 111.502 157.798C106.317 161.232 101.133 164.465 95.3506 167.092C90.9639 169.112 86.3779 170.728 81.7918 171.941C78.0033 172.951 74.0154 173.355 70.2269 173.557C68.2329 173.759 66.4384 173.961 64.4444 174.163C62.0517 174.365 59.4595 174.365 57.2662 174.769C53.0789 175.577 48.8916 176.183 44.7043 176.386C41.1152 176.588 37.5261 177.194 33.937 177.194C29.351 177.194 24.7648 176.386 20.1787 176.386C15.7921 176.386 11.206 176.183 6.81933 175.779C4.2272 175.577 1.63508 174.971 -0.957051 174.769C-3.15039 174.567 -5.34377 173.961 -7.53712 173.759C-9.33167 172.345 -11.1262 170.93 -12.9207 169.516C-13.3195 169.112 -13.9177 168.708 -14.3165 168.304C-11.7244 169.112 -9.33168 169.92 -6.73955 170.728C-3.15044 171.941 0.837465 172.547 4.42657 172.951C7.41749 173.355 11.206 173.557 14.1969 172.749C17.3872 171.941 19.5806 172.951 22.3721 174.163C23.7679 174.769 24.9642 174.971 26.36 175.375C28.354 175.981 29.7497 175.779 31.7437 175.577C33.5382 175.375 35.3328 174.971 36.928 174.769C38.3237 174.365 39.9188 173.759 41.3146 173.557C43.9067 173.153 46.6983 172.749 49.2904 173.355C52.2813 173.961 55.2722 174.163 58.2632 173.759C61.4535 173.153 64.245 172.951 67.4353 172.951C68.4323 172.951 69.4293 173.153 70.4263 173.153C71.6226 173.355 72.6196 172.951 73.816 172.951C75.81 172.749 77.8039 172.345 79.7978 171.739C81.5924 171.132 83.3869 170.324 85.1815 169.718C88.7706 168.304 91.7615 167.092 94.9518 164.869C97.5439 163.051 100.535 161.839 103.127 160.02C105.719 158.404 107.913 156.181 110.505 154.767C113.296 153.151 115.689 150.928 118.281 149.11C119.876 147.898 121.471 146.484 123.066 145.271C124.462 144.261 126.057 143.453 127.453 142.241C129.647 140.22 131.84 138.2 133.435 135.371C134.831 132.947 136.027 130.32 136.825 127.694Z" fill="#00C4FF"/>
<path fill-rule="evenodd" clip-rule="evenodd" d="M35.5315 74.5493C35.5315 74.5493 58.2625 55.5575 67.8335 37.1719C68.0329 37.1719 41.3139 64.8514 35.5315 74.5493Z" fill="#FF77F4"/>
<path fill-rule="evenodd" clip-rule="evenodd" d="M11.6038 96.9824C11.6038 96.9824 25.9602 96.9825 41.9118 90.3151C57.8634 83.6478 65.8392 69.707 65.8392 69.707C65.8392 69.707 55.0718 80.2131 43.3075 86.0723C31.5432 91.9315 22.7699 93.3457 11.6038 96.9824Z" fill="#F9C6FF"/>
<path fill-rule="evenodd" clip-rule="evenodd" d="M68.4314 66.4711C68.4314 66.4711 70.0265 62.2283 73.0175 54.9549C76.0084 47.6814 78.4011 43.6406 78.4011 43.6406C78.4011 43.6406 77.6036 54.9548 68.4314 66.4711Z" fill="#EA9CF4"/>
<path fill-rule="evenodd" clip-rule="evenodd" d="M6.61963 135.568C6.61963 135.568 26.5591 140.417 52.6798 135.568C78.8006 130.719 79.7975 129.103 86.9757 123.244C94.1539 117.587 99.3382 110.313 102.13 107.485C104.921 104.656 108.51 95.1602 108.51 95.1602C108.51 95.1602 101.133 108.495 90.5648 117.587C79.9969 126.476 71.2235 130.921 53.4774 133.75C35.9307 136.376 15.5924 135.972 6.61963 135.568Z" fill="#D374F4"/>
<path fill-rule="evenodd" clip-rule="evenodd" d="M24.1672 179.609C24.1672 179.609 42.3122 181.225 49.6898 182.639C57.0674 184.256 71.2244 184.054 79.3996 181.023C87.5748 177.992 103.526 169.305 103.526 169.305C103.526 169.305 88.5718 177.79 70.6263 179.811C52.8801 181.629 41.9134 178.598 24.1672 179.609Z" fill="#D374F4"/>
<path fill-rule="evenodd" clip-rule="evenodd" d="M108.909 166.684C108.909 166.684 120.473 158.805 126.057 153.754C126.057 153.552 120.075 162.037 108.909 166.684Z" fill="#D374F4"/>
<path fill-rule="evenodd" clip-rule="evenodd" d="M21.3754 66.8783C21.3754 66.8783 34.5354 56.7763 38.7227 49.7049C42.91 42.4314 43.3088 38.3906 43.3088 38.3906C43.3088 38.3906 45.1033 45.462 37.327 54.3518C29.3512 63.2415 21.3754 66.8783 21.3754 66.8783Z" fill="#F2C4F8"/>
<defs>
<radialGradient id="paint0_radial_803_31469" cx="0" cy="0" r="1" gradientUnits="userSpaceOnUse" gradientTransform="translate(-15.1666 60.377) scale(154.368 156.416)">
<stop offset="0.00558659" stop-color="#FF9AFF"/>
<stop offset="0.0930098" stop-color="#FB94FF"/>
<stop offset="0.2093" stop-color="#F183FF"/>
<stop offset="0.3418" stop-color="#E068FF"/>
<stop offset="0.4864" stop-color="#C841FF"/>
<stop offset="0.639" stop-color="#A910FF"/>
<stop offset="0.6844" stop-color="#9F00FF"/>
<stop offset="0.7432" stop-color="#9900F8"/>
<stop offset="0.8282" stop-color="#8700E5"/>
<stop offset="0.9287" stop-color="#6A00C6"/>
<stop offset="1" stop-color="#5200AB"/>
</radialGradient>
<radialGradient id="paint1_radial_803_31469" cx="0" cy="0" r="1" gradientUnits="userSpaceOnUse" gradientTransform="translate(-15.1666 60.377) scale(154.368 156.416)">
<stop offset="0.00558659" stop-color="#FF9AFF"/>
<stop offset="0.0930098" stop-color="#FB94FF"/>
<stop offset="0.2093" stop-color="#F183FF"/>
<stop offset="0.3418" stop-color="#E068FF"/>
<stop offset="0.4864" stop-color="#C841FF"/>
<stop offset="0.639" stop-color="#A910FF"/>
<stop offset="0.6844" stop-color="#9F00FF"/>
<stop offset="0.7432" stop-color="#9900F8"/>
<stop offset="0.8282" stop-color="#8700E5"/>
<stop offset="0.9287" stop-color="#6A00C6"/>
<stop offset="1" stop-color="#5200AB"/>
</radialGradient>
<radialGradient id="paint2_radial_803_31469" cx="0" cy="0" r="1" gradientUnits="userSpaceOnUse" gradientTransform="translate(-10.7892 51.3299) scale(151.742 153.756)">
<stop offset="0.00558659" stop-color="#FF9AFF"/>
<stop offset="0.0930098" stop-color="#FB94FF"/>
<stop offset="0.2093" stop-color="#F183FF"/>
<stop offset="0.3418" stop-color="#E068FF"/>
<stop offset="0.4864" stop-color="#C841FF"/>
<stop offset="0.639" stop-color="#A910FF"/>
<stop offset="0.6844" stop-color="#9F00FF"/>
<stop offset="0.7432" stop-color="#9900F8"/>
<stop offset="0.8282" stop-color="#8700E5"/>
<stop offset="0.9287" stop-color="#6A00C6"/>
<stop offset="1" stop-color="#5200AB"/>
</radialGradient>
<radialGradient id="paint3_radial_803_31469" cx="0" cy="0" r="1" gradientUnits="userSpaceOnUse" gradientTransform="translate(9.16662 35.0688) scale(33.9302 34.3804)">
<stop offset="0.630208" stop-color="white"/>
<stop offset="1" stop-color="#EF9AFF"/>
</radialGradient>
<radialGradient id="paint4_radial_803_31469" cx="0" cy="0" r="1" gradientUnits="userSpaceOnUse" gradientTransform="translate(14.5629 47.4955) scale(11.8038 11.9604)">
<stop stop-color="white"/>
<stop offset="1" stop-color="#F7ABFF"/>
</radialGradient>
<radialGradient id="paint5_radial_803_31469" cx="0" cy="0" r="1" gradientUnits="userSpaceOnUse" gradientTransform="translate(7.30608 46.3889) scale(12.4383 12.6033)">
<stop stop-color="white"/>
<stop offset="1" stop-color="#F9D0FD"/>
</radialGradient>
<radialGradient id="paint6_radial_803_31469" cx="0" cy="0" r="1" gradientUnits="userSpaceOnUse" gradientTransform="translate(-1.49163 34.2519) scale(28.7318 29.113)">
<stop stop-color="white"/>
<stop offset="1" stop-color="#F7C2FC"/>
</radialGradient>
<radialGradient id="paint7_radial_803_31469" cx="0" cy="0" r="1" gradientUnits="userSpaceOnUse" gradientTransform="translate(-13.7721 22.9377) scale(48.7135 49.3598)">
<stop stop-color="white"/>
<stop offset="1" stop-color="#F5AEFE"/>
</radialGradient>
<radialGradient id="paint8_radial_803_31469" cx="0" cy="0" r="1" gradientUnits="userSpaceOnUse" gradientTransform="translate(4.28217 30.7539) scale(67.8762 68.7767)">
<stop offset="0.744792" stop-color="white"/>
<stop offset="0.9998" stop-color="#E886FF"/>
<stop offset="0.9999" stop-color="#ED8CFF"/>
</radialGradient>
<radialGradient id="paint9_radial_803_31469" cx="0" cy="0" r="1" gradientUnits="userSpaceOnUse" gradientTransform="translate(-16.8834 31.2629) scale(114.674 116.195)">
<stop offset="0.84375" stop-color="#EEADFE"/>
<stop offset="1" stop-color="#B439EE"/>
</radialGradient>
<radialGradient id="paint10_radial_803_31469" cx="0" cy="0" r="1" gradientUnits="userSpaceOnUse" gradientTransform="translate(17.491 132.461) scale(90.3797 91.5788)">
<stop offset="0.572917" stop-color="#EEB9FF"/>
<stop offset="1" stop-color="#7801BD"/>
</radialGradient>
<radialGradient id="paint11_radial_803_31469" cx="0" cy="0" r="1" gradientUnits="userSpaceOnUse" gradientTransform="translate(139.66 110.325) scale(10.1884 10.3236)">
<stop stop-color="#1F0081"/>
<stop offset="0.73" stop-color="#260087"/>
<stop offset="1" stop-color="#2A008B"/>
</radialGradient>
</defs>
</svg>
