<svg width="251" height="135" viewBox="0 0 251 135" fill="none" xmlns="http://www.w3.org/2000/svg">
<path fill-rule="evenodd" clip-rule="evenodd" d="M251 125.505C251 137.42 249.41 149.335 246.229 160.19C239.868 182.431 227.411 202.024 210.978 217.38C199.316 228.236 185.268 236.973 169.895 242.798C156.113 248.094 141.005 251.006 125.367 251.006C123.247 251.006 120.862 251.006 118.741 250.741C115.561 250.476 112.115 250.212 108.934 249.947C84.8152 246.77 62.5512 236.708 44.793 221.617C38.1668 216.056 32.0708 209.702 26.5048 202.818C22.529 197.523 18.8184 192.227 15.6378 186.402C14.8426 185.078 14.0475 183.49 13.2524 182.166C13.2524 182.166 13.2524 182.166 13.2524 181.901C12.4572 180.313 11.662 178.989 11.1319 177.4C9.01157 172.634 7.15622 167.604 5.56593 162.573C4.50574 158.866 3.44562 155.16 2.65048 151.453C2.12038 148.805 1.59029 146.157 1.32524 143.245C0.530095 137.42 0 131.595 0 125.505C0 122.063 -4.85396e-05 118.621 0.530047 115.179C0.795094 113.061 1.06019 110.943 1.32524 108.825C2.91552 96.3808 6.36111 84.7309 11.397 73.8754C13.7824 68.58 16.698 63.2846 19.8786 58.5188C25.1795 50.3109 31.2756 42.6326 38.4319 35.7486C60.9609 13.7728 91.9715 0.269531 125.898 0.269531C127.223 0.269531 128.548 0.269531 129.873 0.269531C131.199 0.269531 132.789 0.269527 134.114 0.534296C141.27 1.06383 148.427 2.12291 155.318 3.71153C159.294 4.77061 163.269 5.82968 166.98 7.15353C169.63 7.94784 172.016 9.00691 174.666 10.066C176.522 10.8603 178.377 11.6546 180.232 12.4489C180.497 12.7137 180.762 12.7137 181.293 12.9785C193.485 18.8034 204.617 26.7465 214.158 36.2781C215.484 37.602 216.809 38.9258 218.134 40.5145C218.929 41.5735 219.989 42.3678 220.785 43.4269C222.375 45.0155 223.7 46.8689 225.025 48.4575C230.061 54.812 234.302 61.696 238.013 68.8448C242.253 77.3174 245.699 86.3195 248.084 95.5865C249.675 104.853 251 114.915 251 125.505Z" fill="url(#paint0_radial_803_31535)"/>
<path fill-rule="evenodd" clip-rule="evenodd" d="M180.497 12.7093C179.967 12.7093 179.702 12.7093 179.172 12.9741C177.847 13.2388 176.522 12.9741 175.196 12.7093C174.136 12.4445 173.606 11.915 172.281 11.915C170.691 11.6502 169.365 11.1207 167.775 10.8559C166.185 10.5911 164.86 10.0616 163.269 9.53207C161.944 9.00253 161.414 9.2673 160.354 9.53207C159.294 9.79684 158.498 9.2673 157.438 9.00253C156.378 8.47299 155.053 8.47299 153.993 8.20823C150.812 7.67869 147.632 6.61961 144.451 5.8253C142.596 5.29576 140.74 5.29576 138.62 5.29576C137.03 5.29576 135.704 5.8253 134.114 5.8253C133.054 5.8253 132.259 5.56053 131.199 5.56053C130.138 5.29576 129.078 5.56053 128.018 5.56053C126.428 5.29576 125.633 5.03099 124.042 5.56053C122.717 5.8253 121.922 5.82529 120.597 6.09006C119.271 6.09006 117.681 6.61961 116.356 6.88438C113.97 7.41392 111.32 7.94345 108.935 7.94345C107.344 7.94345 105.224 7.41391 103.899 7.94345C103.103 8.20822 102.573 9.2673 101.778 9.79684C100.453 11.1207 99.1278 12.1798 98.0676 13.5036C97.0074 14.8275 95.9472 16.4161 95.9472 18.2695C95.9472 19.8581 96.7423 21.7115 97.5375 23.0353C98.3326 24.6239 98.5976 25.9478 97.0074 27.0068C95.152 28.3307 92.7666 29.3898 90.6462 30.1841C89.0559 30.7136 87.7307 30.9784 86.6705 29.9193C86.1404 29.6545 85.8754 28.8602 85.3453 28.3307C84.8152 28.0659 84.0201 28.3307 83.49 28.5954C81.8997 29.125 80.3094 29.6545 78.7191 29.9193C77.6589 30.1841 76.8637 30.7136 75.8036 30.7136C74.7434 30.9784 73.9483 30.1841 72.623 30.4488C71.0327 30.7136 69.1774 31.5079 67.5871 31.5079C66.2619 31.5079 64.6716 30.9784 63.6114 30.4488C63.0813 30.1841 62.8163 29.6545 62.0211 29.9193C61.491 29.9193 60.6959 30.7136 60.4308 31.2431C59.9007 31.7727 59.9007 32.567 59.3706 33.0965C58.8405 33.8908 58.5755 34.4204 58.0454 35.2147C57.2503 36.5385 56.4551 37.8624 55.66 39.1862C55.1299 39.9805 54.5998 41.3044 53.8046 42.0987C53.5396 42.6282 52.7444 42.893 52.2143 43.1578C50.8891 43.9521 49.5639 45.0111 48.2386 45.8055C45.8532 47.6588 43.4678 49.777 41.0824 51.6304C39.227 52.9542 36.5766 53.7485 34.4562 54.8076C33.131 55.3371 31.8057 55.8667 30.4805 56.3962C29.9504 56.661 29.1552 56.661 28.8902 57.1905C28.3601 57.7201 28.095 58.2496 27.83 59.0439C26.7698 60.3678 25.4445 61.9564 24.6494 63.545C24.1193 64.6041 23.8543 65.3984 23.3242 66.4575C22.7941 67.7813 21.9989 69.1051 21.7339 70.6938C20.6737 73.6062 20.6737 76.7835 19.3484 79.6959C18.8183 81.2845 17.7582 82.8731 16.963 84.4618C15.6378 87.1095 15.3727 90.2867 15.1077 93.1992C14.8426 94.7878 15.1077 96.9059 15.3727 98.4945C15.6378 100.348 15.6378 102.201 15.6378 104.055C15.6378 105.908 14.3126 108.026 13.2524 109.35C12.1922 110.674 10.3368 111.203 9.0116 112.527C7.95141 113.586 6.62616 114.645 6.09606 116.234C5.83101 116.764 6.09606 117.558 6.09606 118.352C5.83101 119.941 5.30095 121.265 5.30095 122.853C5.0359 124.707 5.03589 126.56 5.03589 128.678C5.03589 129.737 5.03589 130.532 5.03589 131.591C5.03589 132.65 5.30089 133.444 5.56593 134.238C5.56593 134.768 5.56593 135.562 5.56593 136.092C5.56593 136.886 6.09606 137.68 6.09606 138.21C6.62616 140.063 6.89119 141.652 7.15624 143.505C7.42128 145.094 8.21643 146.683 8.48147 148.271C9.27662 150.389 9.54168 152.507 10.0718 154.89C10.3368 156.479 10.3369 158.332 10.6019 159.921C10.867 161.245 11.132 162.569 11.132 163.893C11.132 166.011 10.6019 167.864 10.6019 169.982C10.6019 173.424 11.9271 176.866 12.7223 180.308C12.9873 181.367 13.2523 182.162 13.5174 183.221C4.77079 166.275 0 146.947 0 126.56C0 101.672 7.15627 78.6368 19.6135 59.3087C24.9145 51.1008 31.0106 43.4225 38.1668 36.8033C60.6959 14.8274 91.7065 1.32422 125.633 1.32422C128.283 1.32422 131.199 1.32422 133.849 1.58899C150.282 1.32422 166.185 5.56052 180.497 12.7093Z" fill="url(#paint1_linear_803_31535)"/>
<path opacity="0.4" fill-rule="evenodd" clip-rule="evenodd" d="M154.523 3.442C147.631 1.85338 140.74 0.794314 133.319 0.264775C131.994 0.264775 130.403 0 129.078 0C131.994 1.58862 134.909 4.50108 135.439 7.67831C136.499 12.9737 138.355 17.7395 139.15 22.7702C140.21 27.8008 139.945 34.1552 137.56 38.6563C136.234 41.5688 134.379 43.9517 131.994 46.3346C130.403 47.9232 128.813 48.9823 127.753 51.1005C126.693 53.2186 125.367 55.072 124.042 56.9254C122.187 59.8379 120.067 62.7503 117.681 65.398C116.886 66.4571 116.091 66.9866 115.296 68.0457C114.501 69.3696 113.97 70.6934 112.91 71.7525C110.525 74.1354 107.079 75.724 104.164 76.7831C100.188 78.3717 96.7423 79.9603 93.0316 82.0785C87.7307 84.9909 83.2248 88.4329 77.1288 88.6977C75.0084 88.6977 72.888 88.4329 70.7676 88.6977C68.1172 88.9625 65.7318 90.0216 63.3463 90.5511C61.226 91.0806 58.8405 91.3454 56.7201 91.8749C53.0095 92.4045 50.0939 93.7283 46.6483 94.5226C42.1425 95.5817 37.3717 95.3169 32.6008 96.1112C28.36 96.6408 24.9144 97.1703 20.6737 96.1112C14.3125 94.5226 10.8669 91.6102 12.1921 84.7262C12.9872 80.2251 12.7223 76.7831 10.6019 73.6059C5.56598 84.4614 2.12031 96.376 0.530029 108.555C3.44555 109.879 6.89117 110.409 9.80669 110.674C19.0834 111.733 29.1552 107.496 37.6367 104.319C41.8774 102.73 46.3833 100.348 51.1541 99.818C56.19 99.2885 60.4308 99.818 65.4667 98.7589C82.4297 94.5226 99.1277 88.6977 114.5 79.6956C120.862 75.9888 123.512 70.6934 128.018 65.398C131.729 60.6322 136.234 56.9254 140.74 52.9539C145.246 48.9823 149.222 45.2756 151.872 39.9802C154.788 34.42 157.173 28.0655 158.498 21.9758C159.824 15.0918 157.968 8.73738 154.523 3.442ZM153.728 20.3872C153.463 21.7111 153.197 23.2997 152.932 24.6235C151.872 28.0655 149.752 31.5076 146.571 33.0962C145.246 33.8905 143.126 33.3609 142.33 32.0371C141.8 31.2428 141.8 30.1837 141.8 29.3894C141.535 27.536 141.27 25.9474 141.27 24.094C141.27 19.8577 141.27 15.6214 140.74 11.3851C141.27 13.768 140.74 7.67831 144.451 6.08969C146.306 5.29538 148.957 6.08969 150.282 7.41354C151.872 9.26692 152.402 12.1794 152.932 14.2975C153.462 16.6805 153.993 18.2691 153.728 20.3872Z" fill="url(#paint2_linear_803_31535)" fill-opacity="0.5"/>
<path opacity="0.4" fill-rule="evenodd" clip-rule="evenodd" d="M135.438 220.82C135.173 220.82 134.643 221.085 134.378 221.085L136.763 221.35C136.763 221.085 136.233 220.82 135.438 220.82ZM135.438 220.82C135.173 220.82 134.643 221.085 134.378 221.085L136.763 221.35C136.763 221.085 136.233 220.82 135.438 220.82ZM247.288 95.0547C247.288 98.2319 246.228 101.674 246.228 104.851C246.228 109.352 245.433 112.794 244.372 117.031C243.577 119.943 241.987 122.061 241.192 124.974C240.132 128.151 238.541 131.063 236.951 133.976C233.77 139.801 230.325 145.89 229 152.51C227.674 158.599 227.409 163.63 224.494 169.19C221.578 174.485 217.338 178.987 214.157 184.282C212.832 186.665 211.772 186.665 209.386 188.253C207.001 190.107 204.615 192.755 202.23 194.608C197.194 198.579 192.423 201.492 186.062 203.875C182.086 205.464 178.376 206.523 174.135 207.052C171.484 207.582 168.834 207.052 166.183 207.582C161.943 208.376 157.967 209.435 153.726 210.759C147.1 212.877 140.209 214.201 133.582 216.319C128.812 217.643 124.306 218.702 119.535 219.496C116.619 220.026 114.234 221.614 111.319 221.085C108.403 220.555 105.487 219.496 102.572 218.437C98.8612 217.378 95.6806 217.113 91.7049 217.113C86.404 217.113 80.0428 217.908 74.4768 216.849C68.3807 215.789 62.5497 213.936 56.4536 212.877C52.743 212.083 50.0925 210.494 46.6468 209.17C43.4663 207.582 40.2858 207.317 36.8401 206.258C33.3945 205.199 29.9489 203.61 26.5033 202.816C31.8042 209.7 37.9003 216.054 44.7916 221.614C62.5497 236.706 84.5486 246.767 108.933 249.945C112.114 250.209 115.294 250.739 118.74 250.739C125.896 249.15 132.787 247.032 139.944 244.914C151.871 241.207 162.208 234.059 174.135 230.617C178.641 229.293 182.616 227.969 186.592 225.851C189.773 224.262 192.953 223.997 195.869 222.673C207.001 217.908 215.217 207.317 220.253 196.726C222.373 191.96 224.494 186.665 228.735 182.958C230.325 181.369 232.445 180.31 233.77 178.457C235.361 176.604 236.421 174.485 238.011 172.367C240.662 168.925 243.047 165.219 245.433 161.777C245.698 161.247 245.963 160.982 246.228 160.453C249.408 149.332 250.999 137.683 250.999 125.768C250.999 114.912 249.673 104.851 247.288 95.0547ZM131.992 221.614C132.522 221.35 133.052 220.82 133.582 220.555C134.113 220.291 134.908 220.555 135.438 220.82C136.498 220.555 137.293 220.555 138.088 221.085C138.618 221.35 139.414 221.879 139.679 222.409C139.944 222.938 139.679 223.203 139.149 223.733C138.618 224.262 138.353 224.262 137.558 224.262C136.233 224.527 134.908 224.792 133.317 224.527C132.522 224.527 131.197 224.262 130.667 223.733C130.667 222.674 131.462 222.144 131.992 221.614ZM140.209 238.03C139.414 239.089 138.618 240.148 137.558 240.678C136.498 241.472 135.438 241.737 134.643 242.531C131.992 243.855 129.342 245.444 126.691 246.238C125.631 246.503 124.306 246.503 123.246 246.503C121.92 246.767 120.33 246.768 119.005 246.768C117.415 246.768 115.559 247.032 113.969 247.297C112.379 247.297 110.523 247.562 108.933 247.562C106.018 247.827 103.632 247.297 100.982 246.238C98.5962 245.444 96.2108 244.12 94.0904 242.796C92.5001 241.737 91.1749 240.413 90.1147 239.089C88.7895 238.03 87.9943 236.706 87.1992 235.118C86.9341 234.588 86.6691 234.059 86.9341 233.264C86.9341 232.999 87.1992 232.735 87.1992 232.735C87.7293 232.47 88.2594 231.94 88.5244 231.94C89.3196 231.411 90.3798 231.411 91.4399 231.146C93.8254 230.881 96.2108 231.146 98.5962 231.411C99.9214 231.411 101.247 231.676 102.572 231.411C104.427 231.146 106.283 230.617 107.873 230.087C112.114 229.028 116.354 227.969 120.595 227.704C124.836 227.175 129.607 226.645 133.848 227.439C135.438 227.704 137.558 228.234 138.883 229.028C139.944 229.822 140.739 230.881 141.269 231.94C142.064 234.059 141.534 236.177 140.209 238.03ZM173.605 227.175C172.81 227.969 171.749 228.498 170.689 229.293C169.364 230.352 168.039 230.881 166.713 231.676C165.653 232.47 164.328 232.999 163.268 233.529C161.943 234.059 160.882 234.588 159.557 235.382C158.232 235.912 156.907 236.442 155.581 236.971C154.521 237.236 153.461 237.765 152.401 237.501C151.606 237.236 150.545 236.971 150.015 236.442C148.955 235.382 149.22 234.323 149.485 233.794C149.485 233 149.22 231.676 149.485 230.617C149.75 230.087 150.28 229.293 150.546 228.763C151.606 226.645 153.196 225.321 154.786 223.733C156.112 222.409 157.702 221.35 159.557 220.555C161.678 219.761 164.328 219.496 166.448 219.232C168.834 218.967 173.075 218.702 174.4 221.614C175.195 223.468 174.93 225.321 173.605 227.175ZM137.028 221.085C136.763 221.085 136.233 220.82 135.703 220.555C135.438 220.555 134.908 220.82 134.643 220.82L137.028 221.085Z" fill="url(#paint3_linear_803_31535)" fill-opacity="0.5"/>
<path opacity="0.4" fill-rule="evenodd" clip-rule="evenodd" d="M237.218 68.3087V68.8383C236.953 72.2803 235.628 74.6632 234.303 77.8404C233.243 80.4881 232.182 82.6063 230.857 84.9892C228.737 88.9607 227.677 92.6675 226.086 97.1686C223.436 103.788 222.376 110.937 218.4 117.026C214.954 122.586 213.894 129.206 211.244 135.031C208.063 141.65 203.027 146.151 197.726 150.917C195.341 153.035 193.22 155.683 191.1 158.066C188.715 160.448 187.124 163.626 184.209 165.744C178.378 169.98 171.752 173.687 165.921 178.188C162.475 180.836 160.09 184.542 156.114 186.661C152.403 189.044 148.162 190.632 144.452 192.75C141.006 194.868 137.561 196.987 133.85 198.575C129.609 200.164 126.163 199.634 121.658 199.899C116.887 200.164 111.851 201.488 107.345 203.076C103.634 204.4 100.454 205.724 96.4781 204.4C93.8276 203.606 91.7072 201.752 89.0567 201.223C82.6956 199.899 75.8044 201.223 69.4432 200.958C64.4073 200.693 59.1064 199.634 54.0705 198.575C49.2997 197.781 45.324 194.339 40.8181 193.015C34.9871 191.426 28.3609 192.75 23.0599 190.632C20.6745 189.838 18.5541 187.984 16.6988 186.661C16.1687 186.396 15.9037 186.131 15.3736 185.866C14.5784 184.542 13.7833 182.954 12.9882 181.63C14.3134 182.16 15.6386 182.689 16.9639 183.483C24.1202 186.925 33.1318 186.396 40.8181 187.72C49.5647 189.308 58.3113 191.426 67.0578 192.486C70.7685 193.015 74.2141 192.75 77.9248 192.486C82.9607 191.956 87.9966 191.956 93.0325 191.162C101.514 189.573 109.996 185.602 118.742 186.661C120.332 186.925 122.188 187.72 123.778 187.72C126.163 187.72 128.019 185.602 129.874 184.278C133.32 182.16 137.03 182.424 140.211 179.512C143.126 176.599 146.572 174.746 150.283 172.893C159.824 168.127 167.511 160.184 175.197 152.505C181.558 146.151 187.654 139.532 191.895 131.853C196.136 124.175 195.341 114.908 198.521 106.965C200.907 101.14 202.762 95.8447 206.473 90.8141C208.328 88.4312 210.449 86.313 212.304 83.9301C214.424 81.5472 215.484 78.8995 217.075 75.987C218.665 72.8098 221.05 70.1621 222.376 66.7201C223.701 63.5429 223.436 60.8952 223.436 57.4532C223.436 54.0112 223.436 50.3044 223.436 46.5977C229.002 54.276 233.508 61.16 237.218 68.3087Z" fill="url(#paint4_linear_803_31535)" fill-opacity="0.5"/>
<path opacity="0.4" fill-rule="evenodd" clip-rule="evenodd" d="M217.339 39.9781C216.014 38.6543 214.689 37.0657 213.363 35.7418C203.822 26.2101 192.689 18.5318 180.497 12.4421C180.232 12.1773 179.967 12.1773 179.437 11.9126C177.582 11.1183 175.726 10.324 173.871 9.52966C171.221 8.47058 168.835 7.4115 166.185 6.61719C166.98 7.14673 168.04 7.67627 168.305 7.67627C169.895 8.47058 171.221 9.00011 172.281 10.324C173.341 11.6478 173.871 12.7069 173.871 14.5603C173.871 16.1489 174.136 18.0023 174.401 19.5909C174.666 21.1795 175.461 22.5033 175.726 24.092C175.992 24.8863 175.992 25.6806 176.257 26.7397C176.787 28.8578 177.582 30.976 178.112 33.0941C178.907 37.0657 176.787 40.2429 175.461 43.6849C173.341 49.245 172.016 54.8052 170.16 60.6301C168.835 65.1312 166.45 69.6323 163.004 73.0743C159.559 76.2515 154.523 77.0458 151.607 80.4878C148.957 83.665 145.776 86.5775 142.065 88.1661C137.825 90.2843 133.054 91.8729 128.548 93.1967C125.367 94.2558 121.922 94.2558 118.476 95.0501C114.235 96.1092 110.525 98.2274 106.814 99.816C102.573 101.669 98.8627 103.788 94.6219 105.641C90.3812 107.494 86.6705 109.877 82.4297 111.466C80.3093 112.26 78.189 112.79 76.3337 113.319C72.0929 114.908 68.1172 117.556 63.6114 118.085C62.0211 118.35 60.4308 118.615 58.8405 118.615C57.5153 118.615 56.4551 118.879 55.3949 119.144C51.4192 120.733 49.0338 124.969 44.528 125.234C40.2872 125.234 36.3115 124.969 32.3358 125.499C30.2154 125.763 28.3601 125.499 26.5048 125.763C25.9747 125.763 25.1795 126.028 24.6494 125.763C24.1193 125.499 23.3242 124.969 22.529 124.44C20.9388 123.645 19.6135 122.586 18.2883 121.527C15.6378 119.409 12.1922 120.733 9.27666 119.938C8.48152 119.674 7.15627 119.938 6.36112 119.409C4.50579 118.35 2.12033 115.967 0.530047 114.643C0.264999 118.085 0 121.527 0 124.969C0 131.059 0.530095 136.884 1.32524 142.709C1.59029 145.356 2.12038 148.004 2.65048 150.916C3.44562 154.623 4.50574 158.595 5.56593 162.037C7.15622 167.067 9.01157 172.098 11.1319 176.864C14.5776 177.393 18.0232 177.923 21.4688 177.393C26.5047 176.599 31.2756 175.805 36.3115 176.07C41.0823 176.334 45.3231 177.923 49.8289 178.717C54.8648 179.512 60.1657 180.306 65.4667 180.571C70.2375 180.835 75.0085 181.365 79.5143 181.894C82.9599 182.424 86.6705 182.954 90.1162 183.218C99.3928 183.748 108.404 181.365 117.416 180.571C121.922 180.041 126.428 178.982 130.933 177.923C133.584 177.393 136.234 176.599 138.62 175.01C141.8 172.892 143.921 169.98 146.571 167.597C149.752 164.949 152.932 162.302 156.113 159.919C158.763 157.8 161.414 155.418 164.329 153.564C166.45 152.24 168.835 150.652 170.956 149.063C174.931 145.886 178.377 142.179 181.823 138.208C186.593 132.647 188.449 124.969 190.304 118.085C192.159 111.731 193.22 105.641 196.665 99.816C198.256 97.1683 199.581 93.991 200.376 90.8138C200.906 88.9604 201.171 86.5775 201.966 84.7241C203.291 81.8117 206.207 79.4287 207.797 76.7811C209.122 74.6629 210.713 72.5447 211.508 69.897C213.363 65.1312 214.688 60.3653 215.484 55.07C216.014 51.3632 217.339 47.6564 218.399 43.9497C218.664 43.4201 218.664 42.6258 218.929 42.0963C218.929 41.8315 218.134 40.7724 217.339 39.9781ZM53.8046 125.763C54.0697 125.234 58.8405 123.38 59.3706 123.116C59.3706 123.116 59.3706 123.116 59.1056 123.116L55.925 124.44C59.3706 123.38 65.4667 126.822 62.5512 130.529C61.756 131.588 59.3706 132.118 58.0454 132.383C56.7202 132.647 55.925 132.118 55.1299 131.059C54.3347 130 53.8046 128.411 53.8046 127.087C53.8046 126.822 53.8046 126.028 53.8046 125.763ZM16.4329 159.389C12.7222 158.33 10.3368 157.006 8.21641 153.829C6.62612 151.711 5.56598 149.857 5.03589 147.474C4.77084 145.356 3.97566 143.768 4.50576 141.65C4.77081 140.061 5.56598 138.208 6.36112 136.884C7.15627 135.295 8.48147 133.442 8.48147 132.912C12.1921 132.647 15.6378 132.383 19.0834 132.383C23.0591 132.383 27.2999 132.912 31.2756 132.912C33.1309 132.912 34.9863 132.912 36.8416 132.647C38.6969 132.383 40.2872 131.853 42.1425 131.588C45.3231 131.059 48.2386 130.794 51.1541 132.118C53.2745 133.177 54.3347 135.825 55.3949 137.943C55.925 139.267 56.4551 140.061 56.4551 141.65C56.4551 143.503 56.4551 145.092 56.19 146.68C56.19 147.21 55.925 148.004 55.925 148.534C53.2745 154.094 46.3833 155.947 41.0824 158.065C33.1309 161.242 24.3843 161.507 16.4329 159.389ZM72.8881 171.568C71.2978 175.805 64.4065 177.129 60.4308 177.393C58.5755 177.393 56.1901 177.129 54.3347 176.07C53.2746 175.54 52.4794 174.481 51.6843 173.422C51.1542 172.628 50.359 171.304 48.2386 171.833C48.7687 169.45 49.2988 167.332 50.359 165.214C51.1542 164.155 52.2143 163.361 53.2745 162.302C55.1298 160.713 57.2503 159.124 59.3706 158.065C62.8163 156.212 66.5269 157.536 69.7075 159.124C72.0929 160.183 73.6832 161.772 74.2133 164.155C75.0085 167.067 73.9483 168.921 72.8881 171.568ZM119.536 170.774C118.211 173.687 116.356 174.481 113.705 176.07C110.525 177.658 106.284 178.982 102.838 178.982C100.983 178.982 99.1278 178.188 97.5375 177.393C96.4773 176.864 95.152 176.599 94.3569 175.805C91.9714 173.422 91.4413 170.245 93.0316 170.774C91.9714 168.656 91.4414 166.538 91.1763 164.42C91.7064 164.155 91.9715 163.625 91.9715 163.096C93.2967 160.713 95.6821 158.595 98.3326 157.271C102.573 154.888 108.139 154.358 112.91 156.477C115.031 157.271 116.356 158.33 117.681 159.919C118.476 160.713 119.271 161.242 120.067 162.302C120.862 164.42 120.332 168.391 119.536 170.774ZM133.584 170.245C132.789 170.774 131.464 171.833 130.668 171.833C129.873 171.568 128.548 170.245 128.548 169.186L128.018 168.656C129.078 166.803 130.138 165.214 131.199 163.361C132.789 164.155 134.379 163.89 135.439 165.744C136.764 167.597 134.909 169.186 133.584 170.245ZM169.365 86.8423C168.04 88.6957 166.185 90.5491 164.064 91.3434C161.414 92.4024 157.703 93.4615 157.438 89.2252C157.438 86.8423 157.703 84.9889 158.763 82.8707C160.354 79.6935 161.679 78.8992 164.86 77.3106C165.92 77.3106 167.245 77.8401 168.04 78.1049C169.63 78.6344 171.221 80.2231 171.486 82.0764C171.751 83.9298 170.426 85.5184 169.365 86.8423ZM202.496 69.1027C201.171 73.3391 199.316 77.3106 197.46 81.0174C195.34 85.7832 195.075 90.8138 193.75 95.8444C193.22 98.7569 191.629 101.934 188.979 102.993C187.654 103.523 186.593 103.258 185.268 103.258C183.943 103.258 181.823 103.788 181.823 104.847C181.027 102.728 179.967 100.081 179.437 97.9626C178.907 95.5797 178.642 92.932 178.377 90.2843C177.847 87.6366 177.847 84.9889 177.582 82.3412C177.317 79.9583 176.787 77.3106 176.787 74.9277C176.787 66.7198 181.558 56.3938 189.244 52.687C191.629 51.628 194.015 51.0984 196.665 51.3632C199.581 51.8927 201.436 52.687 202.761 55.5995C204.352 59.5711 203.557 64.8664 202.496 69.1027Z" fill="url(#paint5_linear_803_31535)" fill-opacity="0.5"/>
<path opacity="0.4" fill-rule="evenodd" clip-rule="evenodd" d="M165.918 76.7812C165.653 77.046 165.123 77.046 164.858 77.3108C164.063 77.3108 163.533 77.046 163.003 77.3108L165.918 76.7812Z" fill="url(#paint6_linear_803_31535)" fill-opacity="0.5"/>
<path opacity="0.4" fill-rule="evenodd" clip-rule="evenodd" d="M8.21755 132.918C7.9525 132.918 7.6875 132.918 7.6875 132.918C8.2176 132.652 8.21755 132.652 8.21755 132.918Z" fill="url(#paint7_linear_803_31535)" fill-opacity="0.5"/>
<defs>
<radialGradient id="paint0_radial_803_31535" cx="0" cy="0" r="1" gradientUnits="userSpaceOnUse" gradientTransform="translate(47.5691 66.7425) scale(201.705 201.493)">
<stop offset="0.00558659" stop-color="#60DBFF"/>
<stop offset="0.0937306" stop-color="#60D5FF"/>
<stop offset="0.211" stop-color="#5FC4FF"/>
<stop offset="0.3446" stop-color="#5DA9FF"/>
<stop offset="0.4903" stop-color="#5A82FF"/>
<stop offset="0.6442" stop-color="#5751FF"/>
<stop offset="0.6844" stop-color="#5643FF"/>
<stop offset="0.7432" stop-color="#563DF8"/>
<stop offset="0.8282" stop-color="#552EE5"/>
<stop offset="0.9287" stop-color="#5315C6"/>
<stop offset="1" stop-color="#5200AB"/>
</radialGradient>
<linearGradient id="paint1_linear_803_31535" x1="-0.233772" y1="90.9957" x2="180.396" y2="90.9957" gradientUnits="userSpaceOnUse">
<stop offset="0.0111732" stop-color="#81E0FF"/>
<stop offset="0.3224" stop-color="#82DDFF"/>
<stop offset="0.5506" stop-color="#86D4FF"/>
<stop offset="0.7523" stop-color="#8BC4FF"/>
<stop offset="0.9375" stop-color="#94ADFF"/>
<stop offset="1" stop-color="#97A4FF"/>
</linearGradient>
<linearGradient id="paint2_linear_803_31535" x1="0.911433" y1="55.4906" x2="158.829" y2="55.4906" gradientUnits="userSpaceOnUse">
<stop stop-color="#B8C2FF"/>
<stop offset="1" stop-color="#7D72B3"/>
</linearGradient>
<linearGradient id="paint3_linear_803_31535" x1="26.5401" y1="172.915" x2="250.903" y2="172.915" gradientUnits="userSpaceOnUse">
<stop stop-color="#B8C2FF"/>
<stop offset="1" stop-color="#7D72B3"/>
</linearGradient>
<linearGradient id="paint4_linear_803_31535" x1="13.29" y1="126.552" x2="237.202" y2="126.552" gradientUnits="userSpaceOnUse">
<stop stop-color="#B8C2FF"/>
<stop offset="1" stop-color="#7D72B3"/>
</linearGradient>
<linearGradient id="paint5_linear_803_31535" x1="-0.228206" y1="95.2932" x2="219.867" y2="95.2932" gradientUnits="userSpaceOnUse">
<stop stop-color="#B8C2FF"/>
<stop offset="1" stop-color="#7D72B3"/>
</linearGradient>
<linearGradient id="paint6_linear_803_31535" x1="162.828" y1="77.1702" x2="165.849" y2="77.1702" gradientUnits="userSpaceOnUse">
<stop stop-color="#E8DDFF"/>
<stop offset="1" stop-color="#AA8AD8"/>
</linearGradient>
<linearGradient id="paint7_linear_803_31535" x1="7.64483" y1="132.946" x2="8.27214" y2="132.946" gradientUnits="userSpaceOnUse">
<stop stop-color="#E8DDFF"/>
<stop offset="1" stop-color="#AA8AD8"/>
</linearGradient>
</defs>
</svg>
