<svg width="64" height="64" viewBox="0 0 64 64" fill="none" xmlns="http://www.w3.org/2000/svg">
<path d="M58.7516 36.4117C57.8654 35.8754 56.7127 36.1597 56.1767 37.0455C55.6408 37.9315 55.9246 39.0844 56.8106 39.6203C59.0287 40.9619 60.2501 42.4224 60.2501 43.7328C60.2501 45.1192 58.9014 46.6545 56.4527 48.0558C53.6178 49.678 49.5711 50.9863 44.7501 51.8394C43.7304 52.0198 43.0499 52.9928 43.2304 54.0124C43.3913 54.9217 44.1822 55.561 45.0746 55.561C45.1829 55.561 45.2929 55.5515 45.4034 55.532C57.0481 53.4717 64.0001 49.0608 64.0001 43.7328C64.0001 40.3058 61.1459 37.86 58.7516 36.4117Z" fill="#C6D0CD"/>
<path d="M33.125 53.2776L28.125 49.5276C27.2966 48.9063 26.1214 49.0742 25.5 49.9026C24.8786 50.7309 25.0466 51.9062 25.875 52.5276L26.0872 52.6868C20.5221 52.2738 15.4228 51.2777 11.3439 49.7822C6.58887 48.0388 3.75 45.7772 3.75 43.7327C3.75 42.4224 4.9715 40.9618 7.18975 39.6202C8.07575 39.0842 8.3595 37.9314 7.82363 37.0454C7.2875 36.1596 6.135 35.8756 5.24875 36.4116C2.85438 37.8598 0 40.3057 0 43.7327C0 46.2974 1.63912 48.2567 3.01425 49.4487C4.704 50.9133 7.07213 52.2101 10.053 53.3029C14.6419 54.9854 20.3853 56.0791 26.6045 56.4804L25.875 57.0276C25.0466 57.6489 24.8786 58.8242 25.5 59.6526C25.8684 60.1438 26.4314 60.4027 27.0015 60.4027C27.393 60.4027 27.7878 60.2804 28.125 60.0276L33.125 56.2776C33.5971 55.9234 33.875 55.3677 33.875 54.7776C33.875 54.1874 33.5971 53.6317 33.125 53.2776Z" fill="#C6D0CD"/>
<path d="M15.0748 36.8165L31.3562 45.9459C31.6757 46.1251 32.0303 46.2148 32.385 46.2148C32.7397 46.2148 33.0943 46.1251 33.4138 45.9459L49.6952 36.8165C50.359 36.4443 50.77 35.7427 50.77 34.9817V13.8307C50.77 13.0698 50.359 12.368 49.6952 11.996L33.4138 2.86649C32.7747 2.50804 31.9953 2.50804 31.3562 2.86649L15.0748 11.996C14.411 12.3681 14 13.0698 14 13.8307V34.9817C14 35.7427 14.411 36.4443 15.0748 36.8165ZM18.2071 17.4219L30.2814 24.1923V40.52L18.2071 33.7496V17.4219ZM34.4886 40.5199V24.1923L46.5629 17.4219V33.7496L34.4886 40.5199ZM32.385 7.11302L44.3654 13.8307L32.385 20.5483L20.4046 13.8307L32.385 7.11302Z" fill="#C6D0CD"/>
</svg>
