<svg width="64" height="64" viewBox="0 0 64 64" fill="none" xmlns="http://www.w3.org/2000/svg">
<g clip-path="url(#clip0_621_2520)">
<path d="M58.7565 41.3001V23.1364C60.5741 22.155 61.812 20.2325 61.812 18.026C61.812 14.8259 59.2085 12.2224 56.0083 12.2224C54.5738 12.2224 53.2602 12.7466 52.2462 13.6121L38.1865 6.58225C38.2209 6.32737 38.2402 6.06775 38.2402 5.80363C38.2402 2.6035 35.6367 0 32.4365 0C29.2362 0 26.6329 2.6035 26.6329 5.80363C26.6329 6.06775 26.6522 6.32737 26.6866 6.58225L12.0624 13.8944C11.014 12.8614 9.57623 12.2224 7.99173 12.2224C4.79161 12.2224 2.18811 14.8259 2.18811 18.026C2.18811 20.57 3.83423 22.7355 6.11673 23.5171V40.9194C3.83423 41.701 2.18811 43.8664 2.18811 46.4105C2.18811 49.6106 4.79161 52.2141 7.99173 52.2141C9.72273 52.2141 11.2781 51.4514 12.3424 50.2455L26.6867 57.4176C26.6524 57.6725 26.633 57.9321 26.633 58.1963C26.633 61.3964 29.2365 63.9999 32.4366 63.9999C35.6367 63.9999 38.2402 61.3964 38.2402 58.1963C38.2402 57.9321 38.2209 57.6725 38.1865 57.4176L51.9377 50.542C52.9861 51.575 54.4238 52.214 56.0085 52.214C59.2086 52.214 61.8121 49.6105 61.8121 46.4104C61.812 44.204 60.574 42.2815 58.7565 41.3001ZM56.0083 48.4641C54.8758 48.4641 53.9546 47.5429 53.9546 46.4105C53.9546 45.2781 54.8758 44.3569 56.0083 44.3569C57.1407 44.3569 58.062 45.2781 58.062 46.4105C58.062 47.5429 57.1407 48.4641 56.0083 48.4641ZM32.4365 60.25C31.3041 60.25 30.3829 59.3288 30.3829 58.1964C30.3829 57.064 31.3041 56.1427 32.4365 56.1427C33.5689 56.1427 34.4901 57.064 34.4901 58.1964C34.4901 59.3288 33.569 60.25 32.4365 60.25ZM7.99161 48.4641C6.85923 48.4641 5.93798 47.5429 5.93798 46.4105C5.93798 45.2781 6.85923 44.3569 7.99161 44.3569C9.12398 44.3569 10.0452 45.2781 10.0452 46.4105C10.0452 47.5429 9.12398 48.4641 7.99161 48.4641ZM7.99161 15.9724C9.12398 15.9724 10.0452 16.8936 10.0452 18.026C10.0452 19.1584 9.12398 20.0796 7.99161 20.0796C6.85923 20.0796 5.93798 19.1584 5.93798 18.026C5.93798 16.8936 6.85923 15.9724 7.99161 15.9724ZM30.3829 5.80363C30.3829 4.67125 31.3041 3.75 32.4365 3.75C33.5689 3.75 34.4901 4.67125 34.4901 5.80363C34.4901 6.936 33.5689 7.85725 32.4365 7.85725C31.3041 7.85725 30.3829 6.936 30.3829 5.80363ZM28.3659 9.93525C29.4142 10.9683 30.852 11.6073 32.4365 11.6073C34.021 11.6073 35.4587 10.9683 36.5071 9.93525L50.3257 16.8445C50.2465 17.2261 50.2046 17.6212 50.2046 18.026C50.2046 18.4307 50.2466 18.8259 50.3257 19.2075L36.5071 26.1169C35.4587 25.0839 34.0211 24.4449 32.4365 24.4449C30.8519 24.4449 29.4142 25.0839 28.3659 26.1169L13.7415 18.8048C13.7759 18.5499 13.7952 18.2903 13.7952 18.0261C13.7952 17.762 13.7759 17.5024 13.7415 17.2475L28.3659 9.93525ZM34.4902 30.2485C34.4902 31.3809 33.569 32.3021 32.4366 32.3021C31.3042 32.3021 30.383 31.3809 30.383 30.2485C30.383 29.1161 31.3042 28.1949 32.4366 28.1949C33.569 28.1949 34.4902 29.1161 34.4902 30.2485ZM56.0083 15.9724C57.1407 15.9724 58.062 16.8936 58.062 18.026C58.062 19.1584 57.1407 20.0796 56.0083 20.0796C54.8758 20.0796 53.9546 19.1584 53.9546 18.026C53.9546 16.8936 54.876 15.9724 56.0083 15.9724ZM9.86661 40.9194V23.5171C10.6996 23.2319 11.448 22.763 12.0622 22.1577L26.6866 29.4699C26.6522 29.7248 26.6329 29.9844 26.6329 30.2485C26.6329 32.7925 28.279 34.958 30.5615 35.7396V52.7054C29.7285 52.9906 28.9801 53.4595 28.3659 54.0648L13.7829 46.7733C13.7904 46.6531 13.7954 46.5325 13.7954 46.4105C13.7954 43.8664 12.1491 41.701 9.86661 40.9194ZM36.5072 54.0648C35.8929 53.4594 35.1446 52.9905 34.3115 52.7052V35.7396C36.594 34.958 38.2402 32.7926 38.2402 30.2485C38.2402 29.9844 38.2209 29.7248 38.1865 29.4699L52.2462 22.44C53.0186 23.0993 53.965 23.5594 55.0063 23.7414V40.6951C52.2822 41.1714 50.2046 43.5521 50.2046 46.4104C50.2046 46.6745 50.224 46.9341 50.2583 47.189L36.5072 54.0648Z" fill="#C6D0CD"/>
</g>
<defs>
<clipPath id="clip0_621_2520">
<rect width="64" height="64" fill="white"/>
</clipPath>
</defs>
</svg>
