<svg width="64" height="64" viewBox="0 0 64 64" fill="none" xmlns="http://www.w3.org/2000/svg">
<path d="M62.316 23.5787C63.2461 23.5787 63.9998 22.825 63.9998 21.8949C63.9998 20.9648 63.2461 20.2105 62.316 20.2105H58.9472V13.4735H62.316C63.2461 13.4735 63.9998 12.7198 63.9998 11.7897C63.9998 10.8596 63.2461 10.1053 62.316 10.1053H58.9472V6.73705C58.9478 6.28989 58.7702 5.86184 58.4544 5.54544C58.1386 5.22965 57.7099 5.05263 57.2634 5.05263H53.8945V1.68442C53.8945 0.754317 53.1408 0 52.2107 0C51.2806 0 50.5263 0.754317 50.5263 1.68442V5.05263H43.7893V1.68442C43.7893 0.754317 43.0356 0 42.1055 0C41.1754 0 40.4211 0.754317 40.4211 1.68442V5.05263H33.684V1.68442C33.684 0.754317 32.9303 0 32.0002 0C31.0701 0 30.3158 0.754317 30.3158 1.68442V5.05263H23.5787V1.68442C23.5787 0.754317 22.825 0 21.8949 0C20.9648 0 20.2105 0.754317 20.2105 1.68442V5.05263H13.4735V1.68442C13.4735 0.754317 12.7198 0 11.7897 0C10.8596 0 10.1053 0.754317 10.1053 1.68442V5.05263H6.73705C6.28989 5.05263 5.86184 5.22965 5.54544 5.54544C5.22965 5.86184 5.05263 6.28989 5.05263 6.73705V10.1053H1.68442C0.754317 10.1053 0 10.8596 0 11.7897C0 12.7198 0.754317 13.4735 1.68442 13.4735H5.05263V20.2105H1.68442C0.754317 20.2105 0 20.9648 0 21.8949C0 22.825 0.754317 23.5787 1.68442 23.5787H5.05263V30.3158H1.68442C0.754317 30.3158 0 31.0701 0 32.0002C0 32.9303 0.754317 33.684 1.68442 33.684H5.05263V40.4211H1.68442C0.754317 40.4211 0 41.1754 0 42.1055C0 43.0356 0.754317 43.7893 1.68442 43.7893H5.05263V50.5263H1.68442C0.754317 50.5263 0 51.2806 0 52.2107C0 53.1408 0.754317 53.8945 1.68442 53.8945H5.05263V57.2634C5.05263 57.7099 5.22965 58.1386 5.54544 58.4544C5.86184 58.7702 6.28989 58.9478 6.73705 58.9472H10.1053V62.316C10.1053 63.2461 10.8596 63.9998 11.7897 63.9998C12.7198 63.9998 13.4735 63.2461 13.4735 62.316V58.9472H20.2105V62.316C20.2105 63.2461 20.9648 63.9998 21.8949 63.9998C22.825 63.9998 23.5787 63.2461 23.5787 62.316V58.9472H30.3158V62.316C30.3158 63.2461 31.0701 63.9998 32.0002 63.9998C32.9303 63.9998 33.684 63.2461 33.684 62.316V58.9472H40.4211V62.316C40.4211 63.2461 41.1754 63.9998 42.1055 63.9998C43.0356 63.9998 43.7893 63.2461 43.7893 62.316V58.9472H50.5263V62.316C50.5263 63.2461 51.2806 63.9998 52.2107 63.9998C53.1408 63.9998 53.8945 63.2461 53.8945 62.316V58.9472H57.2634C57.7099 58.9478 58.1386 58.7702 58.4544 58.4544C58.7702 58.1386 58.9478 57.7099 58.9472 57.2634V53.8945H62.316C63.2461 53.8945 63.9998 53.1408 63.9998 52.2107C63.9998 51.2806 63.2461 50.5263 62.316 50.5263H58.9472V43.7893H62.316C63.2461 43.7893 63.9998 43.0356 63.9998 42.1055C63.9998 41.1754 63.2461 40.4211 62.316 40.4211H58.9472V33.684H62.316C63.2461 33.684 63.9998 32.9303 63.9998 32.0002C63.9998 31.0701 63.2461 30.3158 62.316 30.3158H58.9472V23.5787H62.316ZM55.5789 55.5789H8.42085V8.42085H55.5789V55.5789Z" fill="#C6D0CD"/>
<path d="M50.5263 11.7891H13.4735C13.0269 11.7884 12.5983 11.9661 12.2825 12.2819C11.9667 12.5977 11.7891 13.0263 11.7897 13.4729V50.5257C11.7891 50.9723 11.9667 51.4009 12.2825 51.7167C12.5983 52.0331 13.0269 52.2101 13.4735 52.2101H50.5263C50.9729 52.2101 51.4015 52.0331 51.7173 51.7167C52.0337 51.4009 52.2108 50.9723 52.2108 50.5257V13.4729C52.2108 13.0263 52.0337 12.5977 51.7173 12.2819C51.4015 11.9661 50.9729 11.7884 50.5263 11.7891ZM48.8419 48.8413H15.1579V15.1573H48.8419V48.8413Z" fill="#C6D0CD"/>
<path d="M23.5787 42.1051C24.0259 42.1051 24.4539 41.928 24.7703 41.6116C25.0861 41.2958 25.2631 40.8672 25.2631 40.4206V35.368H28.6313V40.4206C28.6313 41.3507 29.3857 42.1051 30.3158 42.1051C31.2459 42.1051 32.0002 41.3507 32.0002 40.4206V26.9472C32.0002 24.1563 29.7378 21.8945 26.9475 21.8945C24.1566 21.8945 21.8949 24.1563 21.8949 26.9472V40.4206C21.8943 40.8672 22.0719 41.2958 22.3877 41.6116C22.7035 41.928 23.1322 42.1051 23.5787 42.1051ZM26.9475 25.2627C27.877 25.264 28.6301 26.0171 28.6313 26.9472V31.9998H25.2631V26.9472C25.2644 26.0171 26.0174 25.264 26.9475 25.2627Z" fill="#C6D0CD"/>
<path d="M35.3684 40.4206C35.3684 40.8672 35.5454 41.2958 35.8612 41.6116C36.1776 41.928 36.6057 42.1051 37.0528 42.1051H40.421C41.3511 42.1051 42.1055 41.3507 42.1055 40.4206C42.1055 39.4905 41.3511 38.7362 40.421 38.7362V25.2627C41.3511 25.2627 42.1055 24.5084 42.1055 23.5783C42.1055 22.6482 41.3511 21.8945 40.421 21.8945H37.0528C36.1227 21.8945 35.3684 22.6482 35.3684 23.5783C35.3684 24.5084 36.1227 25.2627 37.0528 25.2627V38.7362C36.6057 38.7362 36.1776 38.9132 35.8612 39.2296C35.5454 39.5454 35.3684 39.9741 35.3684 40.4206Z" fill="#C6D0CD"/>
</svg>
