<svg width="1434" height="607" viewBox="0 0 1434 607" fill="none" xmlns="http://www.w3.org/2000/svg">
<path fill-rule="evenodd" clip-rule="evenodd" d="M991.02 679.502C991.025 679.502 991.028 679.502 991.033 679.502C1016.58 679.502 1042.2 667.264 1067.18 643.121C1098.49 612.878 1109.86 583.397 1100.98 555.494C1088.5 516.315 1035.29 483.216 958.628 466.958C944.419 463.945 931.128 462.415 919.126 462.415C879.219 462.415 860.307 478.859 851.469 492.653C837.509 514.442 840.807 541.249 849.777 556.937C896.277 638.258 943.8 679.495 991.02 679.502ZM853.635 493.867C862.138 480.597 880.403 464.776 919.126 464.776C930.939 464.776 944.043 466.285 958.073 469.261C1033.83 485.33 1086.35 517.814 1098.55 556.167C1107.16 583.192 1095.99 611.895 1065.37 641.479C1040.87 665.143 1015.87 677.143 991.033 677.14C991.03 677.14 991.023 677.14 991.02 677.14C944.803 677.133 898.032 636.317 852.004 555.825C843.358 540.703 840.181 514.864 853.635 493.867Z" fill="#0D100F"/>
<path fill-rule="evenodd" clip-rule="evenodd" d="M997.543 625.057C997.548 625.057 997.548 625.057 997.55 625.057C1010.48 625.057 1023.31 618.985 1035.7 607.016C1051.3 591.944 1056.92 577.075 1052.38 562.825C1046.17 543.327 1020.24 526.973 982.999 519.078C976.075 517.609 969.58 516.865 963.691 516.865C943.403 516.865 933.681 525.395 929.093 532.553C921.842 543.87 923.431 557.388 928.221 565.765C950.714 605.103 974.04 625.052 997.543 625.057ZM935.592 536.195C940.726 528.184 950.444 523.95 963.691 523.95C969.017 523.95 974.949 524.635 981.325 525.985C1015.34 533.2 1039.79 548.09 1045.12 564.846C1048.82 576.461 1043.82 588.992 1030.26 602.09C1019.35 612.627 1008.35 617.972 997.55 617.972H997.547C977.052 617.969 955.974 599.279 934.901 562.426C931.241 556.023 929.895 545.084 935.592 536.195Z" fill="#0D100F"/>
<path fill-rule="evenodd" clip-rule="evenodd" d="M1781.14 600.049C1804.11 575.179 1812.95 540.914 1806.68 500.959C1789.24 389.731 1732.61 349.478 1691.26 320.09C1665.81 301.998 1645.7 287.707 1644.65 263.276C1641.79 197.124 1618.41 180.557 1533.57 154.111C1463.6 132.297 1456.35 118.203 1438.82 84.1547C1435.32 77.3579 1431.36 69.6494 1426.41 60.9963C1416.19 43.121 1404.68 33.2802 1394 33.2802C1389.34 33.2802 1385.07 35.1269 1381.28 38.7686C1369.64 49.9604 1363.84 76.8312 1364.96 114.429C1366.52 167.006 1397.13 200.043 1432.57 238.297C1455.23 262.752 1480.91 290.468 1501.23 326.734C1529.53 377.24 1525.74 406.248 1520.95 442.976C1517.1 472.407 1512.74 505.765 1524.23 557.899C1536.49 613.527 1605.73 642.632 1667.79 642.632C1714.82 642.632 1756.13 627.111 1781.14 600.049ZM1526.7 557.424C1515.3 505.666 1519.63 472.513 1523.45 443.262C1528.11 407.599 1532.13 376.796 1503.47 325.635C1483.01 289.127 1457.23 261.302 1434.48 236.752C1399.36 198.839 1369.02 166.097 1367.48 114.362C1366.38 77.4074 1371.93 51.146 1383.09 40.4147C1386.38 37.2454 1390.05 35.6418 1394 35.6418C1403.56 35.6418 1414.57 45.2867 1424.18 62.1087C1429.1 70.7192 1433.06 78.4017 1436.55 85.1796C1453.88 118.854 1461.79 134.224 1532.77 156.353C1616.31 182.392 1639.33 198.647 1642.12 263.373C1643.23 288.914 1663.75 303.5 1689.73 321.97C1730.74 351.115 1786.89 391.029 1804.19 501.299C1810.43 541.119 1802.03 573.821 1779.23 598.502C1754.7 625.05 1714.09 640.27 1667.79 640.27C1606.75 640.27 1538.69 611.813 1526.7 557.424Z" fill="#0D100F"/>
<path fill-rule="evenodd" clip-rule="evenodd" d="M790.689 200.579C793.514 275.743 796.716 360.932 907.591 403.52C941.164 416.417 971.783 425.386 998.796 433.298C1088.83 459.677 1148.32 477.106 1200.89 600.923C1274.72 774.832 1364.01 862.775 1473.84 869.777C1479.3 870.124 1484.61 870.297 1489.78 870.297C1538.27 870.297 1573.98 855.17 1588.98 827.811C1607 794.915 1592.93 749.685 1549.33 700.45C1486.58 629.581 1480.82 579 1473.52 514.959C1470.48 488.277 1467.33 460.683 1459.82 428.397C1444.84 364.005 1408.51 319.977 1373.37 277.398C1347.54 246.104 1323.15 216.543 1308.11 180.37C1279.72 112.104 1287.13 29.5743 1291.14 -0.208435H1283.51C1279.4 30.9677 1272.35 113.937 1301.05 182.94C1316.48 220.062 1341.2 250.015 1367.37 281.727C1402 323.682 1437.8 367.068 1452.42 429.906C1459.84 461.817 1462.96 489.214 1465.98 515.712C1473.12 578.355 1479.29 632.453 1543.5 704.972C1585.04 751.886 1598.79 794.365 1582.23 824.58C1567.09 852.216 1527.77 866.103 1474.35 862.709C1367.73 855.912 1280.58 769.424 1207.93 598.306C1154.03 471.356 1093.17 453.525 1001.06 426.539C974.192 418.667 943.743 409.747 910.467 396.966C804.115 356.117 801.004 273.353 798.259 200.331C797.348 176.086 796.487 153.19 792.019 132.896C779.014 73.8245 745.693 23.3868 728.069 -0.208435H718.789C734.86 20.6496 771.037 72.7193 784.6 134.328C788.939 154.033 789.787 176.643 790.689 200.579Z" fill="#0D100F"/>
<path fill-rule="evenodd" clip-rule="evenodd" d="M875.95 174.223C883.354 241.896 891.01 311.872 980.312 360.43C1021.86 383.016 1058.6 395.526 1091.02 406.567C1145.86 425.235 1189.18 439.984 1229.06 492.209C1240.08 506.634 1250.26 520.655 1260.09 534.211C1300.94 590.511 1332.1 633.467 1371.38 633.467C1378.11 633.467 1385.08 632.208 1392.37 629.539C1401.21 626.301 1407.38 618.751 1410.71 607.094C1428.51 544.697 1361.83 379.042 1315.84 325.446C1312.95 322.081 1309.92 318.588 1306.78 314.97C1253.73 253.796 1165.85 152.43 1190.69 -0.20813H1188.14C1163.31 153.252 1251.54 255.022 1304.82 316.458C1307.96 320.074 1310.98 323.562 1313.87 326.922C1359.58 380.194 1425.91 544.652 1408.27 606.485C1405.16 617.377 1399.5 624.391 1391.45 627.338C1343.45 644.906 1309.36 597.914 1262.18 532.884C1252.34 519.316 1242.15 505.286 1231.12 490.835C1190.78 438.014 1147.14 423.157 1091.89 404.347C1059.56 393.341 1022.93 380.87 981.582 358.387C893.392 310.436 885.801 241.067 878.46 173.982C876.652 157.456 874.783 140.362 871.748 123.804C860.823 64.2083 836.75 20.2319 823.75 -0.20813H820.811C833.477 19.455 858.164 63.6887 869.258 124.204C872.278 140.683 874.144 157.734 875.95 174.223Z" fill="#0D100F"/>
<path fill-rule="evenodd" clip-rule="evenodd" d="M1135.59 337.581L1139.74 339.059C1161.94 346.954 1180.73 350.917 1194.98 350.917C1207.69 350.917 1216.79 347.769 1221.49 341.449C1231 328.67 1221.38 305.196 1195.08 277.047C1144.2 222.585 1097.96 113.789 1112.7 -0.207977H1110.16C1095.45 114.407 1141.99 223.799 1193.18 278.601C1218.28 305.465 1228.09 328.455 1219.42 340.098C1210.16 352.547 1181.45 351.363 1140.64 336.851L1136.48 335.375C1049.7 304.537 986.998 282.254 971.925 169.495C960.463 83.7274 934.495 24.339 922.096 -0.207977H919.301C931.374 23.4652 957.824 83.0307 969.42 169.79C984.68 283.96 1051.27 307.623 1135.59 337.581Z" fill="#0D100F"/>
<path fill-rule="evenodd" clip-rule="evenodd" d="M1290.52 513.089C1309.73 544.693 1327.87 574.546 1350.37 574.549C1351.56 574.549 1352.77 574.461 1353.96 574.291C1358.44 573.644 1364.12 570.685 1365.74 560.24C1371.86 520.621 1316.88 402.17 1277.94 385.027C1271.04 381.989 1264.56 380.45 1258.68 380.45C1248.13 380.45 1239.91 385.362 1235.53 394.282C1228.02 409.543 1232.08 437.611 1258.04 465.906C1269.32 478.203 1280.1 495.937 1290.52 513.089ZM1242.41 397.241C1245.53 390.891 1251.16 387.535 1258.68 387.535C1263.43 387.535 1268.83 388.848 1274.71 391.438C1309.95 406.947 1363.75 523.577 1358.24 559.227C1357.09 566.673 1353.86 567.136 1352.8 567.289C1352 567.405 1351.18 567.464 1350.37 567.464H1350.37C1332.28 567.462 1314.4 538.04 1297.11 509.587C1286.51 492.144 1275.54 474.108 1263.79 461.294C1240.14 435.516 1236.13 410.02 1242.41 397.241Z" fill="#0D100F"/>
<path fill-rule="evenodd" clip-rule="evenodd" d="M518.01 1204.07C510.588 1142.8 503.578 1084.93 522.869 1067.21C527.95 1062.54 534.796 1060.81 543.811 1061.92C592.089 1067.86 636.306 1118.15 679.069 1166.78C721.057 1214.53 764.476 1263.91 813.237 1273.26C895.144 1288.97 925.48 1248.48 998.753 1150.64C1017.89 1125.09 1039.57 1096.13 1066.04 1062.93C1163.99 940.039 1249.24 960.989 1347.96 985.253C1377.31 992.465 1407.66 999.923 1440.17 1004.27C1527.93 1015.99 1599.88 1000.58 1637.57 962C1666.08 932.803 1674.51 891.103 1661.94 841.407C1635 734.937 1663.27 728.077 1725.22 713.045C1733.91 710.938 1742.9 708.756 1752.56 706.111C1797.28 693.861 1834.7 663.727 1857.93 621.25C1885.53 570.789 1892.65 503.498 1878.52 426.657C1848.15 261.557 1731.97 188.336 1594.62 116.112C1502.71 67.7885 1480.6 20.9711 1475.32 -0.20813H1467.37C1472.13 22.048 1493.91 71.2837 1590.91 122.288C1726.55 193.608 1841.25 265.829 1871.05 427.857C1884.91 503.177 1878.04 568.937 1851.19 618.024C1828.91 658.748 1793.13 687.617 1750.43 699.312C1740.89 701.926 1731.96 704.092 1723.32 706.189C1660.51 721.426 1625.92 729.819 1654.57 843.039C1666.53 890.35 1658.72 929.832 1631.97 957.222C1596 994.05 1526.49 1008.64 1441.25 997.252C1409.17 992.968 1379.03 985.562 1349.89 978.399C1248.52 953.484 1160.97 931.974 1059.96 1058.7C1033.43 1091.98 1011.71 1120.98 992.546 1146.57C919.235 1244.47 891.811 1281.1 814.76 1266.32C768.625 1257.47 726.072 1209.08 684.92 1162.28C641.223 1112.59 596.041 1061.2 544.801 1054.9C533.488 1053.5 524.318 1055.95 517.561 1062.16C495.636 1082.29 502.515 1139.1 510.482 1204.86C519.624 1280.31 529.851 1364.99 497.091 1405.63H506.316C537.038 1361.39 527.01 1278.34 518.01 1204.07Z" fill="#0D100F"/>
<path fill-rule="evenodd" clip-rule="evenodd" d="M91.8087 510.595C120.779 550.764 156.832 600.755 215.537 600.755C252.671 600.755 280.204 591.12 306.833 581.798C343.575 568.939 375.305 557.835 424.884 574.296C456.053 584.647 485.811 604.293 517.319 625.09C564.132 655.994 612.297 687.794 666.547 687.792C675.971 687.792 685.588 686.83 695.403 684.74C742.351 674.736 774.401 652.879 788.091 621.536C805.199 582.363 793.055 530.825 752.969 472.497C700.131 395.602 706.355 328.791 712.949 258.057C715.598 229.618 718.338 200.213 717.611 168.706C715.712 86.3629 675.802 26.0085 654.779 -0.20813H645.252C664.234 22.3433 708.068 83.4604 710.037 168.86C710.757 199.982 708.032 229.193 705.401 257.441C698.694 329.416 692.358 397.396 746.596 476.325C785.288 532.629 797.212 581.917 781.078 618.86C768.363 647.969 738.156 668.365 693.719 677.83C630.688 691.256 575.276 654.679 521.688 619.301C491.15 599.142 459.571 578.296 427.419 567.622C375.24 550.294 340.722 562.376 304.179 575.165C278.181 584.262 251.3 593.67 215.537 593.67C160.86 593.67 126.056 545.41 98.089 506.632C82.0561 484.402 68.21 465.202 53.0104 457.205C31.028 445.642 12.6491 441.011 0 439.235V446.436C11.8258 448.221 28.9143 452.659 49.2958 463.383C62.9297 470.556 76.3136 489.109 91.8087 510.595Z" fill="#0D100F"/>
<path fill-rule="evenodd" clip-rule="evenodd" d="M154.766 1052.25C205.645 1040.98 237.789 1007.71 268.873 975.528C298.366 944.996 326.224 916.161 367.843 908.147C399.101 902.13 441.614 905.809 490.842 910.068C574.832 917.332 679.363 926.382 766.863 886.239C824.715 859.698 858.407 824.63 876.485 799.887C898.922 769.179 909.635 736.827 905.145 713.34C901.491 694.232 888.412 682.646 868.321 680.721C834.079 677.434 807.73 698.823 779.821 721.462C749.32 746.202 717.79 771.803 673.148 767.122C631.019 762.72 584.807 741.599 540.117 721.178C493.208 699.739 444.7 677.571 400.725 674.786C372.05 672.979 339.929 680.818 305.924 689.126C239.15 705.433 170.105 722.3 123.523 664.733C73.0434 602.352 25.2401 585.313 0 580.786V588.206C24.187 593.052 69.7782 610.058 117.481 669.01C167.117 730.346 241.875 712.088 307.838 695.98C341.229 687.822 372.768 680.131 400.212 681.855C442.707 684.547 490.536 706.404 536.791 727.543C582.062 748.231 628.873 769.623 672.307 774.162C720.239 779.204 754.53 751.358 784.785 726.816C811.422 705.207 836.576 684.802 867.548 687.768C888.604 689.787 895.559 703.468 897.685 714.589C905.332 754.572 862.963 834.259 763.528 879.879C677.939 919.148 574.59 910.2 491.539 903.013C441.712 898.699 398.682 894.977 366.315 901.209C322.267 909.687 293.6 939.364 263.252 970.778C232.943 1002.15 201.605 1034.59 153.021 1045.35C84.6571 1060.5 27.283 1054.07 0 1049.14V1056.34C14.9849 1058.97 37.9371 1061.88 66.2378 1061.88C91.9955 1061.88 122.172 1059.47 154.766 1052.25Z" fill="#0D100F"/>
<path fill-rule="evenodd" clip-rule="evenodd" d="M720.946 1103.23C753.297 1147.47 783.853 1189.26 826.838 1189.26C878.778 1189.26 929.942 1133.03 989.185 1067.93C1029.05 1024.12 1070.27 978.819 1115.46 947.045C1145.71 925.785 1180.53 915.449 1221.94 915.449C1267.44 915.449 1310.85 927.965 1345.73 938.024C1367.98 944.438 1385.55 949.503 1397.62 949.503C1403.49 949.503 1407.86 948.301 1410.99 945.824C1414.43 943.103 1416.17 938.959 1416.17 933.501C1416.17 907.353 1383.83 882.822 1342.9 851.767C1311.96 828.299 1276.9 801.702 1247.45 768.384C1210.77 726.895 1196.42 684.557 1185.94 653.643C1176.56 625.993 1170.37 607.728 1153.78 605.709C1153.16 605.634 1152.53 605.596 1151.91 605.596C1139.71 605.596 1128.55 619.336 1113.11 638.352C1086.89 670.638 1050.99 714.855 990.013 714.86C990.011 714.86 990.005 714.86 990.003 714.86C984.604 714.86 979.023 714.506 973.422 713.806C971.952 713.622 970.52 713.53 969.169 713.53C948.788 713.53 944.861 732.659 939.424 759.138C931.187 799.274 918.737 859.929 841.194 906.5C793.929 934.887 728.807 948.11 636.263 948.11C604.841 948.11 574.316 946.636 547.387 945.338C525.035 944.258 505.732 943.325 489.189 943.325C461.378 943.325 446.497 946.098 439.431 952.595C429.744 961.503 430.277 969.24 432.431 974.161C442.361 996.847 510.47 1011.51 605.948 1011.51C653.882 1011.51 687.976 1058.13 720.946 1103.23ZM439.444 971.479C438.752 969.899 436.648 965.09 444.742 957.646C451.795 951.161 473.487 950.41 489.189 950.41C505.538 950.41 524.75 951.339 546.995 952.413C574.018 953.717 604.645 955.195 636.263 955.195C730.325 955.195 796.744 941.616 845.287 912.461C925.566 864.248 938.384 801.799 946.866 760.473C952.806 731.528 956.162 718.82 972.417 720.825C978.354 721.569 984.271 721.945 990.003 721.945C990.005 721.945 990.011 721.945 990.013 721.945C1054.74 721.94 1091.96 676.105 1119.14 642.638C1132.19 626.562 1143.47 612.681 1151.91 612.681C1152.21 612.681 1152.51 612.697 1152.8 612.735C1164.61 614.171 1170.52 631.628 1178.71 655.785C1189.38 687.254 1203.99 730.35 1241.61 772.9C1271.55 806.761 1306.92 833.594 1338.12 857.269C1377.5 887.137 1408.59 910.73 1408.59 933.501C1408.59 936.824 1407.78 939.086 1406.1 940.416C1404.42 941.745 1401.57 942.419 1397.62 942.419C1386.69 942.419 1368.74 937.244 1347.96 931.253C1312.59 921.055 1268.58 908.364 1221.94 908.364C1178.83 908.364 1142.51 919.163 1110.91 941.382C1065.05 973.625 1023.55 1019.23 983.414 1063.34C927.803 1124.45 875.277 1182.18 826.838 1182.18C787.85 1182.18 758.388 1141.88 727.198 1099.23C693.12 1052.62 657.88 1004.42 605.948 1004.42C501.454 1004.42 446.388 987.347 439.444 971.479Z" fill="#0D100F"/>
<path fill-rule="evenodd" clip-rule="evenodd" d="M86.45 413.486C116.43 444.011 147.425 475.574 194.35 490.24C244.254 505.834 280.113 502.61 318.083 499.2C349.507 496.371 382 493.452 423.303 502.28C459.675 510.054 502.165 538.835 543.256 566.665C591.605 599.412 637.863 630.746 675.004 630.744C685.545 630.744 695.353 628.219 704.265 622.487C748.636 593.945 724.404 553.933 696.345 507.605C681.103 482.437 665.34 456.414 658.007 428.865C645.84 383.172 649.603 342.146 653.961 294.641C657.143 259.96 660.431 224.099 658.042 181.592C653.633 103.19 595.448 28.8425 569.923 -0.208069H566.653C591.234 27.4822 651.07 102.568 655.519 181.717C657.901 224.061 654.618 259.838 651.444 294.438C647.067 342.155 643.287 383.363 655.555 429.439C662.974 457.297 678.823 483.464 694.148 508.767C721.596 554.087 745.298 593.227 702.835 620.541C694.393 625.971 685.057 628.368 674.974 628.366C638.661 628.361 592.736 597.263 544.738 564.752C503.44 536.783 460.738 507.86 423.866 499.979C382.167 491.066 349.467 494.004 317.843 496.848C280.151 500.237 244.55 503.442 195.153 487.996C148.844 473.527 118.071 442.192 88.3112 411.89C62.7605 385.874 36.4371 359.112 0 342.103V344.765C35.4573 361.625 61.3362 387.912 86.45 413.486Z" fill="#0D100F"/>
<path fill-rule="evenodd" clip-rule="evenodd" d="M178.511 362.441C227.368 434.491 282.474 435.971 340.818 437.539C362.497 438.123 384.917 438.727 407.445 443.077C443.985 450.139 481.016 471.415 513.688 490.185C546.42 508.993 575.675 525.799 598.779 525.799C605.32 525.799 611.368 524.453 616.863 521.423C637.3 510.151 627.204 488.941 611.921 456.829C593.36 417.827 565.307 358.882 573.814 277.939C588.633 136.968 553.026 64.4701 489.033 -0.208313H485.564C550.082 64.4134 586.148 136.453 571.302 277.71C562.728 359.272 590.943 418.559 609.615 457.791C624.868 489.843 634.075 509.187 615.58 519.387C591.981 532.402 556.314 511.905 515.011 488.176C482.162 469.299 444.93 447.909 407.955 440.765C385.212 436.373 362.679 435.766 340.891 435.18C283.237 433.631 228.782 432.167 180.645 361.178C129.066 285.112 38.3563 251.661 0 240.432V242.904C38.4321 254.24 127.678 287.476 178.511 362.441Z" fill="#0D100F"/>
<path fill-rule="evenodd" clip-rule="evenodd" d="M193.696 247.157C205.034 263.288 213.312 278.286 220.615 291.516C242.176 330.58 256.421 356.388 319.1 365.379C353.015 370.242 383.843 380.286 411.043 389.149C439.47 398.411 463.733 406.316 484.248 406.316C493.165 406.316 501.374 404.823 508.91 401.3C536.829 388.242 531.415 354.924 522.448 299.721C517.895 271.688 512.225 236.797 509.604 195.955C503.65 103.163 433.735 28.6626 402.51 -0.208557H398.914C428.879 27.118 501.059 102.207 507.084 196.099C509.713 237.047 515.39 271.995 519.95 300.075C528.748 354.218 534.056 386.901 507.781 399.186C483.859 410.368 452.091 400.022 411.876 386.92C384.573 378.023 353.626 367.942 319.484 363.043C258.072 354.237 244.065 328.854 222.86 290.435C215.527 277.15 207.218 262.095 195.807 245.861C160.658 195.86 44.9397 175.784 0 169.75V172.133C44.8765 178.169 159.175 198.049 193.696 247.157Z" fill="#0D100F"/>
<path fill-rule="evenodd" clip-rule="evenodd" d="M281.229 278.421C300.623 309.324 349.116 334.65 395.303 334.647C409.164 334.647 422.823 332.366 435.419 327.27C448.058 322.157 457.013 312.42 462.033 298.328C476.715 257.124 454.356 186.398 424.679 137.83C393.467 86.7479 340.452 25.8033 317.083 -0.207916H313.785C336.356 24.842 390.76 87.0786 422.487 139.002C451.884 187.113 474.084 257.034 459.637 297.584C454.854 311.007 446.369 320.265 434.417 325.102C380.982 346.718 308.11 316.588 283.406 277.226C262.752 244.319 197.074 151.599 141.935 118.207C103.435 94.8957 33.0204 79.4764 0 73.1921V75.601C33.0608 81.9113 102.589 97.1958 140.561 120.191C195.289 153.332 260.658 245.647 281.229 278.421Z" fill="#0D100F"/>
<path fill-rule="evenodd" clip-rule="evenodd" d="M302.431 193.506C333.77 231.991 357.424 261.046 379.515 261.044C382.429 261.044 385.321 260.536 388.197 259.478C392.457 257.912 397.682 253.796 398.397 243.088C400.046 218.402 376.52 165.676 339.858 111.885C306.815 63.4024 270.381 24.0077 236.688 -0.208649H223.903C259.035 22.6379 298.128 63.8346 333.469 115.692C368.778 167.499 392.369 219.703 390.836 242.649C390.462 248.258 388.641 251.701 385.424 252.887C366.103 260.002 340.659 228.763 308.457 189.214C281.886 156.581 248.815 115.97 207.736 82.886C135.741 24.9123 39.7376 15.879 0 14.7572V21.8374C38.8134 22.9379 132.63 31.7516 202.792 88.2564C243.272 120.854 276.072 161.137 302.431 193.506Z" fill="#0D100F"/>
<path fill-rule="evenodd" clip-rule="evenodd" d="M1077.92 235.8C1078.57 235.8 1079.19 235.677 1079.77 235.432C1088.65 231.684 1082.53 198.85 1070.95 141.131C1061.68 94.8856 1050.36 38.4469 1050.78 -0.208557H1048.26C1047.84 38.7067 1059.18 95.2374 1068.47 141.568C1077.61 187.103 1086.23 230.113 1078.73 233.28C1077.31 233.871 1073.51 233.177 1063.99 221.763C1019.14 167.969 997.682 39.8261 991.917 -0.208557H989.371C995.096 39.6395 1016.66 168.838 1062 223.215C1069.15 231.793 1074.19 235.8 1077.92 235.8Z" fill="#0D100F"/>
<path fill-rule="evenodd" clip-rule="evenodd" d="M573.802 1256.73C556.837 1165.69 573.072 1149.09 580.84 1146.17C591.643 1142.11 608.128 1154.15 626.065 1179.17C656.878 1222.16 759.081 1351.77 869.872 1351.75C880.743 1351.75 891.715 1350.5 902.693 1347.8C972.832 1330.54 1027.57 1243.09 1075.87 1165.94C1108.47 1113.85 1139.27 1064.64 1169.95 1045.22C1207.9 1021.2 1275.74 1035.11 1354.29 1051.21C1430.92 1066.92 1517.76 1084.74 1593.03 1069.17C1657.03 1055.94 1697.69 1019.06 1713.86 959.563C1727.38 909.829 1721.38 854.111 1717.41 817.241L1716.79 811.424C1713.03 775.971 1746.69 763.038 1789.3 746.668C1832.81 729.954 1882.13 711.007 1909.29 662.617C1967.17 559.519 1972.8 441.012 1924.74 337.484C1896.06 275.703 1892.7 231.097 1914.17 197.108C1941.7 153.498 2011.11 126.306 2126 114.152V111.777C2010.09 124.012 1939.98 151.587 1911.99 195.906C1890.08 230.603 1893.4 275.89 1922.43 338.424C1970.18 441.292 1964.58 559.056 1907.06 661.518C1880.32 709.148 1831.46 727.921 1788.34 744.483C1746.49 760.566 1710.33 774.455 1714.28 811.658L1714.9 817.477C1718.85 854.182 1724.82 909.649 1711.41 958.982C1695.49 1017.54 1655.48 1053.84 1592.49 1066.87C1517.76 1082.31 1431.2 1064.57 1354.83 1048.91C1275.71 1032.68 1207.37 1018.67 1168.54 1043.27C1137.38 1062.99 1106.44 1112.42 1073.69 1164.75C1025.64 1241.51 971.18 1328.5 902.051 1345.52C780.821 1375.34 661.764 1224.73 628.166 1177.86C609.226 1151.44 592.082 1139.42 579.898 1143.98C562.016 1150.69 558.968 1190.88 571.314 1257.14C587.244 1342.63 587.226 1386.72 585.746 1405.63H588.367C589.905 1386.53 589.822 1342.71 573.802 1256.73Z" fill="#0D100F"/>
</svg>
