<svg width="647" height="647" viewBox="0 0 647 647" fill="none" xmlns="http://www.w3.org/2000/svg">
<path fill-rule="evenodd" clip-rule="evenodd" d="M629.234 656.43L624.562 654.093L630.674 641.871L642.899 635.758L645.235 640.428L634.568 645.763L629.234 656.43Z" fill="url(#paint0_linear_500_4259)"/>
<path fill-rule="evenodd" clip-rule="evenodd" d="M596.801 656.43L592.129 654.093L609.053 620.247L642.899 603.325L645.235 607.996L612.945 624.142L596.801 656.43Z" fill="url(#paint1_linear_500_4259)"/>
<path fill-rule="evenodd" clip-rule="evenodd" d="M564.368 656.43L559.696 654.093L587.432 598.626L642.899 570.893L645.235 575.563L591.324 602.521L564.368 656.43Z" fill="url(#paint2_linear_500_4259)"/>
<path fill-rule="evenodd" clip-rule="evenodd" d="M531.936 656.43L527.263 654.093L565.809 577.005L642.899 538.46L645.235 543.13L569.701 580.897L531.936 656.43Z" fill="url(#paint3_linear_500_4259)"/>
<path fill-rule="evenodd" clip-rule="evenodd" d="M466.752 657.598L464.415 652.927L505.749 632.261L544.187 555.382L621.064 516.944L641.731 475.61L646.403 477.946L624.958 520.836L548.08 559.274L509.641 636.153L466.752 657.598Z" fill="url(#paint4_linear_500_4259)"/>
<path fill-rule="evenodd" clip-rule="evenodd" d="M409.412 656.43L404.74 654.093L407.247 649.078L484.126 610.64L522.564 533.761L599.443 495.323L637.881 418.444L642.899 415.936L645.235 420.607L641.773 422.336L603.335 499.215L526.459 537.653L488.02 614.532L411.142 652.97L409.412 656.43Z" fill="url(#paint5_linear_500_4259)"/>
<path fill-rule="evenodd" clip-rule="evenodd" d="M376.979 656.43L372.307 654.093L385.626 627.454L462.505 589.016L500.943 512.138L577.822 473.7L616.26 396.823L642.899 383.501L645.235 388.174L620.152 400.715L581.714 477.594L504.835 516.032L466.397 592.911L389.519 631.349L376.979 656.43Z" fill="url(#paint6_linear_500_4259)"/>
<path fill-rule="evenodd" clip-rule="evenodd" d="M344.544 656.43L339.874 654.093L364.005 605.833L440.882 567.393L479.322 490.517L556.199 452.078L594.637 375.2L642.899 351.069L645.235 355.741L598.531 379.094L560.091 455.971L483.214 494.409L444.776 571.287L367.898 609.726L344.544 656.43Z" fill="url(#paint7_linear_500_4259)"/>
<path fill-rule="evenodd" clip-rule="evenodd" d="M312.112 656.43L307.442 654.093L342.382 584.212L419.261 545.772L457.699 468.896L534.577 430.455L573.016 353.579L642.899 318.636L645.235 323.309L576.91 357.471L538.47 434.35L461.593 472.788L423.153 549.666L346.276 588.105L312.112 656.43Z" fill="url(#paint8_linear_500_4259)"/>
<path fill-rule="evenodd" clip-rule="evenodd" d="M257.739 657.598L255.403 652.927L282.323 639.468L320.761 562.589L397.64 524.151L436.078 447.272L512.954 408.834L551.395 331.958L628.273 293.517L641.731 266.598L646.403 268.934L632.165 297.412L555.287 335.85L516.849 412.726L439.97 451.167L401.532 528.043L324.655 566.483L286.215 643.362L257.739 657.598Z" fill="url(#paint9_linear_500_4259)"/>
<path fill-rule="evenodd" clip-rule="evenodd" d="M192.874 657.598L190.538 652.927L260.7 617.844L299.14 540.968L376.016 502.53L414.457 425.651L491.333 387.213L529.773 310.334L606.65 271.896L641.731 201.734L646.403 204.068L610.542 275.788L533.666 314.229L495.225 391.105L418.349 429.546L379.911 506.422L303.032 544.86L264.594 621.739L192.874 657.598Z" fill="url(#paint10_linear_500_4259)"/>
<path fill-rule="evenodd" clip-rule="evenodd" d="M157.155 656.43L152.485 654.093L162.2 634.661L239.079 596.223L277.519 519.347L354.395 480.907L392.833 404.03L469.712 365.59L508.15 288.714L585.029 250.275L623.467 173.397L642.899 163.68L645.235 168.352L627.359 177.289L588.921 254.168L512.045 292.606L473.604 369.484L396.728 407.922L358.287 484.801L281.411 523.239L242.971 600.115L166.094 638.556L157.155 656.43Z" fill="url(#paint11_linear_500_4259)"/>
<path fill-rule="evenodd" clip-rule="evenodd" d="M124.723 656.43L120.052 654.093L140.579 613.04L217.458 574.602L255.896 497.724L332.774 459.286L371.212 382.409L448.089 343.969L486.529 267.092L563.406 228.652L601.846 151.773L642.899 131.247L645.235 135.919L605.738 155.668L567.3 232.546L490.421 270.985L451.983 347.861L375.105 386.301L336.666 463.178L259.79 501.618L221.35 578.494L144.471 616.935L124.723 656.43Z" fill="url(#paint12_linear_500_4259)"/>
<path fill-rule="evenodd" clip-rule="evenodd" d="M92.2898 656.43L87.6196 654.093L118.958 591.419L195.836 552.979L234.272 476.103L311.151 437.664L349.591 360.786L426.468 322.348L464.908 245.469L541.784 207.031L580.223 130.152L642.899 98.8143L645.235 103.487L584.117 134.045L545.677 210.923L468.8 249.361L430.362 326.24L353.483 364.68L315.045 441.557L238.167 479.995L199.729 556.873L122.85 595.312L92.2898 656.43Z" fill="url(#paint13_linear_500_4259)"/>
<path fill-rule="evenodd" clip-rule="evenodd" d="M48.7268 657.598L46.3928 652.927L58.8964 646.675L97.3346 569.798L174.213 531.358L212.651 454.481L289.53 416.041L327.968 339.163L404.847 300.724L443.285 223.848L520.163 185.41L558.602 108.531L635.478 70.0909L641.731 57.5873L646.403 59.9235L639.372 73.9854L562.494 112.423L524.056 189.302L447.179 227.74L408.739 304.619L331.86 343.057L293.422 419.936L216.546 458.374L178.108 535.25L101.229 573.69L62.7886 650.567L48.7268 657.598Z" fill="url(#paint14_linear_500_4259)"/>
<path fill-rule="evenodd" clip-rule="evenodd" d="M-7.09474 653.076L-9.42871 648.404L37.2754 625.053L75.7135 548.174L152.592 509.736L191.03 432.857L267.909 394.419L306.347 317.541L383.226 279.103L421.664 202.224L498.54 163.786L536.98 86.9073L613.857 48.4691L637.21 1.76501L641.882 4.10126L617.751 52.3613L540.873 90.8018L502.435 167.68L425.556 206.118L387.118 282.997L310.239 321.433L271.801 398.312L194.922 436.752L156.484 513.628L79.6057 552.069L41.1675 628.945L-7.09474 653.076Z" fill="url(#paint15_linear_500_4259)"/>
<path fill-rule="evenodd" clip-rule="evenodd" d="M-7.09474 620.645L-9.42871 615.972L15.652 603.431L54.0925 526.554L130.969 488.116L169.409 411.238L246.285 372.799L284.724 295.921L361.602 257.483L400.04 180.604L476.919 142.166L515.357 65.2873L592.236 26.8492L604.777 1.76611L609.45 4.10242L596.128 30.7413L519.252 69.1818L480.811 146.058L403.935 184.496L365.497 261.375L288.618 299.813L250.18 376.692L173.301 415.13L134.861 492.008L57.9847 530.446L19.5465 607.325L-7.09474 620.645Z" fill="url(#paint16_linear_500_4259)"/>
<path fill-rule="evenodd" clip-rule="evenodd" d="M-7.09474 588.211L-9.42871 583.539L-5.96898 581.809L32.4692 504.93L109.348 466.492L147.786 389.613L224.665 351.175L263.103 274.297L339.981 235.858L378.419 158.982L455.298 120.542L493.736 43.6654L570.615 5.22491L572.342 1.7652L577.015 4.1015L574.507 9.11938L497.628 47.5575L459.19 124.436L382.312 162.874L343.873 239.751L266.995 278.191L228.557 355.07L151.68 393.508L113.24 470.386L36.3636 508.825L-2.07679 585.701L-7.09474 588.211Z" fill="url(#paint17_linear_500_4259)"/>
<path fill-rule="evenodd" clip-rule="evenodd" d="M-5.92662 528.537L-10.5968 526.201L10.8481 483.309L87.7245 444.871L126.165 367.992L203.041 329.554L241.482 252.675L318.36 214.237L356.798 137.359L433.675 98.9204L472.113 22.0441L515.005 0.596924L517.341 5.26935L476.007 25.9363L437.569 102.813L360.691 141.253L322.252 218.129L245.374 256.57L206.936 333.446L130.057 371.884L91.6189 448.763L14.7403 487.201L-5.92662 528.537Z" fill="url(#paint18_linear_500_4259)"/>
<path fill-rule="evenodd" clip-rule="evenodd" d="M-7.09474 465.688L-9.42871 461.015L66.1034 423.25L104.544 346.372L181.42 307.931L219.858 231.055L296.737 192.614L335.175 115.738L412.054 77.2999L449.821 1.7655L454.493 4.10178L415.946 81.192L339.069 119.63L300.629 196.509L223.753 234.947L185.312 311.826L108.436 350.264L69.9978 427.142L-7.09474 465.688Z" fill="url(#paint19_linear_500_4259)"/>
<path fill-rule="evenodd" clip-rule="evenodd" d="M-7.09474 433.256L-9.42871 428.583L44.4823 401.628L82.9205 324.749L159.799 286.311L198.237 209.435L275.114 170.994L313.554 94.1182L390.43 55.6777L417.386 1.7666L422.058 4.10291L394.325 59.5722L317.446 98.0103L279.008 174.887L202.129 213.327L163.691 290.203L86.8149 328.644L48.3745 405.52L-7.09474 433.256Z" fill="url(#paint20_linear_500_4259)"/>
<path fill-rule="evenodd" clip-rule="evenodd" d="M-7.09474 400.822L-9.42871 396.15L22.8613 380.004L61.2995 303.127L138.176 264.689L176.616 187.811L253.493 149.373L291.933 72.494L368.809 34.0557L384.953 1.76575L389.626 4.10202L372.701 37.948L295.825 76.3884L257.387 153.265L180.508 191.705L142.07 268.581L65.1916 307.02L26.7535 383.898L-7.09474 400.822Z" fill="url(#paint21_linear_500_4259)"/>
<path fill-rule="evenodd" clip-rule="evenodd" d="M-7.09474 368.391L-9.42871 363.718L1.23804 358.384L39.6784 281.507L116.555 243.067L154.993 166.191L231.872 127.752L270.31 50.8739L347.188 12.4357L352.523 1.76675L357.193 4.10303L351.08 16.3279L274.204 54.7661L235.764 131.645L158.887 170.083L120.447 246.961L43.5706 285.4L5.13245 362.278L-7.09474 368.391Z" fill="url(#paint22_linear_500_4259)"/>
<path fill-rule="evenodd" clip-rule="evenodd" d="M-5.92662 319.525L-10.5968 317.189L18.0552 259.883L94.9337 221.445L133.372 144.568L210.25 106.128L248.689 29.2518L305.993 0.597565L308.329 5.26999L252.581 33.1439L214.143 110.022L137.266 148.461L98.8259 225.337L21.9496 263.777L-5.92662 319.525Z" fill="url(#paint23_linear_500_4259)"/>
<path fill-rule="evenodd" clip-rule="evenodd" d="M-5.92662 254.66L-10.5968 252.324L-3.56588 238.262L73.3105 199.824L111.751 122.945L188.627 84.5072L227.068 7.62865L241.127 0.597748L243.463 5.27019L230.96 11.5209L192.522 88.3995L115.643 126.84L77.2048 203.716L0.326285 242.157L-5.92662 254.66Z" fill="url(#paint24_linear_500_4259)"/>
<path fill-rule="evenodd" clip-rule="evenodd" d="M-7.09474 213.434L-9.42871 208.761L51.6894 178.201L90.1298 101.325L167.006 62.8865L197.564 1.76611L202.236 4.1024L170.898 66.7786L94.022 105.217L55.5816 182.095L-7.09474 213.434Z" fill="url(#paint25_linear_500_4259)"/>
<path fill-rule="evenodd" clip-rule="evenodd" d="M-7.09474 181L-9.42871 176.328L30.0683 156.579L68.5065 79.7005L145.385 41.2623L165.131 1.76526L169.804 4.10155L149.277 45.1568L72.3987 83.5949L33.9605 160.471L-7.09474 181Z" fill="url(#paint26_linear_500_4259)"/>
<path fill-rule="evenodd" clip-rule="evenodd" d="M-7.09474 148.568L-9.42871 143.896L8.44503 134.959L46.8832 58.0805L123.762 19.6424L132.701 1.76633L137.371 4.1026L127.656 23.5345L50.7777 61.9727L12.3395 138.851L-7.09474 148.568Z" fill="url(#paint27_linear_500_4259)"/>
<path fill-rule="evenodd" clip-rule="evenodd" d="M-5.92662 110.514L-10.5968 108.18L25.2622 36.4594L96.9824 0.598259L99.3186 5.27069L29.1544 40.3517L-5.92662 110.514Z" fill="url(#paint28_linear_500_4259)"/>
<path fill-rule="evenodd" clip-rule="evenodd" d="M-5.92662 45.6484L-10.5968 43.3145L3.64111 14.8365L32.117 0.59848L34.4532 5.27091L7.53331 18.7308L-5.92662 45.6484Z" fill="url(#paint29_linear_500_4259)"/>
<defs>
<linearGradient id="paint0_linear_500_4259" x1="626.521" y1="652.929" x2="636.564" y2="637.404" gradientUnits="userSpaceOnUse">
<stop stop-color="#1B1A1A"/>
<stop offset="1" stop-color="#131313" stop-opacity="0"/>
</linearGradient>
<linearGradient id="paint1_linear_500_4259" x1="597.161" y1="647.436" x2="622.963" y2="607.554" gradientUnits="userSpaceOnUse">
<stop stop-color="#1B1A1A"/>
<stop offset="1" stop-color="#131313" stop-opacity="0"/>
</linearGradient>
<linearGradient id="paint2_linear_500_4259" x1="567.802" y1="641.944" x2="609.362" y2="577.704" gradientUnits="userSpaceOnUse">
<stop stop-color="#1B1A1A"/>
<stop offset="1" stop-color="#131313" stop-opacity="0"/>
</linearGradient>
<linearGradient id="paint3_linear_500_4259" x1="538.442" y1="636.451" x2="595.762" y2="547.854" gradientUnits="userSpaceOnUse">
<stop stop-color="#1B1A1A"/>
<stop offset="1" stop-color="#131313" stop-opacity="0"/>
</linearGradient>
<linearGradient id="paint4_linear_500_4259" x1="481.66" y1="626.777" x2="570.086" y2="490.103" gradientUnits="userSpaceOnUse">
<stop stop-color="#1B1A1A"/>
<stop offset="1" stop-color="#131313" stop-opacity="0"/>
</linearGradient>
<linearGradient id="paint5_linear_500_4259" x1="427.529" y1="615.701" x2="544.381" y2="435.088" gradientUnits="userSpaceOnUse">
<stop stop-color="#1B1A1A"/>
<stop offset="1" stop-color="#131313" stop-opacity="0"/>
</linearGradient>
<linearGradient id="paint6_linear_500_4259" x1="398.169" y1="610.208" x2="530.781" y2="405.237" gradientUnits="userSpaceOnUse">
<stop stop-color="#1B1A1A"/>
<stop offset="1" stop-color="#131313" stop-opacity="0"/>
</linearGradient>
<linearGradient id="paint7_linear_500_4259" x1="368.81" y1="604.715" x2="517.181" y2="375.387" gradientUnits="userSpaceOnUse">
<stop stop-color="#1B1A1A"/>
<stop offset="1" stop-color="#131313" stop-opacity="0"/>
</linearGradient>
<linearGradient id="paint8_linear_500_4259" x1="339.45" y1="599.223" x2="503.58" y2="345.537" gradientUnits="userSpaceOnUse">
<stop stop-color="#1B1A1A"/>
<stop offset="1" stop-color="#131313" stop-opacity="0"/>
</linearGradient>
<linearGradient id="paint9_linear_500_4259" x1="292.453" y1="591.38" x2="482.435" y2="297.736" gradientUnits="userSpaceOnUse">
<stop stop-color="#1B1A1A"/>
<stop offset="1" stop-color="#131313" stop-opacity="0"/>
</linearGradient>
<linearGradient id="paint10_linear_500_4259" x1="233.735" y1="580.395" x2="455.232" y2="238.037" gradientUnits="userSpaceOnUse">
<stop stop-color="#1B1A1A"/>
<stop offset="1" stop-color="#131313" stop-opacity="0"/>
</linearGradient>
<linearGradient id="paint11_linear_500_4259" x1="199.177" y1="572.98" x2="438.598" y2="202.921" gradientUnits="userSpaceOnUse">
<stop stop-color="#1B1A1A"/>
<stop offset="1" stop-color="#131313" stop-opacity="0"/>
</linearGradient>
<linearGradient id="paint12_linear_500_4259" x1="169.818" y1="567.487" x2="424.997" y2="173.071" gradientUnits="userSpaceOnUse">
<stop stop-color="#1B1A1A"/>
<stop offset="1" stop-color="#131313" stop-opacity="0"/>
</linearGradient>
<linearGradient id="paint13_linear_500_4259" x1="140.458" y1="561.995" x2="411.396" y2="143.221" gradientUnits="userSpaceOnUse">
<stop stop-color="#1B1A1A"/>
<stop offset="1" stop-color="#131313" stop-opacity="0"/>
</linearGradient>
<linearGradient id="paint14_linear_500_4259" x1="103.249" y1="555.983" x2="394.786" y2="105.37" gradientUnits="userSpaceOnUse">
<stop stop-color="#1B1A1A"/>
<stop offset="1" stop-color="#131313" stop-opacity="0"/>
</linearGradient>
<linearGradient id="paint15_linear_500_4259" x1="52.2883" y1="542.773" x2="368.752" y2="53.6336" gradientUnits="userSpaceOnUse">
<stop stop-color="#1B1A1A"/>
<stop offset="1" stop-color="#131313" stop-opacity="0"/>
</linearGradient>
<linearGradient id="paint16_linear_500_4259" x1="49.215" y1="515.834" x2="349.92" y2="51.0518" gradientUnits="userSpaceOnUse">
<stop stop-color="#1B1A1A"/>
<stop offset="1" stop-color="#131313" stop-opacity="0"/>
</linearGradient>
<linearGradient id="paint17_linear_500_4259" x1="46.1415" y1="488.894" x2="331.088" y2="48.4691" gradientUnits="userSpaceOnUse">
<stop stop-color="#1B1A1A"/>
<stop offset="1" stop-color="#131313" stop-opacity="0"/>
</linearGradient>
<linearGradient id="paint18_linear_500_4259" x1="39.4296" y1="439.128" x2="295.949" y2="42.6415" gradientUnits="userSpaceOnUse">
<stop stop-color="#1B1A1A"/>
<stop offset="1" stop-color="#131313" stop-opacity="0"/>
</linearGradient>
<linearGradient id="paint19_linear_500_4259" x1="34.5316" y1="387.12" x2="259.945" y2="38.7109" gradientUnits="userSpaceOnUse">
<stop stop-color="#1B1A1A"/>
<stop offset="1" stop-color="#131313" stop-opacity="0"/>
</linearGradient>
<linearGradient id="paint20_linear_500_4259" x1="31.4582" y1="360.181" x2="241.114" y2="36.1301" gradientUnits="userSpaceOnUse">
<stop stop-color="#1B1A1A"/>
<stop offset="1" stop-color="#131313" stop-opacity="0"/>
</linearGradient>
<linearGradient id="paint21_linear_500_4259" x1="28.3849" y1="333.24" x2="222.282" y2="33.5464" gradientUnits="userSpaceOnUse">
<stop stop-color="#1B1A1A"/>
<stop offset="1" stop-color="#131313" stop-opacity="0"/>
</linearGradient>
<linearGradient id="paint22_linear_500_4259" x1="25.3116" y1="306.301" x2="203.45" y2="30.9646" gradientUnits="userSpaceOnUse">
<stop stop-color="#1B1A1A"/>
<stop offset="1" stop-color="#131313" stop-opacity="0"/>
</linearGradient>
<linearGradient id="paint23_linear_500_4259" x1="19.624" y1="265.513" x2="174.587" y2="25.9971" gradientUnits="userSpaceOnUse">
<stop stop-color="#1B1A1A"/>
<stop offset="1" stop-color="#131313" stop-opacity="0"/>
</linearGradient>
<linearGradient id="paint24_linear_500_4259" x1="13.4775" y1="211.633" x2="136.924" y2="20.8315" gradientUnits="userSpaceOnUse">
<stop stop-color="#1B1A1A"/>
<stop offset="1" stop-color="#131313" stop-opacity="0"/>
</linearGradient>
<linearGradient id="paint25_linear_500_4259" x1="10.6283" y1="177.587" x2="113.475" y2="18.6237" gradientUnits="userSpaceOnUse">
<stop stop-color="#1B1A1A"/>
<stop offset="1" stop-color="#131313" stop-opacity="0"/>
</linearGradient>
<linearGradient id="paint26_linear_500_4259" x1="7.55501" y1="150.646" x2="94.6433" y2="16.04" gradientUnits="userSpaceOnUse">
<stop stop-color="#1B1A1A"/>
<stop offset="1" stop-color="#131313" stop-opacity="0"/>
</linearGradient>
<linearGradient id="paint27_linear_500_4259" x1="4.48176" y1="123.707" x2="75.8114" y2="13.4582" gradientUnits="userSpaceOnUse">
<stop stop-color="#1B1A1A"/>
<stop offset="1" stop-color="#131313" stop-opacity="0"/>
</linearGradient>
<linearGradient id="paint28_linear_500_4259" x1="-0.181431" y1="91.899" x2="53.2251" y2="9.35162" gradientUnits="userSpaceOnUse">
<stop stop-color="#1B1A1A"/>
<stop offset="1" stop-color="#131313" stop-opacity="0"/>
</linearGradient>
<linearGradient id="paint29_linear_500_4259" x1="-6.32795" y1="38.019" x2="15.5612" y2="4.18611" gradientUnits="userSpaceOnUse">
<stop stop-color="#1B1A1A"/>
<stop offset="1" stop-color="#131313" stop-opacity="0"/>
</linearGradient>
</defs>
</svg>
