<svg width="405" height="183" viewBox="0 0 405 183" fill="none" xmlns="http://www.w3.org/2000/svg">
<path d="M202.911 46.5742C312.214 46.5742 400.821 75.1592 400.821 110.42C400.821 145.681 312.214 174.266 202.911 174.266C93.6076 174.266 5 145.681 5 110.42C5 75.1592 93.6076 46.5742 202.911 46.5742Z" fill="#45558D" fill-opacity="0.2" stroke="#5736B7" stroke-width="5"/>
<path d="M203.946 151.537C296.833 151.537 372.135 128.668 372.135 100.46C372.135 72.2506 296.833 49.3828 203.946 49.3828C111.057 49.3828 35.7563 72.2506 35.7563 100.46C35.7563 128.668 111.057 151.537 203.946 151.537Z" fill="url(#paint0_radial_1523_17889)" fill-opacity="0.3" stroke="#1757BF" stroke-width="2"/>
<path d="M203.097 141.05C214.682 141.05 226.124 140.733 237.28 140.108L228.585 128.652C220.275 129.125 211.75 129.364 203.097 129.364V141.05ZM242.432 139.797C253.596 139.069 264.377 138.031 274.624 136.703L256.395 126.074C248.749 127.08 240.721 127.864 232.417 128.415L242.432 139.797ZM279.305 136.07C289.341 134.65 298.754 132.948 307.407 130.99L280.993 121.743C274.473 123.227 267.405 124.518 259.894 125.593L279.305 136.07ZM311.33 130.071C319.668 128.04 327.182 125.767 333.751 123.289L300.985 115.893C295.968 117.774 290.261 119.502 283.954 121.044L311.33 130.071ZM336.702 122.13C342.912 119.59 348.14 116.863 352.304 113.987L315.286 108.84C312.036 111.019 307.999 113.088 303.241 115.013L336.702 122.13ZM354.145 112.643C357.922 109.73 360.628 106.687 362.227 103.553L323.226 100.943C321.871 103.315 319.696 105.618 316.729 107.822L354.145 112.643ZM362.873 102.12C364.078 99.0456 364.246 95.9012 363.374 92.7229C363.36 92.675 363.349 92.6271 363.335 92.5812L324.601 92.6151C324.608 92.649 324.615 92.6849 324.624 92.7229C325.128 95.141 324.843 97.5272 323.78 99.8576L362.873 102.12ZM362.845 91.1108C361.612 87.8865 359.358 84.7082 356.141 81.6077L319.682 84.2853C321.974 86.6336 323.526 89.0438 324.3 91.4938L362.845 91.1108ZM354.586 80.1732C351.078 77.0707 346.639 74.0679 341.357 71.2048L308.917 76.4123C312.817 78.581 316.055 80.8535 318.573 83.1999L354.586 80.1732ZM338.867 69.89C333.382 67.0688 327.107 64.4055 320.146 61.9386L293.056 69.3852C298.301 71.2567 303.001 73.2778 307.076 75.4167L338.867 69.89ZM316.906 60.8157C309.815 58.4125 302.092 56.2228 293.861 54.2813L273.072 63.5699C279.359 65.0441 285.236 66.7077 290.606 68.5313L316.906 60.8157ZM290.045 53.404C281.725 51.5401 272.941 49.9376 263.813 48.6232L250.029 59.2801C257.048 60.2757 263.787 61.4903 270.153 62.9041L290.045 53.404ZM259.575 48.0356C250.418 46.815 240.956 45.8896 231.292 45.2769L224.97 56.7478C232.431 57.2115 239.723 57.9116 246.77 58.8353L259.575 48.0356ZM226.879 45.0193C219.053 44.6021 211.116 44.3908 203.109 44.3906C201.321 44.3906 199.547 44.401 197.773 44.4219L198.952 56.0993C200.332 56.0834 201.712 56.0754 203.109 56.0754C209.333 56.0756 215.494 56.236 221.557 56.5524L226.879 45.0193ZM193.299 44.4966C183.509 44.7085 173.853 45.2376 164.422 46.0714L173.138 57.3491C180.418 56.7176 187.886 56.3168 195.474 56.156L193.299 44.4966ZM160.041 46.4818C150.572 47.4171 141.368 48.6563 132.539 50.1778L148.603 60.4574C155.384 59.3052 162.463 58.3673 169.757 57.6594L160.041 46.4818ZM128.471 50.9011C119.699 52.5092 111.346 54.3893 103.53 56.5103L126.405 65.2622C132.363 63.6519 138.753 62.2253 145.482 61.0057L128.471 50.9011ZM99.9626 57.5017C92.2548 59.6937 85.1354 62.112 78.719 64.7193L107.622 71.4962C112.445 69.5169 117.83 67.6794 123.688 66.0152L99.9626 57.5017ZM75.7886 65.9382C69.5329 68.6011 64.0354 71.4363 59.396 74.4031L93.2723 78.8344C96.6743 76.5878 100.749 74.439 105.425 72.4199L75.7886 65.9382ZM57.302 75.7838C52.9074 78.7766 49.4166 81.8811 46.9053 85.0594L84.2918 86.8989C86.041 84.4927 88.5418 82.1444 91.7424 79.8799L57.302 75.7838ZM45.8246 86.5139C44.401 88.5609 43.3951 90.6339 42.8219 92.7209C42.513 93.8442 42.3336 94.9655 42.2832 96.0808L81.3315 95.2787C81.3138 94.4307 81.3937 93.5768 81.5723 92.7209C81.9033 91.1307 82.5637 89.5565 83.5435 88.0003L45.8246 86.5139ZM42.2937 97.5532C42.489 100.757 43.7821 103.904 46.1533 106.952L84.7771 103.517C82.8469 101.208 81.7189 98.8261 81.4128 96.396L42.2937 97.5532ZM47.338 108.359C50.1008 111.396 53.9609 114.315 58.8608 117.078L94.7726 111.182C90.9769 109.087 87.9486 106.877 85.7333 104.578L47.338 108.359ZM61.2146 118.345C66.4912 121.058 72.7854 123.596 79.9993 125.921L110.972 117.892C105.48 116.126 100.661 114.201 96.5918 112.142L61.2146 118.345ZM83.3992 126.976C90.9545 129.233 99.3791 131.262 108.542 133.031L132.548 123.291C125.652 121.948 119.288 120.408 113.556 118.694L83.3992 126.976ZM112.844 133.83C122.287 135.515 132.394 136.928 143.017 138.043L158.337 127.09C150.415 126.244 142.859 125.174 135.78 123.898L112.844 133.83ZM147.951 138.536C158.701 139.554 169.874 140.272 181.32 140.673L186.842 129.079C178.327 128.774 170.016 128.233 162.014 127.461L147.951 138.536ZM186.572 140.833C192.04 140.978 197.551 141.05 203.095 141.05V129.364C198.952 129.364 194.835 129.31 190.756 129.201L186.572 140.833Z" fill="url(#paint1_linear_1523_17889)" fill-opacity="0.5"/>
<path d="M202.897 118.816C204.142 118.816 205.386 118.81 206.627 118.8L205.738 110.436C204.794 110.444 203.846 110.448 202.897 110.448V118.816ZM223.038 118.417C224.177 118.355 225.31 118.287 226.441 118.218L220.858 110.037C220.002 110.091 219.145 110.141 218.282 110.187L223.038 118.417ZM242.339 116.621C243.418 116.502 244.491 116.378 245.556 116.248L235.402 108.641C234.595 108.736 233.784 108.832 232.968 108.922L242.339 116.621ZM260.771 114.227C261.769 114.05 262.76 113.87 263.739 113.684L249.204 106.645C248.461 106.785 247.712 106.923 246.955 107.056L260.771 114.227ZM277.194 110.436C278.082 110.211 278.958 109.983 279.823 109.752L261.307 103.653C260.65 103.828 259.983 104 259.31 104.169L277.194 110.436ZM291.591 106.246C292.344 105.973 293.085 105.698 293.81 105.42L271.718 100.261C271.166 100.472 270.604 100.68 270.033 100.887L291.591 106.246ZM302.621 101.258C303.197 100.967 303.757 100.674 304.3 100.379L279.928 96.6696C279.518 96.893 279.094 97.1145 278.658 97.334L302.621 101.258ZM311.347 95.672C311.734 95.3547 312.104 95.0355 312.459 94.7143L286.259 92.2802C285.991 92.5216 285.712 92.763 285.418 93.0024L311.347 95.672ZM316.37 89.6864C316.561 89.3313 316.734 88.9782 316.888 88.623L289.539 87.4917C289.423 87.7611 289.292 88.0285 289.148 88.2958L316.37 89.6864ZM317.82 83.4256C317.809 83.1183 317.778 82.8091 317.732 82.5038L290.08 82.7971C290.115 83.0305 290.138 83.2659 290.148 83.5014L317.82 83.4256ZM315.722 77.5618C315.508 77.2126 315.275 76.8634 315.025 76.5182L287.982 78.3199C288.171 78.5833 288.348 78.8466 288.509 79.112L315.722 77.5618ZM310.594 71.8755C310.181 71.5583 309.75 71.243 309.305 70.9318L283.786 74.0063C284.124 74.2438 284.448 74.4812 284.763 74.7226L310.594 71.8755ZM301.502 66.5723C300.899 66.2936 300.279 66.017 299.645 65.7433L276.093 69.9022C276.574 70.1097 277.045 70.3192 277.501 70.5327L301.502 66.5723ZM289.847 61.5331C289.08 61.2703 288.299 61.0111 287.504 60.7553L267.002 66.3498C267.606 66.5444 268.198 66.7419 268.781 66.9414L289.847 61.5331ZM275.161 57.2225C274.254 56.9992 273.338 56.7801 272.41 56.5655L255.58 63.2495C256.284 63.4125 256.981 63.5787 257.668 63.7481L275.161 57.2225ZM259.076 53.671C258.051 53.5005 257.018 53.3347 255.976 53.1737L243.225 60.5782C244.015 60.7001 244.798 60.8258 245.575 60.9549L259.076 53.671ZM240.194 51.5039C239.097 51.3904 237.994 51.2818 236.884 51.1785L228.772 59.1127C229.611 59.1909 230.446 59.2729 231.276 59.3587L240.194 51.5039ZM220.846 49.9271C219.711 49.8734 218.574 49.8249 217.431 49.7818L214.086 58.0517C214.951 58.0844 215.816 58.1209 216.676 58.1616L220.846 49.9271ZM200.475 49.3828C199.337 49.3902 198.202 49.4026 197.069 49.4205L198.44 57.7626C199.302 57.749 200.165 57.7396 201.032 57.734L200.475 49.3828ZM180.84 49.9814C179.719 50.05 178.6 50.1238 177.488 50.203L183.574 58.3611C184.418 58.3013 185.264 58.2454 186.113 58.1933L180.84 49.9814ZM161.198 51.9765C160.093 52.1034 158.997 52.2351 157.907 52.3718L168.935 59.9573C169.76 59.8539 170.59 59.7542 171.427 59.6582L161.198 51.9765ZM143.356 54.3708C142.369 54.5553 141.391 54.7445 140.423 54.938L155.45 61.9524C156.184 61.8056 156.925 61.6621 157.673 61.5223L143.356 54.3708ZM127.162 58.1616C126.287 58.3942 125.423 58.6307 124.572 58.8711L143.584 64.9452C144.231 64.7627 144.887 64.5831 145.551 64.4065L127.162 58.1616ZM113.438 62.3515C112.706 62.6338 111.988 62.9197 111.284 63.2088L133.66 68.338C134.194 68.1186 134.739 67.9011 135.295 67.6856L113.438 62.3515ZM102.175 67.54C101.622 67.8412 101.084 68.1485 100.561 68.4557L125.214 72.1289C125.609 71.8954 126.017 71.664 126.436 71.4345L102.175 67.54ZM94.149 72.9269C93.783 73.2601 93.4338 73.5973 93.1017 73.9345L119.583 76.3187C119.835 76.0614 120.099 75.808 120.376 75.5546L94.149 72.9269ZM89.3497 78.9125C89.1842 79.2955 89.0362 79.6826 88.9057 80.0697L116.309 81.1072C116.408 80.8119 116.52 80.5206 116.646 80.2273L89.3497 78.9125ZM88.4395 85.5325C88.4756 85.8537 88.5292 86.1729 88.6001 86.4942L116.18 86.0273C116.126 85.7839 116.085 85.5405 116.058 85.297L88.4395 85.5325ZM90.7706 91.4283C91.01 91.7814 91.2668 92.1305 91.5407 92.4797L118.511 90.4805C118.303 90.2172 118.109 89.9518 117.928 89.6864L90.7706 91.4283ZM96.3652 96.7175C96.8039 97.0347 97.2592 97.3519 97.7308 97.6672L123.173 94.3951C122.816 94.1557 122.471 93.9162 122.139 93.6768L96.3652 96.7175ZM105.923 102.023C106.543 102.302 107.178 102.579 107.828 102.855L130.866 98.4952C130.372 98.2877 129.891 98.0782 129.42 97.8667L105.923 102.023ZM117.578 107.092C118.369 107.346 119.172 107.595 119.989 107.843L140.19 102.226C139.57 102.039 138.959 101.849 138.359 101.658L117.578 107.092ZM132.497 111.582C133.429 111.803 134.371 112.018 135.324 112.232L151.846 105.343C151.123 105.181 150.407 105.017 149.7 104.85L132.497 111.582ZM149.747 114.75C150.77 114.913 151.799 115.071 152.839 115.225L164.9 107.801C164.114 107.685 163.333 107.565 162.559 107.444L149.747 114.75ZM167.93 116.917C169.042 117.022 170.159 117.122 171.282 117.22L178.886 109.267C178.038 109.195 177.192 109.119 176.35 109.04L167.93 116.917ZM187.512 118.493C188.665 118.539 189.824 118.581 190.987 118.617L193.806 110.329C192.924 110.303 192.046 110.271 191.169 110.237L187.512 118.493Z" fill="url(#paint2_linear_1523_17889)"/>
<g filter="url(#filter0_f_1523_17889)">
<path d="M202.897 115.422C204.142 115.422 205.387 115.416 206.627 115.406L205.739 107.042C204.795 107.05 203.846 107.054 202.897 107.054V115.422ZM223.038 115.023C224.178 114.961 225.311 114.893 226.441 114.823L220.858 106.643C220.003 106.697 219.145 106.746 218.283 106.792L223.038 115.023ZM242.34 113.227C243.419 113.107 244.491 112.983 245.556 112.854L235.402 105.246C234.596 105.342 233.784 105.438 232.969 105.527L242.34 113.227ZM260.772 110.833C261.769 110.655 262.76 110.475 263.739 110.29L249.205 103.251C248.461 103.391 247.713 103.528 246.955 103.662L260.772 110.833ZM277.194 107.042C278.082 106.816 278.959 106.589 279.824 106.357L261.308 100.258C260.65 100.434 259.984 100.605 259.31 100.775L277.194 107.042ZM291.591 102.852C292.344 102.579 293.085 102.303 293.81 102.026L271.718 96.8664C271.166 97.0779 270.604 97.2854 270.033 97.4929L291.591 102.852ZM302.622 97.864C303.198 97.5727 303.757 97.2794 304.3 96.9841L279.929 93.275C279.518 93.4985 279.094 93.72 278.658 93.9394L302.622 97.864ZM311.347 92.2775C311.734 91.9602 312.105 91.641 312.459 91.3198L286.26 88.8856C285.992 89.1271 285.712 89.3685 285.418 89.6079L311.347 92.2775ZM316.371 86.2919C316.562 85.9368 316.734 85.5836 316.888 85.2285L289.54 84.0972C289.423 84.3666 289.293 84.6339 289.148 84.9013L316.371 86.2919ZM317.821 80.031C317.809 79.7238 317.779 79.4145 317.732 79.1093L290.081 79.4026C290.116 79.636 290.139 79.8714 290.148 80.1068L317.821 80.031ZM315.723 74.1672C315.508 73.8181 315.275 73.4689 315.026 73.1237L287.983 74.9254C288.171 75.1887 288.349 75.4521 288.509 75.7175L315.723 74.1672ZM310.594 68.4809C310.182 68.1637 309.75 67.8485 309.305 67.5372L283.787 70.6118C284.125 70.8492 284.449 71.0866 284.763 71.3281L310.594 68.4809ZM301.503 63.1782C300.899 62.899 300.279 62.6225 299.645 62.3488L276.094 66.5083C276.574 66.7152 277.045 66.9247 277.502 67.1382L301.503 63.1782ZM289.847 58.1385C289.081 57.8758 288.3 57.6166 287.505 57.3608L267.003 62.9553C267.606 63.1496 268.199 63.3463 268.781 63.5459L289.847 58.1385ZM275.161 53.8279C274.255 53.6047 273.339 53.3856 272.411 53.1709L255.58 59.855C256.284 60.018 256.981 60.1842 257.669 60.3536L275.161 53.8279ZM259.077 50.2765C258.051 50.1059 257.019 49.9401 255.977 49.7791L243.225 57.1836C244.016 57.3055 244.799 57.4312 245.575 57.5603L259.077 50.2765ZM240.195 48.1094C239.097 47.9958 237.994 47.8873 236.885 47.7839L228.773 55.7182C229.612 55.7964 230.446 55.8784 231.276 55.9642L240.195 48.1094ZM220.847 46.5326C219.712 46.4789 218.574 46.4304 217.432 46.3873L214.087 54.6571C214.951 54.6899 215.816 54.7264 216.676 54.7671L220.847 46.5326ZM200.475 45.9883C199.338 45.9957 198.202 46.008 197.07 46.026L198.44 54.368C199.303 54.3545 200.165 54.3451 201.032 54.3395L200.475 45.9883ZM180.84 46.5868C179.719 46.6555 178.6 46.7293 177.488 46.8085L183.575 54.9666C184.419 54.9067 185.265 54.8509 186.113 54.7988L180.84 46.5868ZM161.199 48.582C160.094 48.7089 158.998 48.8406 157.907 48.9773L168.935 56.5627C169.761 56.4594 170.591 56.3596 171.427 56.2637L161.199 48.582ZM143.356 50.9762C142.369 51.1608 141.392 51.3499 140.424 51.5435L155.45 58.5579C156.184 58.4111 156.926 58.2676 157.674 58.1278L143.356 50.9762ZM127.162 54.7671C126.287 54.9997 125.424 55.2361 124.572 55.4766L143.585 61.5507C144.231 61.3681 144.887 61.1886 145.552 61.012L127.162 54.7671ZM113.438 58.957C112.706 59.2393 111.988 59.5252 111.285 59.8143L133.661 64.9425C134.195 64.723 134.74 64.5062 135.295 64.2919L113.438 58.957ZM102.176 64.1444C101.622 64.4475 101.084 64.753 100.562 65.061L125.214 68.7343C125.61 68.5009 126.018 68.2694 126.437 68.04L102.176 64.1444ZM94.1495 69.5324C93.7835 69.8656 93.4343 70.2028 93.1021 70.54L119.584 72.9242C119.835 72.6668 120.099 72.4134 120.376 72.1601L94.1495 69.5324ZM89.3502 75.5179C89.1847 75.901 89.0367 76.2881 88.9062 76.6751L116.31 77.7126C116.409 77.4173 116.521 77.1261 116.646 76.8328L89.3502 75.5179ZM88.4399 82.138C88.4761 82.4592 88.5297 82.7784 88.6005 83.0996L116.18 82.6328C116.126 82.3893 116.085 82.1459 116.058 81.9025L88.4399 82.138ZM90.771 88.0337C91.0104 88.3869 91.2673 88.736 91.5412 89.0852L118.511 87.086C118.304 86.8226 118.11 86.5573 117.928 86.2919L90.771 88.0337ZM96.3657 93.3229C96.8044 93.6402 97.2597 93.9574 97.7312 94.2726L123.173 91.0006C122.816 90.7611 122.472 90.5217 122.14 90.2823L96.3657 93.3229ZM105.923 98.6281C106.544 98.9074 107.179 99.1848 107.829 99.4601L130.866 95.1006C130.373 94.8931 129.891 94.6836 129.421 94.4721L105.923 98.6281ZM117.579 103.698C118.369 103.951 119.173 104.201 119.99 104.448L140.19 98.8316C139.57 98.6441 138.96 98.4545 138.36 98.263L117.579 103.698ZM132.498 108.187C133.429 108.408 134.371 108.624 135.324 108.837L151.846 101.948C151.124 101.786 150.408 101.623 149.701 101.455L132.498 108.187ZM149.748 111.355C150.77 111.519 151.8 111.677 152.839 111.83L164.9 104.406C164.115 104.29 163.334 104.171 162.56 104.049L149.748 111.355ZM167.931 113.522C169.043 113.628 170.159 113.728 171.283 113.825L178.887 105.873C178.038 105.801 177.192 105.725 176.351 105.645L167.931 113.522ZM187.512 115.098C188.666 115.144 189.824 115.186 190.988 115.222L193.806 106.934C192.925 106.908 192.046 106.876 191.17 106.842L187.512 115.098Z" fill="#4A2D9E"/>
</g>
<path fill-rule="evenodd" clip-rule="evenodd" d="M25.6656 112.049C27.1526 112.049 28.358 111.8 28.358 111.49C28.358 111.183 27.1526 110.934 25.6656 110.934C24.1786 110.934 22.9731 111.183 22.9731 111.49C22.9731 111.8 24.1786 112.049 25.6656 112.049Z" fill="white"/>
<g filter="url(#filter1_f_1523_17889)">
<path fill-rule="evenodd" clip-rule="evenodd" d="M20.9707 97.8458C21.6569 96.112 27.3001 95.6372 28.1495 97.3351C28.7157 98.4663 28.1351 103.201 26.4075 111.539H23.6029C21.3905 103.566 20.5131 99.001 20.9707 97.8458Z" fill="url(#paint3_radial_1523_17889)" fill-opacity="0.7"/>
</g>
<path fill-rule="evenodd" clip-rule="evenodd" d="M381.858 112.049C383.345 112.049 384.55 111.8 384.55 111.49C384.55 111.183 383.345 110.934 381.858 110.934C380.371 110.934 379.166 111.183 379.166 111.49C379.166 111.8 380.371 112.049 381.858 112.049Z" fill="white"/>
<g filter="url(#filter2_f_1523_17889)">
<path fill-rule="evenodd" clip-rule="evenodd" d="M377.16 97.8458C377.848 96.112 383.491 95.6372 384.34 97.3351C384.906 98.4663 384.326 103.201 382.599 111.539H379.794C377.582 103.566 376.703 99.001 377.16 97.8458Z" fill="url(#paint4_radial_1523_17889)" fill-opacity="0.7"/>
</g>
<path fill-rule="evenodd" clip-rule="evenodd" d="M32.1924 89.3028C33.6794 89.3028 34.8848 89.0514 34.8848 88.7442C34.8848 88.4369 33.6794 88.1875 32.1924 88.1875C30.7054 88.1875 29.5 88.4369 29.5 88.7442C29.5 89.0514 30.7054 89.3028 32.1924 89.3028Z" fill="white"/>
<g filter="url(#filter3_f_1523_17889)">
<path fill-rule="evenodd" clip-rule="evenodd" d="M27.4951 75.0919C28.1814 73.3581 33.8245 72.8833 34.6739 74.5812C35.2402 75.7124 34.6595 80.447 32.9319 88.7848H30.1274C27.9149 80.8121 27.0375 76.2471 27.4951 75.0919Z" fill="url(#paint5_radial_1523_17889)" fill-opacity="0.7"/>
</g>
<path fill-rule="evenodd" clip-rule="evenodd" d="M374.166 89.3028C375.653 89.3028 376.858 89.0514 376.858 88.7442C376.858 88.4369 375.653 88.1875 374.166 88.1875C372.679 88.1875 371.474 88.4369 371.474 88.7442C371.474 89.0514 372.679 89.3028 374.166 89.3028Z" fill="white"/>
<g filter="url(#filter4_f_1523_17889)">
<path fill-rule="evenodd" clip-rule="evenodd" d="M369.467 75.0919C370.155 73.3581 375.799 72.8833 376.647 74.5812C377.214 75.7124 376.633 80.447 374.906 88.7848H372.101C369.889 80.8121 369.01 76.2471 369.467 75.0919Z" fill="url(#paint6_radial_1523_17889)" fill-opacity="0.7"/>
</g>
<path fill-rule="evenodd" clip-rule="evenodd" d="M43.3715 127.47C45.0709 127.47 46.4486 127.185 46.4486 126.832C46.4486 126.481 45.0709 126.195 43.3715 126.195C41.6721 126.195 40.2944 126.481 40.2944 126.832C40.2944 127.185 41.6721 127.47 43.3715 127.47Z" fill="white"/>
<g filter="url(#filter5_f_1523_17889)">
<path fill-rule="evenodd" clip-rule="evenodd" d="M38.0045 111.234C38.7889 109.253 45.2384 108.71 46.2091 110.649C46.8562 111.942 46.1925 117.353 44.2183 126.882H41.013C38.4845 117.77 37.4816 112.555 38.0045 111.234Z" fill="url(#paint7_radial_1523_17889)" fill-opacity="0.7"/>
</g>
<path fill-rule="evenodd" clip-rule="evenodd" d="M363.2 130.666C364.899 130.666 366.277 130.38 366.277 130.027C366.277 129.676 364.899 129.391 363.2 129.391C361.501 129.391 360.123 129.676 360.123 130.027C360.123 130.38 361.501 130.666 363.2 130.666Z" fill="white"/>
<g filter="url(#filter6_f_1523_17889)">
<path fill-rule="evenodd" clip-rule="evenodd" d="M357.835 114.429C358.618 112.448 365.068 111.905 366.038 113.845C366.686 115.138 366.022 120.548 364.047 130.077H360.842C358.313 120.965 357.31 115.75 357.835 114.429Z" fill="url(#paint8_radial_1523_17889)" fill-opacity="0.7"/>
</g>
<path fill-rule="evenodd" clip-rule="evenodd" d="M65.2846 139.638C66.984 139.638 68.3616 139.353 68.3616 139C68.3616 138.649 66.984 138.363 65.2846 138.363C63.5852 138.363 62.2075 138.649 62.2075 139C62.2075 139.353 63.5852 139.638 65.2846 139.638Z" fill="white"/>
<g filter="url(#filter7_f_1523_17889)">
<path fill-rule="evenodd" clip-rule="evenodd" d="M59.9171 123.406C60.7015 121.425 67.151 120.882 68.1217 122.821C68.7688 124.114 68.1051 129.525 66.1309 139.054H62.9256C60.3971 129.942 59.3942 124.727 59.9171 123.406Z" fill="url(#paint9_radial_1523_17889)" fill-opacity="0.7"/>
</g>
<path fill-rule="evenodd" clip-rule="evenodd" d="M307.485 154.607C309.185 154.607 310.562 154.322 310.562 153.969C310.562 153.617 309.185 153.332 307.485 153.332C305.786 153.332 304.408 153.617 304.408 153.969C304.408 154.322 305.786 154.607 307.485 154.607Z" fill="white"/>
<g filter="url(#filter8_f_1523_17889)">
<path fill-rule="evenodd" clip-rule="evenodd" d="M302.12 138.378C302.904 136.397 309.354 135.855 310.324 137.794C310.972 139.087 310.307 144.498 308.333 154.027H305.128C302.598 144.915 301.596 139.699 302.12 138.378Z" fill="url(#paint10_radial_1523_17889)" fill-opacity="0.7"/>
</g>
<path fill-rule="evenodd" clip-rule="evenodd" d="M336.859 145.623C338.558 145.623 339.936 145.337 339.936 144.984C339.936 144.633 338.558 144.348 336.859 144.348C335.159 144.348 333.782 144.633 333.782 144.984C333.782 145.337 335.159 145.623 336.859 145.623Z" fill="white"/>
<g filter="url(#filter9_f_1523_17889)">
<path fill-rule="evenodd" clip-rule="evenodd" d="M331.493 129.394C332.276 127.413 338.726 126.87 339.696 128.809C340.344 130.102 339.679 135.513 337.705 145.042H334.5C331.97 135.93 330.968 130.715 331.493 129.394Z" fill="url(#paint11_radial_1523_17889)" fill-opacity="0.7"/>
</g>
<path fill-rule="evenodd" clip-rule="evenodd" d="M96.2682 150.934C98.3925 150.934 100.115 150.577 100.115 150.138C100.115 149.697 98.3925 149.34 96.2682 149.34C94.1439 149.34 92.4219 149.697 92.4219 150.138C92.4219 150.577 94.1439 150.934 96.2682 150.934Z" fill="white"/>
<g filter="url(#filter10_f_1523_17889)">
<path fill-rule="evenodd" clip-rule="evenodd" d="M89.5606 130.64C90.5411 128.162 98.6027 127.484 99.8161 129.908C100.625 131.524 99.7955 138.288 97.3276 150.199H93.3211C90.1604 138.811 88.907 132.29 89.5606 130.64Z" fill="url(#paint12_radial_1523_17889)" fill-opacity="0.7"/>
</g>
<path fill-rule="evenodd" clip-rule="evenodd" d="M132.634 156.918C134.758 156.918 136.48 156.561 136.48 156.122C136.48 155.681 134.758 155.324 132.634 155.324C130.51 155.324 128.788 155.681 128.788 156.122C128.788 156.561 130.51 156.918 132.634 156.918Z" fill="white"/>
<g filter="url(#filter11_f_1523_17889)">
<path fill-rule="evenodd" clip-rule="evenodd" d="M125.925 136.625C126.905 134.147 134.967 133.468 136.18 135.893C136.989 137.509 136.16 144.272 133.692 156.184H129.685C126.525 144.795 125.271 138.275 125.925 136.625Z" fill="url(#paint13_radial_1523_17889)" fill-opacity="0.7"/>
</g>
<path fill-rule="evenodd" clip-rule="evenodd" d="M176.692 162.305C178.816 162.305 180.538 161.948 180.538 161.509C180.538 161.068 178.816 160.711 176.692 160.711C174.566 160.711 172.846 161.068 172.846 161.509C172.846 161.948 174.566 162.305 176.692 162.305Z" fill="white"/>
<g filter="url(#filter12_f_1523_17889)">
<path fill-rule="evenodd" clip-rule="evenodd" d="M169.983 142.012C170.962 139.534 179.025 138.855 180.238 141.279C181.046 142.895 180.217 149.659 177.75 161.57H173.743C170.582 150.182 169.328 143.662 169.983 142.012Z" fill="url(#paint14_radial_1523_17889)" fill-opacity="0.7"/>
</g>
<path fill-rule="evenodd" clip-rule="evenodd" d="M220.75 163.504C222.874 163.504 224.596 163.147 224.596 162.708C224.596 162.267 222.874 161.91 220.75 161.91C218.624 161.91 216.904 162.267 216.904 162.708C216.904 163.147 218.624 163.504 220.75 163.504Z" fill="white"/>
<g filter="url(#filter13_f_1523_17889)">
<path fill-rule="evenodd" clip-rule="evenodd" d="M214.042 143.207C215.021 140.729 223.084 140.05 224.297 142.475C225.106 144.091 224.276 150.854 221.809 162.766H217.802C214.641 151.377 213.387 144.857 214.042 143.207Z" fill="url(#paint15_radial_1523_17889)" fill-opacity="0.7"/>
</g>
<path fill-rule="evenodd" clip-rule="evenodd" d="M264.809 162.305C266.932 162.305 268.655 161.948 268.655 161.509C268.655 161.068 266.932 160.711 264.809 160.711C262.683 160.711 260.962 161.068 260.962 161.509C260.962 161.948 262.683 162.305 264.809 162.305Z" fill="white"/>
<g filter="url(#filter14_f_1523_17889)">
<path fill-rule="evenodd" clip-rule="evenodd" d="M258.099 142.012C259.078 139.534 267.142 138.855 268.354 141.279C269.163 142.895 268.333 149.659 265.866 161.57H261.859C258.698 150.182 257.444 143.662 258.099 142.012Z" fill="url(#paint16_radial_1523_17889)" fill-opacity="0.7"/>
</g>
<path d="M60.6022 92.6797C62.7265 92.6797 64.4485 92.0991 64.4485 91.3828C64.4485 90.6665 62.7265 90.0859 60.6022 90.0859C58.4778 90.0859 56.7559 90.6665 56.7559 91.3828C56.7559 92.0991 58.4778 92.6797 60.6022 92.6797Z" fill="white"/>
<g filter="url(#filter15_f_1523_17889)">
<path fill-rule="evenodd" clip-rule="evenodd" d="M42.3027 54.5834C42.3027 41.4238 70.4562 41.4238 72.8749 50.8411C74.4871 57.1191 71.5816 70.6626 64.158 91.4743H56.1723C46.9258 75.6525 42.3027 63.3566 42.3027 54.5834Z" fill="url(#paint17_radial_1523_17889)"/>
</g>
<g filter="url(#filter16_f_1523_17889)">
<path fill-rule="evenodd" clip-rule="evenodd" d="M48.7013 59.6115C50.6622 55.5773 66.7857 54.4711 69.2124 58.4204C70.8302 61.0532 69.1711 72.071 64.2353 91.4761H56.2226C49.9011 72.923 47.394 62.301 48.7013 59.6115Z" fill="url(#paint18_radial_1523_17889)" fill-opacity="0.7"/>
</g>
<path d="M89.0421 118.809C91.1665 118.809 92.8884 118.228 92.8884 117.512C92.8884 116.795 91.1665 116.215 89.0421 116.215C86.9178 116.215 85.1958 116.795 85.1958 117.512C85.1958 118.228 86.9178 118.809 89.0421 118.809Z" fill="white"/>
<g filter="url(#filter17_f_1523_17889)">
<path fill-rule="evenodd" clip-rule="evenodd" d="M70.7432 70.9131C70.7432 54.2556 98.8966 54.2556 101.315 66.1762C102.928 74.1234 100.022 91.268 92.5984 117.61H84.6128C75.3662 97.5847 70.7432 82.0183 70.7432 70.9131Z" fill="url(#paint19_radial_1523_17889)"/>
</g>
<g filter="url(#filter18_f_1523_17889)">
<path fill-rule="evenodd" clip-rule="evenodd" d="M77.1417 85.7518C79.1026 81.7176 95.2262 80.6122 97.6528 84.5607C99.2706 87.1943 97.6116 98.2117 92.6757 117.617H84.663C78.3415 99.0636 75.8344 88.4413 77.1417 85.7518Z" fill="url(#paint20_radial_1523_17889)" fill-opacity="0.7"/>
</g>
<path d="M341.035 88.289C343.159 88.289 344.882 87.7084 344.882 86.9922C344.882 86.2759 343.159 85.6953 341.035 85.6953C338.909 85.6953 337.189 86.2759 337.189 86.9922C337.189 87.7084 338.909 88.289 341.035 88.289Z" fill="white"/>
<g filter="url(#filter19_f_1523_17889)">
<path fill-rule="evenodd" clip-rule="evenodd" d="M322.736 50.3521C322.736 37.248 350.889 37.248 353.306 46.6253C354.92 52.877 352.015 66.3639 344.59 87.0872H336.604C327.359 71.3333 322.736 59.088 322.736 50.3521Z" fill="url(#paint21_radial_1523_17889)"/>
</g>
<g filter="url(#filter20_f_1523_17889)">
<path fill-rule="evenodd" clip-rule="evenodd" d="M329.133 55.217C331.094 51.1827 347.218 50.0766 349.645 54.0259C351.262 56.6587 349.603 67.6765 344.668 87.0816H336.653C330.331 68.5284 327.825 57.9065 329.133 55.217Z" fill="url(#paint22_radial_1523_17889)" fill-opacity="0.7"/>
</g>
<path d="M325.417 115.418C327.54 115.418 329.263 114.837 329.263 114.121C329.263 113.405 327.54 112.824 325.417 112.824C323.291 112.824 321.57 113.405 321.57 114.121C321.57 114.837 323.291 115.418 325.417 115.418Z" fill="white"/>
<g filter="url(#filter21_f_1523_17889)">
<path fill-rule="evenodd" clip-rule="evenodd" d="M307.119 67.5225C307.119 50.865 335.271 50.865 337.689 62.7856C339.302 70.7328 336.397 87.8773 328.973 114.22H320.986C311.741 94.1941 307.119 78.6277 307.119 67.5225Z" fill="url(#paint23_radial_1523_17889)"/>
</g>
<g filter="url(#filter22_f_1523_17889)">
<path fill-rule="evenodd" clip-rule="evenodd" d="M313.515 82.3612C315.475 78.3269 331.599 77.2216 334.026 81.1701C335.644 83.8037 333.984 94.8211 329.049 114.226H321.035C314.713 95.673 312.207 85.0507 313.515 82.3612Z" fill="url(#paint24_radial_1523_17889)" fill-opacity="0.7"/>
</g>
<path d="M205.789 96.6672C250.721 96.6672 287.145 86.4379 287.145 73.8224C287.145 61.2046 250.721 50.9766 205.789 50.9766C160.857 50.9766 124.434 61.2046 124.434 73.8224C124.434 86.4379 160.857 96.6672 205.789 96.6672Z" fill="url(#paint25_radial_1523_17889)" stroke="url(#paint26_linear_1523_17889)" stroke-width="10"/>
<path fill-rule="evenodd" clip-rule="evenodd" d="M205.01 91.5327C242.086 91.5327 272.186 82.3609 272.237 71.0482C272.286 59.7339 242.268 50.5625 205.192 50.5625C168.113 50.5625 138.015 59.7339 137.964 71.0482C137.914 82.3609 167.932 91.5327 205.01 91.5327Z" stroke="url(#paint27_linear_1523_17889)" stroke-width="5" stroke-dasharray="10 10"/>
<g filter="url(#filter23_f_1523_17889)">
<path fill-rule="evenodd" clip-rule="evenodd" d="M204.103 85.6795C236.03 85.6795 261.944 78.5048 261.984 69.6542C262.024 60.8038 236.172 53.6289 204.245 53.6289C172.316 53.6289 146.401 60.8038 146.362 69.6542C146.323 78.5048 172.174 85.6795 204.103 85.6795Z" stroke="url(#paint28_linear_1523_17889)" stroke-width="15"/>
</g>
<path d="M205.789 106.024C269.13 106.024 320.479 91.6045 320.479 73.8195C320.479 56.032 269.13 41.6133 205.789 41.6133C142.447 41.6133 91.0986 56.032 91.0986 73.8195C91.0986 91.6045 142.447 106.024 205.789 106.024Z" fill="#4A2D9E" fill-opacity="0.1" stroke="url(#paint29_linear_1523_17889)" stroke-width="5"/>
<path d="M203.429 79.545C231.496 79.545 254.271 74.4294 254.299 68.1186C254.327 61.8074 231.598 56.6914 203.532 56.6914C175.465 56.6914 152.691 61.8074 152.663 68.1186C152.635 74.4294 175.365 79.545 203.429 79.545Z" stroke="url(#paint30_linear_1523_17889)" stroke-width="4"/>
<path d="M203.46 75.1261C227.405 75.1261 246.837 70.7586 246.861 65.3718C246.884 59.9844 227.491 55.6172 203.546 55.6172C179.599 55.6172 160.167 59.9844 160.144 65.3718C160.12 70.7586 179.513 75.1261 203.46 75.1261Z" stroke="url(#paint31_linear_1523_17889)" stroke-width="10"/>
<g filter="url(#filter24_f_1523_17889)">
<path fill-rule="evenodd" clip-rule="evenodd" d="M203.49 71.9226C223.446 71.9226 239.638 68.2834 239.659 63.7928C239.678 59.3035 223.519 55.6641 203.562 55.6641C183.608 55.6641 167.414 59.3035 167.395 63.7928C167.374 68.2834 183.536 71.9226 203.49 71.9226Z" fill="url(#paint32_radial_1523_17889)"/>
<path fill-rule="evenodd" clip-rule="evenodd" d="M203.49 71.9226C223.446 71.9226 239.638 68.2834 239.659 63.7928C239.678 59.3035 223.519 55.6641 203.562 55.6641C183.608 55.6641 167.414 59.3035 167.395 63.7928C167.374 68.2834 183.536 71.9226 203.49 71.9226Z" stroke="url(#paint33_linear_1523_17889)" stroke-width="10"/>
</g>
<defs>
<filter id="filter0_f_1523_17889" x="58.4399" y="15.9883" width="289.381" height="129.434" filterUnits="userSpaceOnUse" color-interpolation-filters="sRGB">
<feFlood flood-opacity="0" result="BackgroundImageFix"/>
<feBlend mode="normal" in="SourceGraphic" in2="BackgroundImageFix" result="shape"/>
<feGaussianBlur stdDeviation="15" result="effect1_foregroundBlur_1523_17889"/>
</filter>
<filter id="filter1_f_1523_17889" x="0.853027" y="76.2773" width="47.5063" height="55.2617" filterUnits="userSpaceOnUse" color-interpolation-filters="sRGB">
<feFlood flood-opacity="0" result="BackgroundImageFix"/>
<feBlend mode="normal" in="SourceGraphic" in2="BackgroundImageFix" result="shape"/>
<feGaussianBlur stdDeviation="10" result="effect1_foregroundBlur_1523_17889"/>
</filter>
<filter id="filter2_f_1523_17889" x="357.043" y="76.2773" width="47.5068" height="55.2617" filterUnits="userSpaceOnUse" color-interpolation-filters="sRGB">
<feFlood flood-opacity="0" result="BackgroundImageFix"/>
<feBlend mode="normal" in="SourceGraphic" in2="BackgroundImageFix" result="shape"/>
<feGaussianBlur stdDeviation="10" result="effect1_foregroundBlur_1523_17889"/>
</filter>
<filter id="filter3_f_1523_17889" x="7.37744" y="53.5234" width="47.5063" height="55.2617" filterUnits="userSpaceOnUse" color-interpolation-filters="sRGB">
<feFlood flood-opacity="0" result="BackgroundImageFix"/>
<feBlend mode="normal" in="SourceGraphic" in2="BackgroundImageFix" result="shape"/>
<feGaussianBlur stdDeviation="10" result="effect1_foregroundBlur_1523_17889"/>
</filter>
<filter id="filter4_f_1523_17889" x="349.35" y="53.5234" width="47.5068" height="55.2617" filterUnits="userSpaceOnUse" color-interpolation-filters="sRGB">
<feFlood flood-opacity="0" result="BackgroundImageFix"/>
<feBlend mode="normal" in="SourceGraphic" in2="BackgroundImageFix" result="shape"/>
<feGaussianBlur stdDeviation="10" result="effect1_foregroundBlur_1523_17889"/>
</filter>
<filter id="filter5_f_1523_17889" x="17.8701" y="89.4414" width="48.5786" height="57.4414" filterUnits="userSpaceOnUse" color-interpolation-filters="sRGB">
<feFlood flood-opacity="0" result="BackgroundImageFix"/>
<feBlend mode="normal" in="SourceGraphic" in2="BackgroundImageFix" result="shape"/>
<feGaussianBlur stdDeviation="10" result="effect1_foregroundBlur_1523_17889"/>
</filter>
<filter id="filter6_f_1523_17889" x="337.7" y="92.6367" width="48.5781" height="57.4414" filterUnits="userSpaceOnUse" color-interpolation-filters="sRGB">
<feFlood flood-opacity="0" result="BackgroundImageFix"/>
<feBlend mode="normal" in="SourceGraphic" in2="BackgroundImageFix" result="shape"/>
<feGaussianBlur stdDeviation="10" result="effect1_foregroundBlur_1523_17889"/>
</filter>
<filter id="filter7_f_1523_17889" x="39.7827" y="101.613" width="48.5786" height="57.4414" filterUnits="userSpaceOnUse" color-interpolation-filters="sRGB">
<feFlood flood-opacity="0" result="BackgroundImageFix"/>
<feBlend mode="normal" in="SourceGraphic" in2="BackgroundImageFix" result="shape"/>
<feGaussianBlur stdDeviation="10" result="effect1_foregroundBlur_1523_17889"/>
</filter>
<filter id="filter8_f_1523_17889" x="281.985" y="116.586" width="48.5781" height="57.4414" filterUnits="userSpaceOnUse" color-interpolation-filters="sRGB">
<feFlood flood-opacity="0" result="BackgroundImageFix"/>
<feBlend mode="normal" in="SourceGraphic" in2="BackgroundImageFix" result="shape"/>
<feGaussianBlur stdDeviation="10" result="effect1_foregroundBlur_1523_17889"/>
</filter>
<filter id="filter9_f_1523_17889" x="311.357" y="107.602" width="48.5781" height="57.4414" filterUnits="userSpaceOnUse" color-interpolation-filters="sRGB">
<feFlood flood-opacity="0" result="BackgroundImageFix"/>
<feBlend mode="normal" in="SourceGraphic" in2="BackgroundImageFix" result="shape"/>
<feGaussianBlur stdDeviation="10" result="effect1_foregroundBlur_1523_17889"/>
</filter>
<filter id="filter10_f_1523_17889" x="69.3926" y="108.398" width="50.7231" height="61.8008" filterUnits="userSpaceOnUse" color-interpolation-filters="sRGB">
<feFlood flood-opacity="0" result="BackgroundImageFix"/>
<feBlend mode="normal" in="SourceGraphic" in2="BackgroundImageFix" result="shape"/>
<feGaussianBlur stdDeviation="10" result="effect1_foregroundBlur_1523_17889"/>
</filter>
<filter id="filter11_f_1523_17889" x="105.757" y="114.383" width="50.7231" height="61.8008" filterUnits="userSpaceOnUse" color-interpolation-filters="sRGB">
<feFlood flood-opacity="0" result="BackgroundImageFix"/>
<feBlend mode="normal" in="SourceGraphic" in2="BackgroundImageFix" result="shape"/>
<feGaussianBlur stdDeviation="10" result="effect1_foregroundBlur_1523_17889"/>
</filter>
<filter id="filter12_f_1523_17889" x="149.814" y="119.77" width="50.7227" height="61.8008" filterUnits="userSpaceOnUse" color-interpolation-filters="sRGB">
<feFlood flood-opacity="0" result="BackgroundImageFix"/>
<feBlend mode="normal" in="SourceGraphic" in2="BackgroundImageFix" result="shape"/>
<feGaussianBlur stdDeviation="10" result="effect1_foregroundBlur_1523_17889"/>
</filter>
<filter id="filter13_f_1523_17889" x="193.874" y="120.965" width="50.7227" height="61.8008" filterUnits="userSpaceOnUse" color-interpolation-filters="sRGB">
<feFlood flood-opacity="0" result="BackgroundImageFix"/>
<feBlend mode="normal" in="SourceGraphic" in2="BackgroundImageFix" result="shape"/>
<feGaussianBlur stdDeviation="10" result="effect1_foregroundBlur_1523_17889"/>
</filter>
<filter id="filter14_f_1523_17889" x="237.931" y="119.77" width="50.7227" height="61.8008" filterUnits="userSpaceOnUse" color-interpolation-filters="sRGB">
<feFlood flood-opacity="0" result="BackgroundImageFix"/>
<feBlend mode="normal" in="SourceGraphic" in2="BackgroundImageFix" result="shape"/>
<feGaussianBlur stdDeviation="10" result="effect1_foregroundBlur_1523_17889"/>
</filter>
<filter id="filter15_f_1523_17889" x="2.30273" y="4.1875" width="111.004" height="127.285" filterUnits="userSpaceOnUse" color-interpolation-filters="sRGB">
<feFlood flood-opacity="0" result="BackgroundImageFix"/>
<feBlend mode="normal" in="SourceGraphic" in2="BackgroundImageFix" result="shape"/>
<feGaussianBlur stdDeviation="20" result="effect1_foregroundBlur_1523_17889"/>
</filter>
<filter id="filter16_f_1523_17889" x="28.3652" y="35.9609" width="61.4463" height="75.5156" filterUnits="userSpaceOnUse" color-interpolation-filters="sRGB">
<feFlood flood-opacity="0" result="BackgroundImageFix"/>
<feBlend mode="normal" in="SourceGraphic" in2="BackgroundImageFix" result="shape"/>
<feGaussianBlur stdDeviation="10" result="effect1_foregroundBlur_1523_17889"/>
</filter>
<filter id="filter17_f_1523_17889" x="30.7432" y="17.7539" width="111.004" height="139.855" filterUnits="userSpaceOnUse" color-interpolation-filters="sRGB">
<feFlood flood-opacity="0" result="BackgroundImageFix"/>
<feBlend mode="normal" in="SourceGraphic" in2="BackgroundImageFix" result="shape"/>
<feGaussianBlur stdDeviation="20" result="effect1_foregroundBlur_1523_17889"/>
</filter>
<filter id="filter18_f_1523_17889" x="56.8057" y="62.1016" width="61.4463" height="75.5156" filterUnits="userSpaceOnUse" color-interpolation-filters="sRGB">
<feFlood flood-opacity="0" result="BackgroundImageFix"/>
<feBlend mode="normal" in="SourceGraphic" in2="BackgroundImageFix" result="shape"/>
<feGaussianBlur stdDeviation="10" result="effect1_foregroundBlur_1523_17889"/>
</filter>
<filter id="filter19_f_1523_17889" x="282.736" y="0" width="111.002" height="127.086" filterUnits="userSpaceOnUse" color-interpolation-filters="sRGB">
<feFlood flood-opacity="0" result="BackgroundImageFix"/>
<feBlend mode="normal" in="SourceGraphic" in2="BackgroundImageFix" result="shape"/>
<feGaussianBlur stdDeviation="20" result="effect1_foregroundBlur_1523_17889"/>
</filter>
<filter id="filter20_f_1523_17889" x="308.797" y="31.5664" width="61.4468" height="75.5156" filterUnits="userSpaceOnUse" color-interpolation-filters="sRGB">
<feFlood flood-opacity="0" result="BackgroundImageFix"/>
<feBlend mode="normal" in="SourceGraphic" in2="BackgroundImageFix" result="shape"/>
<feGaussianBlur stdDeviation="10" result="effect1_foregroundBlur_1523_17889"/>
</filter>
<filter id="filter21_f_1523_17889" x="267.119" y="14.3633" width="111.002" height="139.855" filterUnits="userSpaceOnUse" color-interpolation-filters="sRGB">
<feFlood flood-opacity="0" result="BackgroundImageFix"/>
<feBlend mode="normal" in="SourceGraphic" in2="BackgroundImageFix" result="shape"/>
<feGaussianBlur stdDeviation="20" result="effect1_foregroundBlur_1523_17889"/>
</filter>
<filter id="filter22_f_1523_17889" x="293.178" y="58.7109" width="61.4468" height="75.5156" filterUnits="userSpaceOnUse" color-interpolation-filters="sRGB">
<feFlood flood-opacity="0" result="BackgroundImageFix"/>
<feBlend mode="normal" in="SourceGraphic" in2="BackgroundImageFix" result="shape"/>
<feGaussianBlur stdDeviation="10" result="effect1_foregroundBlur_1523_17889"/>
</filter>
<filter id="filter23_f_1523_17889" x="132.862" y="40.1289" width="142.623" height="59.0508" filterUnits="userSpaceOnUse" color-interpolation-filters="sRGB">
<feFlood flood-opacity="0" result="BackgroundImageFix"/>
<feBlend mode="normal" in="SourceGraphic" in2="BackgroundImageFix" result="shape"/>
<feGaussianBlur stdDeviation="3" result="effect1_foregroundBlur_1523_17889"/>
</filter>
<filter id="filter24_f_1523_17889" x="154.395" y="42.6641" width="98.2642" height="42.2578" filterUnits="userSpaceOnUse" color-interpolation-filters="sRGB">
<feFlood flood-opacity="0" result="BackgroundImageFix"/>
<feBlend mode="normal" in="SourceGraphic" in2="BackgroundImageFix" result="shape"/>
<feGaussianBlur stdDeviation="4" result="effect1_foregroundBlur_1523_17889"/>
</filter>
<radialGradient id="paint0_radial_1523_17889" cx="0" cy="0" r="1" gradientUnits="userSpaceOnUse" gradientTransform="translate(-183.892 78.5713) rotate(90) scale(143.952 58.6119)">
<stop stop-color="#0061FF" stop-opacity="0"/>
<stop offset="1" stop-color="#001989"/>
</radialGradient>
<linearGradient id="paint1_linear_1523_17889" x1="220.976" y1="113.11" x2="216.624" y2="73.0898" gradientUnits="userSpaceOnUse">
<stop stop-color="#00C2FF"/>
<stop offset="1" stop-color="#0042FF"/>
</linearGradient>
<linearGradient id="paint2_linear_1523_17889" x1="129.81" y1="87.791" x2="130.752" y2="78.8767" gradientUnits="userSpaceOnUse">
<stop stop-color="#AEDFFF"/>
<stop offset="1" stop-color="#00DEFF"/>
</linearGradient>
<radialGradient id="paint3_radial_1523_17889" cx="0" cy="0" r="1" gradientUnits="userSpaceOnUse" gradientTransform="translate(25.3986 112.915) rotate(-93.0012) scale(15.5838 102.66)">
<stop stop-color="#B9C4FF"/>
<stop offset="1" stop-color="#85F0FF" stop-opacity="0"/>
</radialGradient>
<radialGradient id="paint4_radial_1523_17889" cx="0" cy="0" r="1" gradientUnits="userSpaceOnUse" gradientTransform="translate(381.589 112.915) rotate(-93.0012) scale(15.5838 102.66)">
<stop stop-color="#B9C4FF"/>
<stop offset="1" stop-color="#85F0FF" stop-opacity="0"/>
</radialGradient>
<radialGradient id="paint5_radial_1523_17889" cx="0" cy="0" r="1" gradientUnits="userSpaceOnUse" gradientTransform="translate(31.923 90.1615) rotate(-93.0012) scale(15.5838 102.66)">
<stop stop-color="#B9C4FF"/>
<stop offset="1" stop-color="#85F0FF" stop-opacity="0"/>
</radialGradient>
<radialGradient id="paint6_radial_1523_17889" cx="0" cy="0" r="1" gradientUnits="userSpaceOnUse" gradientTransform="translate(373.896 90.1615) rotate(-93.0012) scale(15.5838 102.66)">
<stop stop-color="#B9C4FF"/>
<stop offset="1" stop-color="#85F0FF" stop-opacity="0"/>
</radialGradient>
<radialGradient id="paint7_radial_1523_17889" cx="0" cy="0" r="1" gradientUnits="userSpaceOnUse" gradientTransform="translate(43.0651 128.456) rotate(-93.0011) scale(17.81 117.325)">
<stop stop-color="#B9C4FF"/>
<stop offset="1" stop-color="#85F0FF" stop-opacity="0"/>
</radialGradient>
<radialGradient id="paint8_radial_1523_17889" cx="0" cy="0" r="1" gradientUnits="userSpaceOnUse" gradientTransform="translate(362.893 131.652) rotate(-93.0012) scale(17.81 117.326)">
<stop stop-color="#B9C4FF"/>
<stop offset="1" stop-color="#85F0FF" stop-opacity="0"/>
</radialGradient>
<radialGradient id="paint9_radial_1523_17889" cx="0" cy="0" r="1" gradientUnits="userSpaceOnUse" gradientTransform="translate(64.9777 140.628) rotate(-93.0011) scale(17.81 117.325)">
<stop stop-color="#B9C4FF"/>
<stop offset="1" stop-color="#85F0FF" stop-opacity="0"/>
</radialGradient>
<radialGradient id="paint10_radial_1523_17889" cx="0" cy="0" r="1" gradientUnits="userSpaceOnUse" gradientTransform="translate(307.179 155.601) rotate(-93.0012) scale(17.81 117.326)">
<stop stop-color="#B9C4FF"/>
<stop offset="1" stop-color="#85F0FF" stop-opacity="0"/>
</radialGradient>
<radialGradient id="paint11_radial_1523_17889" cx="0" cy="0" r="1" gradientUnits="userSpaceOnUse" gradientTransform="translate(336.551 146.616) rotate(-93.0012) scale(17.81 117.326)">
<stop stop-color="#B9C4FF"/>
<stop offset="1" stop-color="#85F0FF" stop-opacity="0"/>
</radialGradient>
<radialGradient id="paint12_radial_1523_17889" cx="0" cy="0" r="1" gradientUnits="userSpaceOnUse" gradientTransform="translate(95.8863 152.166) rotate(-93.0012) scale(22.2626 146.657)">
<stop stop-color="#B9C4FF"/>
<stop offset="1" stop-color="#85F0FF" stop-opacity="0"/>
</radialGradient>
<radialGradient id="paint13_radial_1523_17889" cx="0" cy="0" r="1" gradientUnits="userSpaceOnUse" gradientTransform="translate(132.251 158.151) rotate(-93.0012) scale(22.2626 146.657)">
<stop stop-color="#B9C4FF"/>
<stop offset="1" stop-color="#85F0FF" stop-opacity="0"/>
</radialGradient>
<radialGradient id="paint14_radial_1523_17889" cx="0" cy="0" r="1" gradientUnits="userSpaceOnUse" gradientTransform="translate(176.307 163.538) rotate(-93.0011) scale(22.2626 146.657)">
<stop stop-color="#B9C4FF"/>
<stop offset="1" stop-color="#85F0FF" stop-opacity="0"/>
</radialGradient>
<radialGradient id="paint15_radial_1523_17889" cx="0" cy="0" r="1" gradientUnits="userSpaceOnUse" gradientTransform="translate(220.366 164.733) rotate(-93.0011) scale(22.2626 146.657)">
<stop stop-color="#B9C4FF"/>
<stop offset="1" stop-color="#85F0FF" stop-opacity="0"/>
</radialGradient>
<radialGradient id="paint16_radial_1523_17889" cx="0" cy="0" r="1" gradientUnits="userSpaceOnUse" gradientTransform="translate(264.424 163.538) rotate(-93.0011) scale(22.2626 146.657)">
<stop stop-color="#B9C4FF"/>
<stop offset="1" stop-color="#85F0FF" stop-opacity="0"/>
</radialGradient>
<radialGradient id="paint17_radial_1523_17889" cx="0" cy="0" r="1" gradientUnits="userSpaceOnUse" gradientTransform="translate(16.4012 51.7866) rotate(90) scale(32.203 56.4591)">
<stop stop-color="#0052FF" stop-opacity="0.383332"/>
<stop offset="1" stop-color="#00AFE7" stop-opacity="0"/>
</radialGradient>
<radialGradient id="paint18_radial_1523_17889" cx="0" cy="0" r="1" gradientUnits="userSpaceOnUse" gradientTransform="translate(61.3529 94.6804) rotate(-93.6829) scale(36.2916 293.11)">
<stop stop-color="#B9C4FF"/>
<stop offset="1" stop-color="#85F0FF" stop-opacity="0"/>
</radialGradient>
<radialGradient id="paint19_radial_1523_17889" cx="0" cy="0" r="1" gradientUnits="userSpaceOnUse" gradientTransform="translate(37.9014 63.7991) rotate(90) scale(32.203 90.465)">
<stop stop-color="#0052FF" stop-opacity="0.383332"/>
<stop offset="1" stop-color="#00AFE7" stop-opacity="0"/>
</radialGradient>
<radialGradient id="paint20_radial_1523_17889" cx="0" cy="0" r="1" gradientUnits="userSpaceOnUse" gradientTransform="translate(89.7933 120.821) rotate(-93.6829) scale(36.2916 293.11)">
<stop stop-color="#B9C4FF"/>
<stop offset="1" stop-color="#85F0FF" stop-opacity="0"/>
</radialGradient>
<radialGradient id="paint21_radial_1523_17889" cx="0" cy="0" r="1" gradientUnits="userSpaceOnUse" gradientTransform="translate(296.945 47.6303) rotate(90) scale(32.203 55.9838)">
<stop stop-color="#0052FF" stop-opacity="0.383332"/>
<stop offset="1" stop-color="#00AFE7" stop-opacity="0"/>
</radialGradient>
<radialGradient id="paint22_radial_1523_17889" cx="0" cy="0" r="1" gradientUnits="userSpaceOnUse" gradientTransform="translate(341.784 90.2859) rotate(-93.6829) scale(36.2916 293.109)">
<stop stop-color="#B9C4FF"/>
<stop offset="1" stop-color="#85F0FF" stop-opacity="0"/>
</radialGradient>
<radialGradient id="paint23_radial_1523_17889" cx="0" cy="0" r="1" gradientUnits="userSpaceOnUse" gradientTransform="translate(274.276 60.4085) rotate(90) scale(32.203 90.465)">
<stop stop-color="#0052FF" stop-opacity="0.383332"/>
<stop offset="1" stop-color="#00AFE7" stop-opacity="0"/>
</radialGradient>
<radialGradient id="paint24_radial_1523_17889" cx="0" cy="0" r="1" gradientUnits="userSpaceOnUse" gradientTransform="translate(326.165 117.43) rotate(-93.6829) scale(36.2916 293.109)">
<stop stop-color="#B9C4FF"/>
<stop offset="1" stop-color="#85F0FF" stop-opacity="0"/>
</radialGradient>
<radialGradient id="paint25_radial_1523_17889" cx="0" cy="0" r="1" gradientUnits="userSpaceOnUse" gradientTransform="translate(208.368 77.1982) rotate(-1.69228) scale(111.475 39.1548)">
<stop offset="0.00512035" stop-color="#001129"/>
<stop offset="1" stop-color="#0075FE"/>
</radialGradient>
<linearGradient id="paint26_linear_1523_17889" x1="333.746" y1="73.3834" x2="88.496" y2="84.117" gradientUnits="userSpaceOnUse">
<stop stop-color="#F0FAFF"/>
<stop offset="0.502749" stop-color="#3DB6FF"/>
<stop offset="1" stop-color="#DDF3FE"/>
</linearGradient>
<linearGradient id="paint27_linear_1523_17889" x1="205.101" y1="48.8421" x2="205.101" y2="91.5327" gradientUnits="userSpaceOnUse">
<stop stop-color="#AEF2FA" stop-opacity="0.0644668"/>
<stop offset="1" stop-color="#76E0F2"/>
</linearGradient>
<linearGradient id="paint28_linear_1523_17889" x1="204.173" y1="52.283" x2="204.173" y2="85.6795" gradientUnits="userSpaceOnUse">
<stop stop-color="#AEF2FA" stop-opacity="0.0644668"/>
<stop offset="1" stop-color="#76E0F2"/>
</linearGradient>
<linearGradient id="paint29_linear_1523_17889" x1="386.175" y1="68.0953" x2="91.0986" y2="68.0953" gradientUnits="userSpaceOnUse">
<stop stop-color="#3DB6FF"/>
<stop offset="0.588542" stop-color="#F0FAFF"/>
<stop offset="1" stop-color="#2EB7FC"/>
</linearGradient>
<linearGradient id="paint30_linear_1523_17889" x1="203.481" y1="64.6651" x2="203.481" y2="79.545" gradientUnits="userSpaceOnUse">
<stop stop-color="#AEF2FA" stop-opacity="0.0644668"/>
<stop offset="1" stop-color="#76E0F2"/>
</linearGradient>
<linearGradient id="paint31_linear_1523_17889" x1="203.502" y1="55.6172" x2="203.502" y2="75.1261" gradientUnits="userSpaceOnUse">
<stop stop-color="white"/>
<stop offset="1" stop-color="#76E0F2"/>
</linearGradient>
<radialGradient id="paint32_radial_1523_17889" cx="0" cy="0" r="1" gradientUnits="userSpaceOnUse" gradientTransform="translate(-206.293 74.1392) rotate(90) scale(30.9253 13.2956)">
<stop stop-color="white"/>
<stop offset="1" stop-color="#C8EFFD"/>
</radialGradient>
<linearGradient id="paint33_linear_1523_17889" x1="203.527" y1="55.6641" x2="203.527" y2="71.9226" gradientUnits="userSpaceOnUse">
<stop stop-color="white"/>
<stop offset="1" stop-color="#76E0F2"/>
</linearGradient>
</defs>
</svg>
