<svg width="1063" height="793" viewBox="0 0 1063 793" fill="none" xmlns="http://www.w3.org/2000/svg">
<path opacity="0.7" d="M171.961 211.512C171.961 212.447 171.492 212.915 170.556 212.915C169.62 212.915 169.152 212.447 169.152 211.512C169.152 210.577 169.62 210.109 170.556 210.109C171.024 210.109 171.961 210.577 171.961 211.512Z" fill="white"/>
<path opacity="0.7" d="M229.532 211.509C229.532 211.977 229.064 212.444 228.596 212.444C228.128 212.444 227.66 211.977 227.66 211.509C227.66 211.042 228.128 210.574 228.596 210.574C229.064 210.107 229.532 210.574 229.532 211.509Z" fill="white"/>
<path opacity="0.7" d="M115.793 286.783C115.793 287.25 115.325 287.718 114.857 287.718C114.389 287.718 113.921 287.25 113.921 286.783C113.921 286.315 114.389 285.848 114.857 285.848C115.325 285.848 115.793 286.315 115.793 286.783Z" fill="white"/>
<path opacity="0.7" d="M764.537 229.744C764.537 230.211 764.068 230.679 763.6 230.679C763.132 230.679 762.664 230.211 762.664 229.744C762.664 229.276 763.132 228.809 763.6 228.809C764.068 228.809 764.537 229.276 764.537 229.744Z" fill="white"/>
<path opacity="0.7" d="M241.705 155.873C241.705 156.34 241.237 156.808 240.768 156.808C240.3 156.808 239.832 156.34 239.832 155.873C239.832 155.405 240.3 154.938 240.768 154.938C241.237 154.938 241.705 155.405 241.705 155.873Z" fill="white"/>
<path opacity="0.7" d="M239.831 187.197C239.831 187.664 239.363 188.132 238.895 188.132C238.427 188.132 237.958 187.664 237.958 187.197C237.958 186.729 238.427 186.262 238.895 186.262C239.363 186.262 239.831 186.729 239.831 187.197Z" fill="white"/>
<path opacity="0.7" d="M282.426 24.0276C282.426 24.9627 281.958 25.4302 281.022 25.4302C280.086 25.4302 279.618 24.9627 279.618 24.0276C279.618 23.0925 280.086 22.625 281.022 22.625C281.958 22.625 282.426 23.5601 282.426 24.0276Z" fill="white"/>
<path opacity="0.7" d="M287.573 244.237C287.573 245.172 286.637 246.107 285.7 246.107C284.764 246.107 283.828 245.172 283.828 244.237C283.828 243.302 284.764 242.367 285.7 242.367C287.105 242.367 287.573 243.302 287.573 244.237Z" fill="white"/>
<path opacity="0.7" d="M204.728 10.003C204.728 10.938 203.792 11.8731 202.856 11.8731C201.92 11.8731 200.984 10.938 200.984 10.003C200.984 9.06789 201.92 8.13281 202.856 8.13281C203.792 8.13281 204.728 8.60035 204.728 10.003Z" fill="white"/>
<path opacity="0.7" d="M49.3286 165.226C49.3286 166.161 48.3925 167.096 47.4564 167.096C46.5202 167.096 45.5841 166.161 45.5841 165.226C45.5841 164.291 46.5202 163.355 47.4564 163.355C48.3925 163.355 49.3286 164.291 49.3286 165.226Z" fill="white"/>
<path opacity="0.7" d="M22.6485 312.499C22.6485 313.434 21.7123 314.369 20.7762 314.369C19.8401 314.369 18.9039 313.434 18.9039 312.499C18.9039 311.564 19.8401 310.629 20.7762 310.629C22.1804 310.629 22.6485 311.564 22.6485 312.499Z" fill="white"/>
<path opacity="0.7" d="M113.922 175.511C113.922 176.446 112.985 177.381 112.049 177.381C111.113 177.381 110.177 176.446 110.177 175.511C110.177 174.576 111.113 173.641 112.049 173.641C112.985 173.641 113.922 174.576 113.922 175.511Z" fill="white"/>
<path opacity="0.7" d="M72.7328 301.278C72.7328 302.213 72.2648 302.68 71.3286 302.68C70.3925 302.68 69.9244 302.213 69.9244 301.278C69.9244 300.343 70.3925 299.875 71.3286 299.875C72.2648 299.875 72.7328 300.343 72.7328 301.278Z" fill="white"/>
<path opacity="0.7" d="M97.5401 114.262C97.5401 115.197 97.072 115.665 96.1359 115.665C95.1998 115.665 94.7317 115.197 94.7317 114.262C94.7317 113.327 95.1998 112.859 96.1359 112.859C97.072 112.859 97.5401 113.794 97.5401 114.262Z" fill="white"/>
<path opacity="0.7" d="M49.7971 1.1185C49.7971 1.58604 49.329 2.05357 48.8609 2.05357C48.3929 2.05357 47.9248 1.58604 47.9248 1.1185C47.9248 0.650959 48.3929 0.183417 48.8609 0.183417C49.329 -0.284121 49.7971 0.18342 49.7971 1.1185Z" fill="white"/>
<path opacity="0.7" d="M597.902 77.3257C597.902 77.7932 597.434 78.2608 596.966 78.2608C596.498 78.2608 596.03 77.7932 596.03 77.3257C596.03 76.8582 596.498 76.3906 596.966 76.3906C597.434 76.3906 597.902 76.3906 597.902 77.3257Z" fill="white"/>
<path opacity="0.7" d="M170.091 60.4976C170.091 60.9651 169.623 61.4327 169.155 61.4327C168.687 61.4327 168.219 60.9651 168.219 60.4976C168.219 60.03 168.687 59.5625 169.155 59.5625C169.623 59.5625 170.091 60.03 170.091 60.4976Z" fill="white"/>
<path opacity="0.7" d="M477.142 331.205C477.142 331.672 476.673 332.14 476.205 332.14C475.737 332.14 475.269 331.672 475.269 331.205C475.269 330.737 475.737 330.27 476.205 330.27C476.673 330.27 477.142 330.737 477.142 331.205Z" fill="white"/>
<path opacity="0.7" d="M211.28 116.599C211.28 117.067 210.812 117.534 210.344 117.534C209.876 117.534 209.408 117.067 209.408 116.599C209.408 116.132 209.876 115.664 210.344 115.664C210.812 115.664 211.28 116.132 211.28 116.599Z" fill="white"/>
<path opacity="0.7" d="M135.919 324.654C135.919 325.121 135.451 325.589 134.983 325.589C134.515 325.589 134.047 325.121 134.047 324.654C134.047 324.186 134.515 323.719 134.983 323.719C135.451 323.719 135.919 324.186 135.919 324.654Z" fill="white"/>
<path opacity="0.7" d="M145.749 21.6905C145.749 22.6256 144.813 23.5606 143.877 23.5606C142.941 23.5606 142.005 22.6256 142.005 21.6905C142.005 20.7554 142.941 19.8203 143.877 19.8203C144.813 19.8203 145.749 20.7554 145.749 21.6905Z" fill="white"/>
<path opacity="0.7" d="M547.35 65.1709C547.35 66.106 546.414 67.0411 545.478 67.0411C544.542 67.0411 543.606 66.106 543.606 65.1709C543.606 64.2358 544.542 63.3008 545.478 63.3008C546.882 63.3008 547.35 63.7683 547.35 65.1709Z" fill="white"/>
<path opacity="0.7" d="M24.053 285.848C24.053 286.783 23.585 287.251 22.6488 287.251C21.7127 287.251 21.2446 286.783 21.2446 285.848C21.2446 284.913 21.7127 284.445 22.6488 284.445C23.585 284.445 24.053 284.913 24.053 285.848Z" fill="white"/>
<path opacity="0.7" d="M240.768 284.446C240.768 285.848 239.364 287.251 237.96 287.251C236.556 287.251 235.152 285.848 235.152 284.446C235.152 283.043 236.556 281.641 237.96 281.641C239.364 282.108 240.768 283.043 240.768 284.446Z" fill="white"/>
<path opacity="0.7" d="M156.982 236.29C156.982 236.758 156.514 237.225 156.046 237.225C155.578 237.225 155.11 236.758 155.11 236.29C155.11 235.823 155.578 235.355 156.046 235.355C156.514 234.888 156.982 235.355 156.982 236.29Z" fill="white"/>
<path opacity="0.7" d="M214.557 314.369C214.557 314.836 214.089 315.304 213.621 315.304C213.153 315.304 212.685 314.836 212.685 314.369C212.685 313.901 213.153 313.434 213.621 313.434C214.089 313.434 214.557 313.901 214.557 314.369Z" fill="white"/>
<path opacity="0.7" d="M666.708 208.236C666.708 208.703 666.24 209.171 665.772 209.171C665.304 209.171 664.836 208.703 664.836 208.236C664.836 207.768 665.304 207.301 665.772 207.301C666.24 207.301 666.708 207.768 666.708 208.236Z" fill="white"/>
<path opacity="0.7" d="M694.793 309.693C694.793 310.16 694.325 310.628 693.857 310.628C693.388 310.628 692.92 310.16 692.92 309.693C692.92 309.225 693.388 308.758 693.857 308.758C694.325 308.758 694.793 309.225 694.793 309.693Z" fill="white"/>
<path opacity="0.7" d="M553.436 303.615C553.436 304.082 552.968 304.55 552.499 304.55C552.031 304.55 551.563 304.082 551.563 303.615C551.563 303.147 552.031 302.68 552.499 302.68C552.968 302.68 553.436 303.147 553.436 303.615Z" fill="white"/>
<path opacity="0.7" d="M750.494 262.939C750.494 263.406 750.026 263.874 749.558 263.874C749.09 263.874 748.622 263.406 748.622 262.939C748.622 262.471 749.09 262.004 749.558 262.004C750.026 261.536 750.494 262.004 750.494 262.939Z" fill="white"/>
<path opacity="0.7" d="M670.455 270.886C670.455 271.821 669.519 272.756 668.583 272.756C667.647 272.756 666.71 271.821 666.71 270.886C666.71 269.951 667.647 269.016 668.583 269.016C669.519 269.016 670.455 269.951 670.455 270.886Z" fill="white"/>
<path opacity="0.7" d="M638.623 175.511C638.623 176.446 637.687 177.381 636.751 177.381C635.815 177.381 634.879 176.446 634.879 175.511C634.879 174.576 635.815 173.641 636.751 173.641C637.687 173.641 638.623 174.576 638.623 175.511Z" fill="white"/>
<path opacity="0.7" d="M669.986 319.978C669.986 320.446 669.518 320.913 669.05 320.913C668.582 320.913 668.114 320.446 668.114 319.978C668.114 319.511 668.582 319.043 669.05 319.043C669.518 319.043 669.986 319.511 669.986 319.978Z" fill="white"/>
<path opacity="0.7" d="M694.793 60.4976C694.793 60.9651 694.325 61.4327 693.857 61.4327C693.388 61.4327 692.92 60.9651 692.92 60.4976C692.92 60.03 693.388 59.5625 693.857 59.5625C694.325 59.5625 694.793 60.03 694.793 60.4976Z" fill="white"/>
<path opacity="0.7" d="M689.175 122.212C689.175 122.68 688.707 123.148 688.239 123.148C687.771 123.148 687.303 122.68 687.303 122.212C687.303 121.745 687.771 121.277 688.239 121.277C688.707 121.277 689.175 121.745 689.175 122.212Z" fill="white"/>
<path opacity="0.7" d="M640.498 38.0521C640.498 38.5196 640.03 38.9871 639.562 38.9871C639.094 38.9871 638.626 38.5196 638.626 38.0521C638.626 37.5845 639.094 37.117 639.562 37.117C640.03 36.6495 640.498 37.117 640.498 38.0521Z" fill="white"/>
<path opacity="0.7" d="M670.455 21.6905C670.455 22.6256 669.519 23.5606 668.583 23.5606C667.647 23.5606 666.71 22.6256 666.71 21.6905C666.71 20.7554 667.647 19.8203 668.583 19.8203C669.519 19.8203 670.455 20.7554 670.455 21.6905Z" fill="white"/>
<path opacity="0.7" d="M591.816 162.417C591.816 163.352 590.88 164.287 589.944 164.287C589.008 164.287 588.072 163.352 588.072 162.417C588.072 161.482 589.008 160.547 589.944 160.547C590.88 160.547 591.816 161.482 591.816 162.417Z" fill="white"/>
<path opacity="0.7" d="M567.477 235.353C567.477 235.821 567.009 236.288 566.541 236.288C566.073 236.288 565.605 235.821 565.605 235.353C565.605 234.885 566.073 234.418 566.541 234.418C567.009 234.418 567.477 234.885 567.477 235.353Z" fill="white"/>
<path opacity="0.7" d="M54.4773 322.317C54.4773 323.252 54.0093 323.719 53.0731 323.719C52.137 323.719 51.6689 323.252 51.6689 322.317C51.6689 321.382 52.137 320.914 53.0731 320.914C54.0093 320.914 54.4773 321.382 54.4773 322.317Z" fill="white"/>
<path opacity="0.7" d="M423.315 212.446C423.315 213.848 421.91 215.251 420.506 215.251C419.102 215.251 417.698 213.848 417.698 212.446C417.698 211.043 419.102 209.641 420.506 209.641C421.91 210.108 423.315 211.043 423.315 212.446Z" fill="white"/>
<path opacity="0.7" d="M390.549 208.236C390.549 208.703 390.081 209.171 389.613 209.171C389.145 209.171 388.677 208.703 388.677 208.236C388.677 207.768 389.145 207.301 389.613 207.301C390.081 207.301 390.549 207.768 390.549 208.236Z" fill="white"/>
<path opacity="0.7" d="M332.978 96.9622C332.978 97.4298 332.509 97.8973 332.041 97.8973C331.573 97.8973 331.105 97.4298 331.105 96.9622C331.105 96.4947 331.573 96.0272 332.041 96.0272C332.509 95.5596 332.978 96.0272 332.978 96.9622Z" fill="white"/>
<path opacity="0.7" d="M419.1 309.693C419.1 310.16 418.632 310.628 418.164 310.628C417.696 310.628 417.228 310.16 417.228 309.693C417.228 309.225 417.696 308.758 418.164 308.758C418.632 308.758 419.1 309.225 419.1 309.693Z" fill="white"/>
<path opacity="0.7" d="M364.805 286.783C364.805 287.25 364.337 287.718 363.869 287.718C363.401 287.718 362.933 287.25 362.933 286.783C362.933 286.315 363.401 285.848 363.869 285.848C364.337 285.848 364.805 286.315 364.805 286.783Z" fill="white"/>
<path opacity="0.7" d="M488.844 325.123C488.844 325.59 488.376 326.058 487.907 326.058C487.439 326.058 486.971 325.59 486.971 325.123C486.971 324.655 487.439 324.188 487.907 324.188C488.376 324.188 488.844 324.655 488.844 325.123Z" fill="white"/>
<path opacity="0.7" d="M339.529 264.341C339.529 264.809 339.061 265.276 338.593 265.276C338.125 265.276 337.656 264.809 337.656 264.341C337.656 263.874 338.125 263.406 338.593 263.406C339.061 262.939 339.529 263.406 339.529 264.341Z" fill="white"/>
<path opacity="0.7" d="M488.844 187.197C488.844 187.664 488.376 188.132 487.907 188.132C487.439 188.132 486.971 187.664 486.971 187.197C486.971 186.729 487.439 186.262 487.907 186.262C488.376 186.262 488.844 186.729 488.844 187.197Z" fill="white"/>
<path opacity="0.7" d="M383.528 162.419C383.528 162.887 383.06 163.355 382.592 163.355C382.124 163.355 381.656 162.887 381.656 162.419C381.656 161.952 382.124 161.484 382.592 161.484C383.06 161.484 383.528 161.952 383.528 162.419Z" fill="white"/>
<path opacity="0.7" d="M267.917 212.444C267.917 213.379 266.981 214.314 266.045 214.314C265.109 214.314 264.173 213.379 264.173 212.444C264.173 211.509 265.109 210.574 266.045 210.574C266.981 210.574 267.917 211.509 267.917 212.444Z" fill="white"/>
<path opacity="0.7" d="M287.107 187.198C287.107 188.133 286.17 189.068 285.234 189.068C284.298 189.068 283.362 188.133 283.362 187.198C283.362 186.263 284.298 185.328 285.234 185.328C286.17 185.328 287.107 186.263 287.107 187.198Z" fill="white"/>
<path opacity="0.7" d="M271.661 312.499C271.661 313.434 270.725 314.369 269.789 314.369C268.853 314.369 267.917 313.434 267.917 312.499C267.917 311.564 268.853 310.629 269.789 310.629C270.725 310.629 271.661 311.564 271.661 312.499Z" fill="white"/>
<path opacity="0.7" d="M362.463 175.511C362.463 176.446 361.527 177.381 360.591 177.381C359.655 177.381 358.719 176.446 358.719 175.511C358.719 174.576 359.655 173.641 360.591 173.641C361.527 173.641 362.463 174.576 362.463 175.511Z" fill="white"/>
<path opacity="0.7" d="M321.742 301.278C321.742 302.213 321.273 302.68 320.337 302.68C319.401 302.68 318.933 302.213 318.933 301.278C318.933 300.343 319.401 299.875 320.337 299.875C321.273 299.875 321.742 300.343 321.742 301.278Z" fill="white"/>
<path opacity="0.7" d="M457.949 247.508C457.949 248.911 456.545 250.314 455.141 250.314C453.737 250.314 452.332 248.911 452.332 247.508C452.332 246.106 453.737 244.703 455.141 244.703C457.013 244.703 457.949 245.638 457.949 247.508Z" fill="white"/>
<path opacity="0.7" d="M324.553 152.133C324.553 153.068 324.084 153.536 323.148 153.536C322.212 153.536 321.744 153.068 321.744 152.133C321.744 151.198 322.212 150.73 323.148 150.73C323.616 150.73 324.553 151.198 324.553 152.133Z" fill="white"/>
<path opacity="0.7" d="M298.81 1.1185C298.81 1.58604 298.342 2.05357 297.874 2.05357C297.406 2.05357 296.938 1.58604 296.938 1.1185C296.938 0.650959 297.406 0.183417 297.874 0.183417C298.342 -0.284121 298.81 0.18342 298.81 1.1185Z" fill="white"/>
<path opacity="0.7" d="M299.742 97.8999C299.742 98.3675 299.274 98.835 298.806 98.835C298.338 98.835 297.87 98.3675 297.87 97.8999C297.87 97.4324 298.338 96.9648 298.806 96.9648C299.274 96.9648 299.742 97.4324 299.742 97.8999Z" fill="white"/>
<path opacity="0.7" d="M419.1 60.4976C419.1 60.9651 418.632 61.4327 418.164 61.4327C417.696 61.4327 417.228 60.9651 417.228 60.4976C417.228 60.03 417.696 59.5625 418.164 59.5625C418.632 59.5625 419.1 60.03 419.1 60.4976Z" fill="white"/>
<path opacity="0.7" d="M413.486 122.212C413.486 122.68 413.018 123.148 412.55 123.148C412.082 123.148 411.614 122.68 411.614 122.212C411.614 121.745 412.082 121.277 412.55 121.277C413.018 121.277 413.486 121.745 413.486 122.212Z" fill="white"/>
<path opacity="0.7" d="M364.805 38.0521C364.805 38.5196 364.337 38.9871 363.869 38.9871C363.401 38.9871 362.933 38.5196 362.933 38.0521C362.933 37.5845 363.401 37.117 363.869 37.117C364.337 36.6495 364.805 37.117 364.805 38.0521Z" fill="white"/>
<path opacity="0.7" d="M459.357 117.534C459.874 117.534 460.293 117.116 460.293 116.599C460.293 116.083 459.874 115.664 459.357 115.664C458.84 115.664 458.421 116.083 458.421 116.599C458.421 117.116 458.84 117.534 459.357 117.534Z" fill="white"/>
<path opacity="0.7" d="M339.999 15.146C339.999 15.6135 339.531 16.081 339.063 16.081C338.595 16.081 338.127 15.6135 338.127 15.146C338.127 14.6785 338.595 14.2109 339.063 14.2109C339.531 14.2109 339.999 14.6785 339.999 15.146Z" fill="white"/>
<path opacity="0.7" d="M26.8614 4.39116C26.8614 5.79377 25.4572 7.19638 24.053 7.19638C22.6488 7.19638 21.2446 5.79377 21.2446 4.39116C21.2446 2.98854 22.6488 1.58594 24.053 1.58594C25.9253 1.58594 26.8614 2.98854 26.8614 4.39116Z" fill="white"/>
<path opacity="0.7" d="M394.295 21.6905C394.295 22.6256 393.359 23.5606 392.423 23.5606C391.487 23.5606 390.551 22.6256 390.551 21.6905C390.551 20.7554 391.487 19.8203 392.423 19.8203C393.359 19.8203 394.295 20.7554 394.295 21.6905Z" fill="white"/>
<path opacity="0.7" d="M378.38 120.339C378.38 121.274 377.443 122.209 376.507 122.209C375.571 122.209 374.635 121.274 374.635 120.339C374.635 119.404 375.571 118.469 376.507 118.469C377.912 118.469 378.38 119.404 378.38 120.339Z" fill="white"/>
<path opacity="0.7" d="M347.018 95.5615C347.018 96.4966 346.082 97.4317 345.146 97.4317C344.21 97.4317 343.273 96.4966 343.273 95.5615C343.273 94.6265 344.21 93.6914 345.146 93.6914C346.55 93.6914 347.018 94.1589 347.018 95.5615Z" fill="white"/>
<path opacity="0.7" d="M271.661 63.7686C271.661 64.7037 270.725 65.6388 269.789 65.6388C268.853 65.6388 267.917 64.7037 267.917 63.7686C267.917 62.8335 268.853 61.8984 269.789 61.8984C270.725 61.8984 271.661 62.366 271.661 63.7686Z" fill="white"/>
<path opacity="0.7" d="M321.742 52.0784C321.742 53.0135 321.273 53.481 320.337 53.481C319.401 53.481 318.933 53.0135 318.933 52.0784C318.933 51.1433 319.401 50.6758 320.337 50.6758C321.273 50.6758 321.742 51.6109 321.742 52.0784Z" fill="white"/>
<path opacity="0.7" d="M297.871 118.938C297.871 119.873 297.403 120.34 296.467 120.34C295.531 120.34 295.063 119.873 295.063 118.938C295.063 118.003 295.531 117.535 296.467 117.535C296.935 117.535 297.871 118.003 297.871 118.938Z" fill="white"/>
<path opacity="0.7" d="M381.657 87.1448C381.657 88.0799 381.189 88.5474 380.253 88.5474C379.317 88.5474 378.849 88.0799 378.849 87.1448C378.849 86.2097 379.317 85.7422 380.253 85.7422C380.721 85.7422 381.657 86.2097 381.657 87.1448Z" fill="white"/>
<path opacity="0.7" d="M266.042 112.86C266.042 114.263 264.638 115.665 263.234 115.665C261.829 115.665 260.425 114.263 260.425 112.86C260.425 111.457 261.829 110.055 263.234 110.055C265.106 110.055 266.042 111.457 266.042 112.86Z" fill="white"/>
<path opacity="0.7" d="M403.655 272.755C403.655 273.223 403.186 273.69 402.718 273.69C402.25 273.69 401.782 273.223 401.782 272.755C401.782 272.288 402.25 271.82 402.718 271.82C403.186 271.82 403.655 272.288 403.655 272.755Z" fill="white"/>
<path opacity="0.7" d="M303.019 322.317C303.019 323.252 302.551 323.719 301.615 323.719C300.679 323.719 300.211 323.252 300.211 322.317C300.211 321.382 300.679 320.914 301.615 320.914C302.551 320.914 303.019 321.382 303.019 322.317Z" fill="white"/>
<path opacity="0.7" d="M444.844 42.2632C444.844 42.7307 444.376 43.1983 443.907 43.1983C443.439 43.1983 442.971 42.7307 442.971 42.2632C442.971 41.7957 443.439 41.3281 443.907 41.3281C444.376 41.3281 444.844 41.7957 444.844 42.2632Z" fill="white"/>
<path opacity="0.7" d="M433.613 157.743C433.613 159.145 432.209 160.548 430.805 160.548C429.4 160.548 427.996 159.145 427.996 157.743C427.996 156.34 429.4 154.938 430.805 154.938C432.209 154.938 433.613 156.34 433.613 157.743Z" fill="white"/>
<path opacity="0.7" d="M459.824 114.73C459.824 115.665 458.888 116.6 457.952 116.6C457.016 116.6 456.08 115.665 456.08 114.73C456.08 113.794 457.016 112.859 457.952 112.859C459.356 112.859 459.824 113.794 459.824 114.73Z" fill="white"/>
<path opacity="0.7" d="M492.119 42.2608C492.119 43.1959 491.183 44.1309 490.247 44.1309C489.311 44.1309 488.375 43.1959 488.375 42.2608C488.375 41.3257 489.311 40.3906 490.247 40.3906C491.651 40.3906 492.119 41.3257 492.119 42.2608Z" fill="white"/>
<path opacity="0.7" d="M476.673 168.03C476.673 168.965 475.737 169.9 474.801 169.9C473.865 169.9 472.929 168.965 472.929 168.03C472.929 167.095 473.865 166.16 474.801 166.16C475.737 166.16 476.673 167.095 476.673 168.03Z" fill="white"/>
<path opacity="0.7" d="M508.502 177.379C508.502 178.314 508.034 178.782 507.098 178.782C506.162 178.782 505.694 178.314 505.694 177.379C505.694 176.444 506.162 175.977 507.098 175.977C507.566 175.977 508.502 176.912 508.502 177.379Z" fill="white"/>
<path opacity="0.7" d="M644.71 123.146C644.71 122.678 645.178 122.211 645.646 122.211C646.114 122.211 646.582 122.678 646.582 123.146C646.582 123.614 646.114 124.081 645.646 124.081C645.178 124.549 644.71 124.081 644.71 123.146Z" fill="white"/>
<path opacity="0.7" d="M616.626 21.689C616.626 21.2214 617.095 20.7539 617.563 20.7539C618.031 20.7539 618.499 21.2214 618.499 21.689C618.499 22.1565 618.031 22.6241 617.563 22.6241C617.095 22.6241 616.626 22.6241 616.626 21.689Z" fill="white"/>
<path opacity="0.7" d="M546.417 144.654C546.417 144.186 546.885 143.719 547.353 143.719C547.821 143.719 548.289 144.186 548.289 144.654C548.289 145.121 547.821 145.589 547.353 145.589C546.885 145.589 546.417 145.121 546.417 144.654Z" fill="white"/>
<path opacity="0.7" d="M558.118 29.1724C558.118 27.7698 559.522 26.3672 560.926 26.3672C562.33 26.3672 563.734 27.7698 563.734 29.1724C563.734 30.575 562.33 31.9776 560.926 31.9776C559.522 31.9776 558.118 30.575 558.118 29.1724Z" fill="white"/>
<path opacity="0.7" d="M640.967 60.9639C640.967 60.0288 641.903 59.0938 642.839 59.0938C643.775 59.0938 644.711 60.0288 644.711 60.9639C644.711 61.899 643.775 62.834 642.839 62.834C641.903 62.834 640.967 61.899 640.967 60.9639Z" fill="white"/>
<path opacity="0.7" d="M622.243 209.638C622.243 209.171 622.712 208.703 623.18 208.703C623.648 208.703 624.116 209.171 624.116 209.638C624.116 210.106 623.648 210.573 623.18 210.573C622.712 210.573 622.243 210.106 622.243 209.638Z" fill="white"/>
<path opacity="0.7" d="M640.967 309.694C640.967 308.759 641.903 307.824 642.839 307.824C643.775 307.824 644.711 308.759 644.711 309.694C644.711 310.629 643.775 311.565 642.839 311.565C641.903 311.565 640.967 311.097 640.967 309.694Z" fill="white"/>
<path opacity="0.7" d="M208.004 47.4038C208.004 46.9363 208.472 46.4688 208.941 46.4688C209.409 46.4688 209.877 46.9363 209.877 47.4038C209.877 47.8714 209.409 48.3389 208.941 48.3389C208.472 48.3389 208.004 47.8714 208.004 47.4038Z" fill="white"/>
<path opacity="0.7" d="M560.458 81.0655C560.458 80.1304 561.394 79.1953 562.331 79.1953C563.267 79.1953 564.203 80.1304 564.203 81.0655C564.203 82.0005 563.267 82.9356 562.331 82.9356C561.394 82.9356 560.458 82.0005 560.458 81.0655Z" fill="white"/>
<path opacity="0.7" d="M515.055 18.8858C515.055 17.9507 515.991 17.0156 516.927 17.0156C517.863 17.0156 518.799 17.9507 518.799 18.8858C518.799 19.8209 517.863 20.7559 516.927 20.7559C515.991 20.7559 515.055 19.8209 515.055 18.8858Z" fill="white"/>
<path opacity="0.7" d="M515.055 268.081C515.055 267.146 515.991 266.211 516.927 266.211C517.863 266.211 518.799 267.146 518.799 268.081C518.799 269.016 517.863 269.951 516.927 269.951C515.523 269.951 515.055 269.016 515.055 268.081Z" fill="white"/>
<path opacity="0.7" d="M520.673 218.993C520.673 217.59 522.077 216.188 523.481 216.188C524.885 216.188 526.29 217.59 526.29 218.993C526.29 220.395 524.885 221.798 523.481 221.798C521.609 221.33 520.673 220.395 520.673 218.993Z" fill="white"/>
<path opacity="0.7" d="M869.38 211.512C869.38 212.447 868.912 212.915 867.976 212.915C867.04 212.915 866.572 212.447 866.572 211.512C866.572 210.577 867.04 210.109 867.976 210.109C868.444 210.109 869.38 210.577 869.38 211.512Z" fill="white"/>
<path opacity="0.7" d="M839.427 208.236C839.427 208.703 838.959 209.171 838.491 209.171C838.023 209.171 837.555 208.703 837.555 208.236C837.555 207.768 838.023 207.301 838.491 207.301C838.959 207.301 839.427 207.768 839.427 208.236Z" fill="white"/>
<path opacity="0.7" d="M926.953 211.509C926.953 211.977 926.485 212.444 926.017 212.444C925.549 212.444 925.081 211.977 925.081 211.509C925.081 211.042 925.549 210.574 926.017 210.574C926.485 210.107 926.953 210.574 926.953 211.509Z" fill="white"/>
<path opacity="0.7" d="M867.511 309.693C867.511 310.16 867.043 310.628 866.575 310.628C866.107 310.628 865.638 310.16 865.638 309.693C865.638 309.225 866.107 308.758 866.575 308.758C867.043 308.758 867.511 309.225 867.511 309.693Z" fill="white"/>
<path opacity="0.7" d="M131.239 68.4427C131.239 68.9102 130.771 69.3778 130.303 69.3778C129.835 69.3778 129.366 68.9102 129.366 68.4427C129.366 67.9752 129.835 67.5076 130.303 67.5076C130.771 67.0401 131.239 67.5076 131.239 68.4427Z" fill="white"/>
<path opacity="0.7" d="M1042.1 247.509C1042.1 247.977 1041.63 248.444 1041.16 248.444C1040.69 248.444 1040.23 247.977 1040.23 247.509C1040.23 247.042 1040.69 246.574 1041.16 246.574C1041.63 246.107 1042.1 246.574 1042.1 247.509Z" fill="white"/>
<path opacity="0.7" d="M937.25 187.197C937.25 187.664 936.782 188.132 936.314 188.132C935.846 188.132 935.378 187.664 935.378 187.197C935.378 186.729 935.846 186.262 936.314 186.262C936.782 186.262 937.25 186.729 937.25 187.197Z" fill="white"/>
<path opacity="0.7" d="M832.406 162.419C832.406 162.887 831.938 163.355 831.47 163.355C831.002 163.355 830.533 162.887 830.533 162.419C830.533 161.952 831.002 161.484 831.47 161.484C831.938 161.484 832.406 161.952 832.406 162.419Z" fill="white"/>
<path opacity="0.7" d="M815.086 225.067C815.086 226.002 814.618 226.469 813.681 226.469C812.745 226.469 812.277 226.002 812.277 225.067C812.277 224.132 812.745 223.664 813.681 223.664C814.15 223.664 815.086 224.132 815.086 225.067Z" fill="white"/>
<path opacity="0.7" d="M6.2645 45.5357C6.2645 46.9383 4.86031 48.3409 3.45611 48.3409C2.05191 48.3409 0.647705 46.9383 0.647705 45.5357C0.647705 44.1331 2.05191 42.7305 3.45611 42.7305C5.32837 43.198 6.2645 44.1331 6.2645 45.5357Z" fill="white"/>
<path opacity="0.7" d="M735.984 187.198C735.984 188.133 735.048 189.068 734.112 189.068C733.176 189.068 732.24 188.133 732.24 187.198C732.24 186.263 733.176 185.328 734.112 185.328C735.048 185.328 735.984 186.263 735.984 187.198Z" fill="white"/>
<path opacity="0.7" d="M811.341 175.511C811.341 176.446 810.405 177.381 809.469 177.381C808.533 177.381 807.597 176.446 807.597 175.511C807.597 174.576 808.533 173.641 809.469 173.641C810.405 173.641 811.341 174.576 811.341 175.511Z" fill="white"/>
<path opacity="0.7" d="M747.217 1.1185C747.217 1.58604 746.749 2.05357 746.28 2.05357C745.812 2.05357 745.344 1.58604 745.344 1.1185C745.344 0.650959 745.812 0.183417 746.28 0.183417C746.749 -0.284121 747.217 0.18342 747.217 1.1185Z" fill="white"/>
<path opacity="0.7" d="M941.931 43.6654C941.931 44.1329 941.463 44.6004 940.995 44.6004C940.527 44.6004 940.059 44.1329 940.059 43.6654C940.059 43.1978 940.527 42.7303 940.995 42.7303C941.463 42.2628 941.931 42.7303 941.931 43.6654Z" fill="white"/>
<path opacity="0.7" d="M867.511 60.4976C867.511 60.9651 867.043 61.4327 866.575 61.4327C866.107 61.4327 865.638 60.9651 865.638 60.4976C865.638 60.03 866.107 59.5625 866.575 59.5625C867.043 59.5625 867.511 60.03 867.511 60.4976Z" fill="white"/>
<path opacity="0.7" d="M861.894 122.212C861.894 122.68 861.426 123.148 860.957 123.148C860.489 123.148 860.021 122.68 860.021 122.212C860.021 121.745 860.489 121.277 860.957 121.277C861.426 121.277 861.894 121.745 861.894 122.212Z" fill="white"/>
<path opacity="0.7" d="M813.213 38.0521C813.213 38.5196 812.745 38.9871 812.277 38.9871C811.809 38.9871 811.341 38.5196 811.341 38.0521C811.341 37.5845 811.809 37.117 812.277 37.117C812.745 36.6495 813.213 37.117 813.213 38.0521Z" fill="white"/>
<path opacity="0.7" d="M908.7 116.599C908.7 117.067 908.232 117.534 907.764 117.534C907.296 117.534 906.828 117.067 906.828 116.599C906.828 116.132 907.296 115.664 907.764 115.664C908.232 115.664 908.7 116.132 908.7 116.599Z" fill="white"/>
<path opacity="0.7" d="M788.406 15.146C788.406 15.6135 787.938 16.081 787.47 16.081C787.002 16.081 786.534 15.6135 786.534 15.146C786.534 14.6785 787.002 14.2109 787.47 14.2109C787.938 14.2109 788.406 14.6785 788.406 15.146Z" fill="white"/>
<path opacity="0.7" d="M843.169 21.6905C843.169 22.6256 842.233 23.5606 841.297 23.5606C840.361 23.5606 839.424 22.6256 839.424 21.6905C839.424 20.7554 840.361 19.8203 841.297 19.8203C842.233 19.8203 843.169 20.7554 843.169 21.6905Z" fill="white"/>
<path opacity="0.7" d="M827.257 120.339C827.257 121.274 826.321 122.209 825.385 122.209C824.449 122.209 823.513 121.274 823.513 120.339C823.513 119.404 824.449 118.469 825.385 118.469C826.321 118.469 827.257 119.404 827.257 120.339Z" fill="white"/>
<path opacity="0.7" d="M795.896 95.5615C795.896 96.4966 794.96 97.4317 794.024 97.4317C793.087 97.4317 792.151 96.4966 792.151 95.5615C792.151 94.6265 793.087 93.6914 794.024 93.6914C794.96 93.6914 795.896 94.1589 795.896 95.5615Z" fill="white"/>
<path opacity="0.7" d="M720.535 63.7686C720.535 64.7037 719.599 65.6388 718.663 65.6388C717.727 65.6388 716.791 64.7037 716.791 63.7686C716.791 62.8335 717.727 61.8984 718.663 61.8984C719.599 61.8984 720.535 62.366 720.535 63.7686Z" fill="white"/>
<path opacity="0.7" d="M770.153 52.0784C770.153 53.0135 769.685 53.481 768.749 53.481C767.813 53.481 767.345 53.0135 767.345 52.0784C767.345 51.1433 767.813 50.6758 768.749 50.6758C769.685 50.6758 770.153 51.6109 770.153 52.0784Z" fill="white"/>
<path opacity="0.7" d="M854.402 236.29C854.402 236.758 853.934 237.225 853.466 237.225C852.998 237.225 852.53 236.758 852.53 236.29C852.53 235.823 852.998 235.355 853.466 235.355C853.934 234.888 854.402 235.355 854.402 236.29Z" fill="white"/>
<path opacity="0.7" d="M577.308 270.421C577.308 271.356 576.371 272.291 575.435 272.291C574.499 272.291 573.563 271.356 573.563 270.421C573.563 269.486 574.499 268.551 575.435 268.551C576.371 268.551 577.308 269.018 577.308 270.421Z" fill="white"/>
<path opacity="0.7" d="M941.931 312.498C941.931 312.965 941.463 313.433 940.995 313.433C940.527 313.433 940.059 312.965 940.059 312.498C940.059 312.03 940.527 311.562 940.995 311.562C941.463 311.562 941.931 312.03 941.931 312.498Z" fill="white"/>
<path opacity="0.7" d="M751.897 322.317C751.897 323.252 751.429 323.719 750.493 323.719C749.557 323.719 749.089 323.252 749.089 322.317C749.089 321.382 749.557 320.914 750.493 320.914C751.429 320.914 751.897 321.382 751.897 322.317Z" fill="white"/>
<path opacity="0.7" d="M1030.4 96.9622C1030.4 97.4298 1029.93 97.8973 1029.46 97.8973C1028.99 97.8973 1028.52 97.4298 1028.52 96.9622C1028.52 96.4947 1028.99 96.0272 1029.46 96.0272C1029.93 95.5596 1030.4 96.0272 1030.4 96.9622Z" fill="white"/>
<path opacity="0.7" d="M1062.22 286.783C1062.22 287.25 1061.76 287.718 1061.29 287.718C1060.82 287.718 1060.35 287.25 1060.35 286.783C1060.35 286.315 1060.82 285.848 1061.29 285.848C1061.76 285.848 1062.22 286.315 1062.22 286.783Z" fill="white"/>
<path opacity="0.7" d="M965.337 212.444C965.337 213.379 964.4 214.314 963.464 214.314C962.528 214.314 961.592 213.379 961.592 212.444C961.592 211.509 962.528 210.574 963.464 210.574C964.4 210.574 965.337 211.509 965.337 212.444Z" fill="white"/>
<path opacity="0.7" d="M984.526 187.198C984.526 188.133 983.59 189.068 982.654 189.068C981.718 189.068 980.782 188.133 980.782 187.198C980.782 186.263 981.718 185.328 982.654 185.328C984.058 185.328 984.526 186.263 984.526 187.198Z" fill="white"/>
<path opacity="0.7" d="M969.081 312.499C969.081 313.434 968.145 314.369 967.209 314.369C966.272 314.369 965.336 313.434 965.336 312.499C965.336 311.564 966.272 310.629 967.209 310.629C968.145 310.629 969.081 311.564 969.081 312.499Z" fill="white"/>
<path opacity="0.7" d="M1059.88 175.511C1059.88 176.446 1058.95 177.381 1058.01 177.381C1057.08 177.381 1056.14 176.446 1056.14 175.511C1056.14 174.576 1057.08 173.641 1058.01 173.641C1059.42 173.641 1059.88 174.576 1059.88 175.511Z" fill="white"/>
<path opacity="0.7" d="M1019.16 301.278C1019.16 302.213 1018.69 302.68 1017.76 302.68C1016.82 302.68 1016.35 302.213 1016.35 301.278C1016.35 300.343 1016.82 299.875 1017.76 299.875C1018.69 299.875 1019.16 300.343 1019.16 301.278Z" fill="white"/>
<path opacity="0.7" d="M1021.97 152.133C1021.97 153.068 1021.5 153.536 1020.57 153.536C1019.63 153.536 1019.16 153.068 1019.16 152.133C1019.16 151.198 1019.63 150.73 1020.57 150.73C1021.5 150.73 1021.97 151.198 1021.97 152.133Z" fill="white"/>
<path opacity="0.7" d="M1042.1 496.197C1042.1 496.664 1041.63 497.132 1041.16 497.132C1040.69 497.132 1040.23 496.664 1040.23 496.197C1040.23 495.729 1040.69 495.262 1041.16 495.262C1041.63 494.794 1042.1 495.262 1042.1 496.197Z" fill="white"/>
<path opacity="0.7" d="M1030.4 345.65C1030.4 346.117 1029.93 346.585 1029.46 346.585C1028.99 346.585 1028.52 346.117 1028.52 345.65C1028.52 345.182 1028.99 344.715 1029.46 344.715C1029.93 344.247 1030.4 344.715 1030.4 345.65Z" fill="white"/>
<path opacity="0.7" d="M965.337 461.132C965.337 462.067 964.4 463.002 963.464 463.002C962.528 463.002 961.592 462.067 961.592 461.132C961.592 460.197 962.528 459.262 963.464 459.262C964.4 459.262 965.337 460.197 965.337 461.132Z" fill="white"/>
<path opacity="0.7" d="M984.526 435.886C984.526 436.821 983.59 437.756 982.654 437.756C981.718 437.756 980.782 436.821 980.782 435.886C980.782 434.951 981.718 434.016 982.654 434.016C984.058 434.016 984.526 434.951 984.526 435.886Z" fill="white"/>
<path opacity="0.7" d="M1059.88 424.194C1059.88 425.129 1058.95 426.065 1058.01 426.065C1057.08 426.065 1056.14 425.129 1056.14 424.194C1056.14 423.259 1057.08 422.324 1058.01 422.324C1059.42 422.324 1059.88 423.259 1059.88 424.194Z" fill="white"/>
<path opacity="0.7" d="M1021.97 400.821C1021.97 401.756 1021.5 402.223 1020.57 402.223C1019.63 402.223 1019.16 401.756 1019.16 400.821C1019.16 399.886 1019.63 399.418 1020.57 399.418C1021.5 399.418 1021.97 399.886 1021.97 400.821Z" fill="white"/>
<path opacity="0.7" d="M996.229 1.1185C996.229 1.58604 995.761 2.05357 995.293 2.05357C994.825 2.05357 994.357 1.58604 994.357 1.1185C994.357 0.650959 994.825 0.183417 995.293 0.183417C995.761 -0.284121 996.229 0.18342 996.229 1.1185Z" fill="white"/>
<path opacity="0.7" d="M1062.22 38.0521C1062.22 38.5196 1061.76 38.9871 1061.29 38.9871C1060.82 38.9871 1060.35 38.5196 1060.35 38.0521C1060.35 37.5845 1060.82 37.117 1061.29 37.117C1061.76 36.6495 1062.22 37.117 1062.22 38.0521Z" fill="white"/>
<path opacity="0.7" d="M1037.42 15.146C1037.42 15.6135 1036.95 16.081 1036.48 16.081C1036.01 16.081 1035.55 15.6135 1035.55 15.146C1035.55 14.6785 1036.01 14.2109 1036.48 14.2109C1036.95 14.2109 1037.42 14.6785 1037.42 15.146Z" fill="white"/>
<path opacity="0.7" d="M461.697 287.719C461.697 289.122 460.292 290.524 458.888 290.524C457.484 290.524 456.08 289.122 456.08 287.719C456.08 286.317 457.484 284.914 458.888 284.914C460.761 285.382 461.697 286.317 461.697 287.719Z" fill="white"/>
<g opacity="0.7">
<path opacity="0.7" d="M514.589 78.7305L515.057 88.5488L525.354 89.4838L515.525 89.9514L514.589 100.237L513.653 89.9514L503.823 89.4838L513.653 88.5488L514.589 78.7305Z" fill="white"/>
<path opacity="0.7" d="M518.801 84.8086L515.524 89.0164L518.801 93.6918L514.588 89.9515L509.907 94.1593L513.652 89.484L509.907 84.8086L514.588 88.5489L518.801 84.8086Z" fill="white"/>
</g>
<g opacity="0.7">
<path opacity="0.7" d="M408.337 58.625L409.274 68.4433L419.103 69.3784L409.274 69.8459L408.337 80.1317L407.401 69.8459L397.572 69.3784L407.401 68.4433L408.337 58.625Z" fill="white"/>
<path opacity="0.7" d="M412.549 64.7031L409.273 69.3785L412.549 73.5863L408.337 70.3136L403.656 74.0539L407.869 69.3785L403.656 65.1707L408.337 68.4434L412.549 64.7031Z" fill="white"/>
</g>
<g opacity="0.7">
<path opacity="0.7" d="M476.207 316.707L476.676 323.253L483.697 324.188H476.676L476.207 331.668L475.739 324.188H468.718L475.739 323.253L476.207 316.707Z" fill="white"/>
<path opacity="0.7" d="M479.017 320.914L476.677 323.719L479.017 326.992L476.209 324.187L472.932 326.992L475.741 323.719L472.932 320.914L476.209 323.252L479.017 320.914Z" fill="white"/>
</g>
<g opacity="0.7">
<path opacity="0.7" d="M242.641 45.0664L243.109 51.6119L250.13 52.547H243.577L242.641 60.0276L242.173 52.547H235.152L242.173 51.6119L242.641 45.0664Z" fill="white"/>
<path opacity="0.7" d="M245.919 49.2734L243.578 52.0787L245.919 55.3514L242.642 53.0137L239.366 55.3514L242.174 52.5462L239.366 49.2734L242.642 51.6111L245.919 49.2734Z" fill="white"/>
</g>
<g opacity="0.7">
<path opacity="0.7" d="M677.943 37.5859L678.411 44.1314L685.432 45.0665H678.411L677.943 52.5471L677.475 45.0665H670.454L677.475 44.1314L677.943 37.5859Z" fill="white"/>
<path opacity="0.7" d="M681.221 41.793L678.413 44.5982L681.221 47.871L677.945 45.5333L674.668 47.871L677.476 45.0657L674.668 41.793L677.945 44.1307L681.221 41.793Z" fill="white"/>
</g>
<g opacity="0.7">
<path opacity="0.7" d="M878.745 289.59L879.681 298.941L889.51 300.343H879.681L878.745 311.097L877.809 300.343H867.979L877.809 298.941L878.745 289.59Z" fill="white"/>
<path opacity="0.7" d="M882.956 295.199L879.68 299.875L882.956 304.55L878.744 300.81L874.063 304.55L878.276 299.875L874.063 295.667L878.744 298.94L882.956 295.199Z" fill="white"/>
</g>
<g opacity="0.7">
<path opacity="0.7" d="M946.615 45.0664L947.084 51.6119L954.105 52.547H947.084L946.615 60.0276L946.147 52.547H939.126L946.147 51.6119L946.615 45.0664Z" fill="white"/>
<path opacity="0.7" d="M949.425 49.2734L947.085 52.0787L949.425 55.3514L946.617 53.0137L943.341 55.3514L946.149 52.5462L943.341 49.2734L946.617 51.6111L949.425 49.2734Z" fill="white"/>
</g>
<g opacity="0.7">
<path opacity="0.7" d="M797.3 200.758L797.768 207.771L804.789 208.238L797.768 208.706L797.3 215.719L796.832 208.706L789.811 208.238L796.832 207.771L797.3 200.758Z" fill="white"/>
<path opacity="0.7" d="M800.11 204.965L797.77 208.238L800.11 211.51L797.302 208.705L794.025 211.51L796.834 208.238L794.025 205.432L797.302 207.77L800.11 204.965Z" fill="white"/>
</g>
<g opacity="0.7">
<path opacity="0.7" d="M698.069 244.238L698.537 251.251L705.558 251.719L698.537 252.186L698.069 259.199L697.601 252.186L690.58 251.719L697.601 251.251L698.069 244.238Z" fill="white"/>
<path opacity="0.7" d="M700.879 248.445L698.538 251.718L700.879 254.991L698.07 252.186L694.794 254.991L697.602 251.718L694.794 248.913L698.07 251.251L700.879 248.445Z" fill="white"/>
</g>
<g opacity="0.7">
<path opacity="0.7" d="M740.665 59.0938L741.601 65.6393L748.154 66.5743H741.601L740.665 74.055L740.197 66.5743H733.176L740.197 65.6393L740.665 59.0938Z" fill="white"/>
<path opacity="0.7" d="M743.943 63.3008L741.603 66.106L743.943 69.3788L741.135 67.0411L737.39 69.3788L740.199 66.5735L737.39 63.3008L740.667 65.6385L743.943 63.3008Z" fill="white"/>
</g>
<path opacity="0.7" d="M898.28 575.527C898.28 574.592 898.748 574.124 899.685 574.124C900.621 574.124 901.089 574.592 901.089 575.527C901.089 576.462 900.621 576.93 899.685 576.93C899.217 576.93 898.28 576.462 898.28 575.527Z" fill="white"/>
<path opacity="0.7" d="M840.787 572.417C840.787 571.949 841.255 571.482 841.723 571.482C842.191 571.482 842.659 571.949 842.659 572.417C842.659 572.884 842.191 573.352 841.723 573.352C841.255 573.819 840.787 573.352 840.787 572.417Z" fill="white"/>
<path opacity="0.7" d="M958.399 503.346C958.399 502.879 958.867 502.411 959.335 502.411C959.803 502.411 960.271 502.879 960.271 503.346C960.271 503.814 959.803 504.281 959.335 504.281C958.867 504.281 958.399 503.814 958.399 503.346Z" fill="white"/>
<path opacity="0.7" d="M307.532 525.557C307.532 525.09 308 524.622 308.468 524.622C308.936 524.622 309.404 525.09 309.404 525.557C309.404 526.025 308.936 526.492 308.468 526.492C308 526.492 307.532 526.025 307.532 525.557Z" fill="white"/>
<path opacity="0.7" d="M825.658 627.323C825.658 626.855 826.126 626.388 826.594 626.388C827.062 626.388 827.53 626.855 827.53 627.323C827.53 627.79 827.062 628.258 826.594 628.258C826.126 628.258 825.658 627.79 825.658 627.323Z" fill="white"/>
<path opacity="0.7" d="M829.206 596.143C829.206 595.676 829.674 595.208 830.142 595.208C830.61 595.208 831.078 595.676 831.078 596.143C831.078 596.611 830.61 597.078 830.142 597.078C829.674 597.078 829.206 596.611 829.206 596.143Z" fill="white"/>
<path opacity="0.7" d="M777.933 756.824C777.933 755.889 778.401 755.421 779.337 755.421C780.273 755.421 780.741 755.889 780.741 756.824C780.741 757.759 780.273 758.227 779.337 758.227C778.401 758.227 777.933 757.291 777.933 756.824Z" fill="white"/>
<path opacity="0.7" d="M784.586 536.681C784.586 535.746 785.522 534.81 786.458 534.81C787.395 534.81 788.331 535.746 788.331 536.681C788.331 537.616 787.395 538.551 786.458 538.551C785.054 538.551 784.586 537.616 784.586 536.681Z" fill="white"/>
<path opacity="0.7" d="M854.767 775.017C854.767 774.081 855.703 773.146 856.639 773.146C857.576 773.146 858.512 774.081 858.512 775.017C858.512 775.952 857.576 776.887 856.639 776.887C855.703 776.887 854.767 776.419 854.767 775.017Z" fill="white"/>
<path opacity="0.7" d="M1018.26 628.341C1018.26 627.406 1019.19 626.471 1020.13 626.471C1021.07 626.471 1022 627.406 1022 628.341C1022 629.276 1021.07 630.211 1020.13 630.211C1019.19 630.211 1018.26 629.276 1018.26 628.341Z" fill="white"/>
<path opacity="0.7" d="M1052.79 482.704C1052.79 481.769 1053.72 480.834 1054.66 480.834C1055.59 480.834 1056.53 481.769 1056.53 482.704C1056.53 483.639 1055.59 484.574 1054.66 484.574C1053.25 484.574 1052.79 483.639 1052.79 482.704Z" fill="white"/>
<path opacity="0.7" d="M954.307 614.61C954.307 613.675 955.244 612.74 956.18 612.74C957.116 612.74 958.052 613.675 958.052 614.61C958.052 615.545 957.116 616.48 956.18 616.48C955.244 616.48 954.307 615.545 954.307 614.61Z" fill="white"/>
<path opacity="0.7" d="M1002.17 491.203C1002.17 490.268 1002.64 489.8 1003.58 489.8C1004.51 489.8 1004.98 490.268 1004.98 491.203C1004.98 492.138 1004.51 492.605 1003.58 492.605C1002.64 492.605 1002.17 492.138 1002.17 491.203Z" fill="white"/>
<path opacity="0.7" d="M967.386 676.621C967.386 675.686 967.854 675.218 968.79 675.218C969.726 675.218 970.194 675.686 970.194 676.621C970.194 677.556 969.726 678.023 968.79 678.023C967.854 678.023 967.386 677.088 967.386 676.621Z" fill="white"/>
<path opacity="0.7" d="M465.765 686.682C465.765 686.215 466.233 685.747 466.701 685.747C467.169 685.747 467.637 686.215 467.637 686.682C467.637 687.15 467.169 687.617 466.701 687.617C466.233 687.617 465.765 687.617 465.765 686.682Z" fill="white"/>
<path opacity="0.7" d="M892.06 726.401C892.06 725.933 892.528 725.466 892.996 725.466C893.465 725.466 893.933 725.933 893.933 726.401C893.933 726.868 893.465 727.336 892.996 727.336C892.528 727.336 892.06 726.868 892.06 726.401Z" fill="white"/>
<path opacity="0.7" d="M853.935 668.17C853.935 667.703 854.403 667.235 854.871 667.235C855.339 667.235 855.807 667.703 855.807 668.17C855.807 668.638 855.339 669.105 854.871 669.105C854.403 669.105 853.935 668.638 853.935 668.17Z" fill="white"/>
<path opacity="0.7" d="M940.33 464.452C940.33 463.984 940.798 463.517 941.266 463.517C941.734 463.517 942.202 463.984 942.202 464.452C942.202 464.919 941.734 465.387 941.266 465.387C940.798 465.387 940.33 464.919 940.33 464.452Z" fill="white"/>
<path opacity="0.7" d="M914.288 766.505C914.288 765.57 915.224 764.635 916.16 764.635C917.096 764.635 918.032 765.57 918.032 766.505C918.032 767.44 917.096 768.375 916.16 768.375C915.224 768.375 914.288 767.44 914.288 766.505Z" fill="white"/>
<path opacity="0.7" d="M515.592 701.579C515.592 700.644 516.528 699.709 517.464 699.709C518.4 699.709 519.336 700.644 519.336 701.579C519.336 702.514 518.4 703.449 517.464 703.449C516.06 703.449 515.592 702.982 515.592 701.579Z" fill="white"/>
<path opacity="0.7" d="M1049.96 509.215C1049.96 508.279 1050.42 507.812 1051.36 507.812C1052.3 507.812 1052.77 508.279 1052.77 509.215C1052.77 510.15 1052.3 510.617 1051.36 510.617C1050.42 510.617 1049.96 510.15 1049.96 509.215Z" fill="white"/>
<path opacity="0.7" d="M833.475 499.085C833.475 497.683 834.879 496.28 836.284 496.28C837.688 496.28 839.092 497.683 839.092 499.085C839.092 500.488 837.688 501.891 836.284 501.891C834.879 501.423 833.475 500.488 833.475 499.085Z" fill="white"/>
<path opacity="0.7" d="M914.56 551.561C914.56 551.094 915.028 550.626 915.496 550.626C915.964 550.626 916.432 551.094 916.432 551.561C916.432 552.029 915.964 552.496 915.496 552.496C915.028 552.964 914.56 552.496 914.56 551.561Z" fill="white"/>
<path opacity="0.7" d="M861.254 470.51C861.254 470.043 861.722 469.575 862.19 469.575C862.658 469.575 863.126 470.043 863.126 470.51C863.126 470.978 862.658 471.445 862.19 471.445C861.722 471.445 861.254 470.978 861.254 470.51Z" fill="white"/>
<path opacity="0.7" d="M404.068 552.276C404.068 551.808 404.536 551.341 405.004 551.341C405.472 551.341 405.94 551.808 405.94 552.276C405.94 552.743 405.472 553.211 405.004 553.211C404.536 553.211 404.068 552.743 404.068 552.276Z" fill="white"/>
<path opacity="0.7" d="M381.457 449.459C381.457 448.992 381.925 448.524 382.393 448.524C382.861 448.524 383.329 448.992 383.329 449.459C383.329 449.927 382.861 450.395 382.393 450.395C381.925 450.395 381.457 449.927 381.457 449.459Z" fill="white"/>
<path opacity="0.7" d="M522.286 463.1C522.286 462.633 522.754 462.165 523.222 462.165C523.69 462.165 524.158 462.633 524.158 463.1C524.158 463.568 523.69 464.035 523.222 464.035C522.754 464.035 522.286 463.568 522.286 463.1Z" fill="white"/>
<path opacity="0.7" d="M323.327 493.163C323.327 492.695 323.795 492.228 324.263 492.228C324.731 492.228 325.2 492.695 325.2 493.163C325.2 493.63 324.731 494.098 324.263 494.098C323.795 494.565 323.327 494.098 323.327 493.163Z" fill="white"/>
<path opacity="0.7" d="M403.68 489.563C403.68 488.628 404.617 487.693 405.553 487.693C406.489 487.693 407.425 488.628 407.425 489.563C407.425 490.499 406.489 491.434 405.553 491.434C404.617 491.434 403.68 490.499 403.68 489.563Z" fill="white"/>
<path opacity="0.7" d="M430.359 586.509C430.359 585.574 431.295 584.639 432.231 584.639C433.167 584.639 434.103 585.574 434.103 586.509C434.103 587.444 433.167 588.379 432.231 588.379C431.295 588.379 430.359 587.444 430.359 586.509Z" fill="white"/>
<path opacity="0.7" d="M406.779 440.518C406.779 440.05 407.247 439.583 407.715 439.583C408.183 439.583 408.651 440.05 408.651 440.518C408.651 440.986 408.183 441.453 407.715 441.453C407.247 441.453 406.779 440.986 406.779 440.518Z" fill="white"/>
<path opacity="0.7" d="M368.112 698.299C368.112 697.832 368.58 697.364 369.048 697.364C369.516 697.364 369.984 697.832 369.984 698.299C369.984 698.767 369.516 699.234 369.048 699.234C368.58 699.234 368.112 698.767 368.112 698.299Z" fill="white"/>
<path opacity="0.7" d="M377.027 636.975C377.027 636.508 377.495 636.04 377.963 636.04C378.431 636.04 378.899 636.508 378.899 636.975C378.899 637.443 378.431 637.91 377.963 637.91C377.495 637.91 377.027 637.443 377.027 636.975Z" fill="white"/>
<path opacity="0.7" d="M421.121 723.616C421.121 723.148 421.589 722.681 422.057 722.681C422.526 722.681 422.994 723.148 422.994 723.616C422.994 724.083 422.526 724.551 422.057 724.551C421.589 725.018 421.121 724.551 421.121 723.616Z" fill="white"/>
<path opacity="0.7" d="M390.335 738.403C390.335 737.468 391.271 736.533 392.207 736.533C393.143 736.533 394.079 737.468 394.079 738.403C394.079 739.338 393.143 740.273 392.207 740.273C391.271 740.273 390.335 739.338 390.335 738.403Z" fill="white"/>
<path opacity="0.7" d="M476.397 602.087C476.397 601.152 477.333 600.217 478.27 600.217C479.206 600.217 480.142 601.152 480.142 602.087C480.142 603.022 479.206 603.957 478.27 603.957C477.333 603.957 476.397 603.022 476.397 602.087Z" fill="white"/>
<path opacity="0.7" d="M504.609 530.51C504.609 530.043 505.077 529.575 505.545 529.575C506.013 529.575 506.481 530.043 506.481 530.51C506.481 530.978 506.013 531.445 505.545 531.445C505.077 531.445 504.609 530.978 504.609 530.51Z" fill="white"/>
<path opacity="0.7" d="M1021.53 471.172C1021.53 470.236 1022 469.769 1022.93 469.769C1023.87 469.769 1024.34 470.236 1024.34 471.172C1024.34 472.107 1023.87 472.574 1022.93 472.574C1022 472.574 1021.53 472.107 1021.53 471.172Z" fill="white"/>
<path opacity="0.7" d="M647.335 561.206C647.335 559.804 648.739 558.401 650.143 558.401C651.548 558.401 652.952 559.804 652.952 561.206C652.952 562.609 651.548 564.012 650.143 564.012C648.739 563.544 647.335 562.609 647.335 561.206Z" fill="white"/>
<path opacity="0.7" d="M679.831 567.065C679.831 566.597 680.299 566.13 680.767 566.13C681.235 566.13 681.703 566.597 681.703 567.065C681.703 567.532 681.235 568 680.767 568C680.299 568 679.831 567.532 679.831 567.065Z" fill="white"/>
<path opacity="0.7" d="M731.356 681.26C731.356 680.793 731.824 680.325 732.292 680.325C732.76 680.325 733.228 680.793 733.228 681.26C733.228 681.728 732.76 682.195 732.292 682.195C731.824 682.663 731.356 682.195 731.356 681.26Z" fill="white"/>
<path opacity="0.7" d="M656.754 464.225C656.754 463.758 657.222 463.29 657.691 463.29C658.159 463.29 658.627 463.758 658.627 464.225C658.627 464.693 658.159 465.16 657.691 465.16C657.222 465.16 656.754 464.693 656.754 464.225Z" fill="white"/>
<path opacity="0.7" d="M709.744 490.01C709.744 489.543 710.212 489.075 710.68 489.075C711.148 489.075 711.616 489.543 711.616 490.01C711.616 490.478 711.148 490.945 710.68 490.945C710.212 490.945 709.744 490.478 709.744 490.01Z" fill="white"/>
<path opacity="0.7" d="M587.937 445.084C587.937 444.617 588.405 444.149 588.873 444.149C589.341 444.149 589.809 444.617 589.809 445.084C589.809 445.552 589.341 446.02 588.873 446.02C588.405 446.02 587.937 445.552 587.937 445.084Z" fill="white"/>
<path opacity="0.7" d="M733.778 513.772C733.778 513.305 734.246 512.837 734.714 512.837C735.182 512.837 735.65 513.305 735.65 513.772C735.65 514.24 735.182 514.707 734.714 514.707C734.246 515.175 733.778 514.707 733.778 513.772Z" fill="white"/>
<path opacity="0.7" d="M580.551 582.807C580.551 582.34 581.019 581.872 581.487 581.872C581.955 581.872 582.423 582.34 582.423 582.807C582.423 583.275 581.955 583.742 581.487 583.742C581.019 583.742 580.551 583.275 580.551 582.807Z" fill="white"/>
<path opacity="0.7" d="M684.388 613.194C684.388 612.726 684.856 612.259 685.324 612.259C685.792 612.259 686.26 612.726 686.26 613.194C686.26 613.661 685.792 614.129 685.324 614.129C684.856 614.129 684.388 613.661 684.388 613.194Z" fill="white"/>
<path opacity="0.7" d="M802.511 569.481C802.511 568.546 803.447 567.611 804.383 567.611C805.319 567.611 806.255 568.546 806.255 569.481C806.255 570.416 805.319 571.352 804.383 571.352C803.447 571.352 802.511 570.416 802.511 569.481Z" fill="white"/>
<path opacity="0.7" d="M781.997 593.661C781.997 592.726 782.933 591.791 783.869 591.791C784.805 591.791 785.742 592.726 785.742 593.661C785.742 594.596 784.805 595.531 783.869 595.531C782.933 595.531 781.997 594.596 781.997 593.661Z" fill="white"/>
<path opacity="0.7" d="M804.13 469.368C804.13 468.433 805.067 467.498 806.003 467.498C806.939 467.498 807.875 468.433 807.875 469.368C807.875 470.303 806.939 471.238 806.003 471.238C805.067 471.238 804.13 470.303 804.13 469.368Z" fill="white"/>
<path opacity="0.7" d="M706.122 601.298C706.122 600.363 707.058 599.428 707.995 599.428C708.931 599.428 709.867 600.363 709.867 601.298C709.867 602.233 708.931 603.168 707.995 603.168C707.058 603.168 706.122 602.233 706.122 601.298Z" fill="white"/>
<path opacity="0.7" d="M753.522 477.867C753.522 476.932 753.99 476.464 754.926 476.464C755.862 476.464 756.33 476.932 756.33 477.867C756.33 478.802 755.862 479.27 754.926 479.27C753.99 479.27 753.522 478.802 753.522 477.867Z" fill="white"/>
<path opacity="0.7" d="M614.628 524.339C614.628 522.937 616.032 521.534 617.436 521.534C618.84 521.534 620.245 522.937 620.245 524.339C620.245 525.742 618.84 527.145 617.436 527.145C615.564 527.145 614.628 526.209 614.628 524.339Z" fill="white"/>
<path opacity="0.7" d="M742.727 626.648C742.727 625.713 743.196 625.246 744.132 625.246C745.068 625.246 745.536 625.713 745.536 626.648C745.536 627.583 745.068 628.051 744.132 628.051C743.664 628.051 742.727 627.583 742.727 626.648Z" fill="white"/>
<path opacity="0.7" d="M760.342 778.799C760.342 778.332 760.81 777.864 761.278 777.864C761.746 777.864 762.214 778.332 762.214 778.799C762.214 779.267 761.746 779.735 761.278 779.735C760.81 780.202 760.342 779.735 760.342 778.799Z" fill="white"/>
<path opacity="0.7" d="M764.598 682.108C764.598 681.64 765.066 681.173 765.534 681.173C766.002 681.173 766.471 681.64 766.471 682.108C766.471 682.575 766.002 683.043 765.534 683.043C765.066 683.043 764.598 682.575 764.598 682.108Z" fill="white"/>
<path opacity="0.7" d="M643.409 713.065C643.409 712.597 643.877 712.13 644.345 712.13C644.813 712.13 645.281 712.597 645.281 713.065C645.281 713.532 644.813 714 644.345 714C643.877 714 643.409 713.532 643.409 713.065Z" fill="white"/>
<path opacity="0.7" d="M652.32 651.737C652.32 651.269 652.788 650.802 653.256 650.802C653.724 650.802 654.192 651.269 654.192 651.737C654.192 652.204 653.724 652.672 653.256 652.672C652.788 652.672 652.32 652.204 652.32 651.737Z" fill="white"/>
<path opacity="0.7" d="M696.419 738.382C696.419 737.914 696.887 737.446 697.355 737.446C697.823 737.446 698.291 737.914 698.291 738.382C698.291 738.849 697.823 739.317 697.355 739.317C696.887 739.784 696.419 739.317 696.419 738.382Z" fill="white"/>
<path opacity="0.7" d="M606.216 653.899C605.699 653.899 605.28 654.318 605.28 654.834C605.28 655.351 605.699 655.77 606.216 655.77C606.733 655.77 607.152 655.351 607.152 654.834C607.152 654.318 606.733 653.899 606.216 653.899Z" fill="white"/>
<path opacity="0.7" d="M719.968 762.588C719.968 762.121 720.436 761.653 720.904 761.653C721.372 761.653 721.84 762.121 721.84 762.588C721.84 763.056 721.372 763.523 720.904 763.523C720.436 763.523 719.968 763.056 719.968 762.588Z" fill="white"/>
<path opacity="0.7" d="M1032.08 790.195C1032.08 788.792 1033.48 787.39 1034.89 787.39C1036.29 787.39 1037.69 788.792 1037.69 790.195C1037.69 791.597 1036.29 793 1034.89 793C1033.01 793 1032.08 791.597 1032.08 790.195Z" fill="white"/>
<path opacity="0.7" d="M666.099 753.192C666.099 752.257 667.035 751.322 667.971 751.322C668.907 751.322 669.843 752.257 669.843 753.192C669.843 754.127 668.907 755.062 667.971 755.062C667.035 755.062 666.099 754.127 666.099 753.192Z" fill="white"/>
<path opacity="0.7" d="M687.274 655.536C687.274 654.601 688.21 653.666 689.147 653.666C690.083 653.666 691.019 654.601 691.019 655.536C691.019 656.471 690.083 657.406 689.147 657.406C687.742 657.406 687.274 656.471 687.274 655.536Z" fill="white"/>
<path opacity="0.7" d="M717.264 681.962C717.264 681.027 718.2 680.092 719.136 680.092C720.072 680.092 721.008 681.027 721.008 681.962C721.008 682.897 720.072 683.832 719.136 683.832C717.732 683.832 717.264 683.365 717.264 681.962Z" fill="white"/>
<path opacity="0.7" d="M790.81 717.743C790.81 716.808 791.746 715.873 792.682 715.873C793.618 715.873 794.554 716.808 794.554 717.743C794.554 718.678 793.618 719.613 792.682 719.613C791.746 719.613 790.81 719.146 790.81 717.743Z" fill="white"/>
<path opacity="0.7" d="M740.176 726.707C740.176 725.772 740.644 725.304 741.58 725.304C742.516 725.304 742.984 725.772 742.984 726.707C742.984 727.642 742.516 728.109 741.58 728.109C740.644 728.109 740.176 727.174 740.176 726.707Z" fill="white"/>
<path opacity="0.7" d="M767.593 661.222C767.593 660.287 768.061 659.82 768.997 659.82C769.933 659.82 770.401 660.287 770.401 661.222C770.401 662.157 769.933 662.625 768.997 662.625C768.529 662.625 767.593 662.157 767.593 661.222Z" fill="white"/>
<path opacity="0.7" d="M682.225 688.484C682.225 687.549 682.693 687.081 683.629 687.081C684.565 687.081 685.033 687.549 685.033 688.484C685.033 689.419 684.565 689.887 683.629 689.887C683.161 689.887 682.225 689.419 682.225 688.484Z" fill="white"/>
<path opacity="0.7" d="M799.049 669.074C799.049 667.671 800.453 666.268 801.857 666.268C803.261 666.268 804.666 667.671 804.666 669.074C804.666 670.476 803.261 671.879 801.857 671.879C799.985 671.879 799.049 670.476 799.049 669.074Z" fill="white"/>
<path opacity="0.7" d="M670.2 501.936C670.2 501.469 670.668 501.001 671.136 501.001C671.604 501.001 672.072 501.469 672.072 501.936C672.072 502.404 671.604 502.871 671.136 502.871C670.668 502.871 670.2 502.404 670.2 501.936Z" fill="white"/>
<path opacity="0.7" d="M773.344 457.859C773.344 456.924 773.812 456.456 774.748 456.456C775.684 456.456 776.152 456.924 776.152 457.859C776.152 458.794 775.684 459.262 774.748 459.262C773.812 459.262 773.344 458.794 773.344 457.859Z" fill="white"/>
<path opacity="0.7" d="M616.726 729.893C616.726 729.426 617.194 728.958 617.662 728.958C618.13 728.958 618.598 729.426 618.598 729.893C618.598 730.361 618.13 730.828 617.662 730.828C617.194 730.828 616.726 730.361 616.726 729.893Z" fill="white"/>
<path opacity="0.7" d="M634.122 615.281C634.122 613.878 635.526 612.476 636.93 612.476C638.335 612.476 639.739 613.878 639.739 615.281C639.739 616.683 638.335 618.086 636.93 618.086C635.526 618.086 634.122 616.683 634.122 615.281Z" fill="white"/>
<path opacity="0.7" d="M605.646 656.778C605.646 655.843 606.582 654.908 607.518 654.908C608.454 654.908 609.39 655.843 609.39 656.778C609.39 657.713 608.454 658.648 607.518 658.648C606.114 658.648 605.646 657.713 605.646 656.778Z" fill="white"/>
<path opacity="0.7" d="M569.516 727.411C569.516 726.476 570.453 725.541 571.389 725.541C572.325 725.541 573.261 726.476 573.261 727.411C573.261 728.346 572.325 729.281 571.389 729.281C569.985 729.281 569.516 728.346 569.516 727.411Z" fill="white"/>
<path opacity="0.7" d="M591.676 602.653C591.676 601.718 592.612 600.783 593.548 600.783C594.484 600.783 595.42 601.718 595.42 602.653C595.42 603.588 594.484 604.523 593.548 604.523C592.612 604.523 591.676 603.588 591.676 602.653Z" fill="white"/>
<path opacity="0.7" d="M560.394 591.586C560.394 590.651 560.862 590.183 561.798 590.183C562.734 590.183 563.202 590.651 563.202 591.586C563.202 592.521 562.734 592.988 561.798 592.988C561.33 592.988 560.394 592.053 560.394 591.586Z" fill="white"/>
<path opacity="0.7" d="M421.485 638.323C421.485 638.79 421.017 639.258 420.549 639.258C420.081 639.258 419.613 638.79 419.613 638.323C419.613 637.855 420.081 637.388 420.549 637.388C421.017 636.92 421.485 637.388 421.485 638.323Z" fill="white"/>
<path opacity="0.7" d="M444.09 741.135C444.09 741.603 443.622 742.07 443.154 742.07C442.686 742.07 442.218 741.603 442.218 741.135C442.218 740.668 442.686 740.2 443.154 740.2C443.622 740.2 444.09 740.2 444.09 741.135Z" fill="white"/>
<path opacity="0.7" d="M520.785 622.108C520.785 622.575 520.317 623.043 519.849 623.043C519.38 623.043 518.912 622.575 518.912 622.108C518.912 621.64 519.38 621.173 519.849 621.173C520.317 621.173 520.785 621.64 520.785 622.108Z" fill="white"/>
<path opacity="0.7" d="M502.918 736.699C502.918 738.101 501.514 739.504 500.11 739.504C498.706 739.504 497.302 738.101 497.302 736.699C497.302 735.296 498.706 733.893 500.11 733.893C501.514 733.893 502.918 735.296 502.918 736.699Z" fill="white"/>
<path opacity="0.7" d="M421.889 700.563C421.889 701.499 420.953 702.434 420.017 702.434C419.081 702.434 418.145 701.499 418.145 700.563C418.145 699.628 419.081 698.693 420.017 698.693C420.953 698.693 421.889 699.628 421.889 700.563Z" fill="white"/>
<path opacity="0.7" d="M448.547 553.155C448.547 553.622 448.078 554.09 447.61 554.09C447.142 554.09 446.674 553.622 446.674 553.155C446.674 552.687 447.142 552.22 447.61 552.22C448.078 552.22 448.547 552.687 448.547 553.155Z" fill="white"/>
<path opacity="0.7" d="M435.21 452.192C435.21 453.127 434.274 454.062 433.338 454.062C432.402 454.062 431.465 453.127 431.465 452.192C431.465 451.257 432.402 450.322 433.338 450.322C434.274 450.322 435.21 450.79 435.21 452.192Z" fill="white"/>
<path opacity="0.7" d="M853.503 737.342C853.503 737.81 853.035 738.277 852.567 738.277C852.099 738.277 851.631 737.81 851.631 737.342C851.631 736.875 852.099 736.407 852.567 736.407C853.035 736.407 853.503 736.875 853.503 737.342Z" fill="white"/>
<path opacity="0.7" d="M503.359 684.802C503.359 685.737 502.423 686.672 501.487 686.672C500.551 686.672 499.614 685.737 499.614 684.802C499.614 683.867 500.551 682.932 501.487 682.932C502.423 682.932 503.359 683.867 503.359 684.802Z" fill="white"/>
<path opacity="0.7" d="M545.367 749.325C545.367 750.26 544.431 751.195 543.495 751.195C542.559 751.195 541.623 750.26 541.623 749.325C541.623 748.39 542.559 747.455 543.495 747.455C544.431 747.455 545.367 748.39 545.367 749.325Z" fill="white"/>
<path opacity="0.7" d="M558.713 500.485C558.713 501.42 557.777 502.355 556.84 502.355C555.904 502.355 554.968 501.42 554.968 500.485C554.968 499.55 555.904 498.615 556.84 498.615C558.245 498.615 558.713 499.55 558.713 500.485Z" fill="white"/>
<path opacity="0.7" d="M550.475 549.156C550.475 550.558 549.071 551.961 547.667 551.961C546.263 551.961 544.858 550.558 544.858 549.156C544.858 547.753 546.263 546.35 547.667 546.35C549.539 546.818 550.475 547.753 550.475 549.156Z" fill="white"/>
<path opacity="0.7" d="M201.862 538.176C201.862 537.24 202.33 536.773 203.266 536.773C204.202 536.773 204.67 537.24 204.67 538.176C204.67 539.111 204.202 539.578 203.266 539.578C202.798 539.578 201.862 539.111 201.862 538.176Z" fill="white"/>
<path opacity="0.7" d="M231.597 543.026C231.597 542.558 232.065 542.091 232.533 542.091C233.001 542.091 233.469 542.558 233.469 543.026C233.469 543.493 233.001 543.961 232.533 543.961C232.065 543.961 231.597 543.493 231.597 543.026Z" fill="white"/>
<path opacity="0.7" d="M144.367 535.069C144.367 534.601 144.835 534.134 145.303 534.134C145.772 534.134 146.24 534.601 146.24 535.069C146.24 535.537 145.772 536.004 145.303 536.004C144.835 536.472 144.367 536.004 144.367 535.069Z" fill="white"/>
<path opacity="0.7" d="M208.987 440.209C208.987 439.742 209.455 439.274 209.923 439.274C210.391 439.274 210.859 439.742 210.859 440.209C210.859 440.677 210.391 441.145 209.923 441.145C209.455 441.145 208.987 440.677 208.987 440.209Z" fill="white"/>
<path opacity="0.7" d="M931.278 720.546C931.278 720.078 931.746 719.61 932.214 719.61C932.682 719.61 933.15 720.078 933.15 720.546C933.15 721.013 932.682 721.481 932.214 721.481C931.746 721.948 931.278 721.481 931.278 720.546Z" fill="white"/>
<path opacity="0.7" d="M31.3145 492.952C31.3145 492.484 31.7826 492.017 32.2506 492.017C32.7186 492.017 33.1866 492.484 33.1866 492.952C33.1866 493.419 32.7186 493.887 32.2506 493.887C31.7826 494.354 31.3145 493.887 31.3145 492.952Z" fill="white"/>
<path opacity="0.7" d="M132.787 558.795C132.787 558.328 133.256 557.86 133.724 557.86C134.192 557.86 134.66 558.328 134.66 558.795C134.66 559.263 134.192 559.73 133.724 559.73C133.256 559.73 132.787 559.263 132.787 558.795Z" fill="white"/>
<path opacity="0.7" d="M236.154 589.155C236.154 588.687 236.623 588.22 237.091 588.22C237.559 588.22 238.027 588.687 238.027 589.155C238.027 589.622 237.559 590.09 237.091 590.09C236.623 590.09 236.154 589.622 236.154 589.155Z" fill="white"/>
<path opacity="0.7" d="M256.804 527.547C256.804 526.612 257.272 526.144 258.208 526.144C259.145 526.144 259.613 526.612 259.613 527.547C259.613 528.482 259.145 528.949 258.208 528.949C257.74 528.949 256.804 528.482 256.804 527.547Z" fill="white"/>
<path opacity="0.7" d="M1054.85 750.214C1054.85 748.812 1056.25 747.409 1057.66 747.409C1059.06 747.409 1060.46 748.812 1060.46 750.214C1060.46 751.617 1059.06 753.02 1057.66 753.02C1055.78 752.552 1054.85 751.617 1054.85 750.214Z" fill="white"/>
<path opacity="0.7" d="M333.763 569.622C333.763 568.687 334.699 567.752 335.635 567.752C336.572 567.752 337.508 568.687 337.508 569.622C337.508 570.557 336.572 571.492 335.635 571.492C334.699 571.492 333.763 570.557 333.763 569.622Z" fill="white"/>
<path opacity="0.7" d="M257.889 577.259C257.889 576.324 258.825 575.389 259.761 575.389C260.697 575.389 261.633 576.324 261.633 577.259C261.633 578.194 260.697 579.129 259.761 579.129C258.825 579.129 257.889 578.194 257.889 577.259Z" fill="white"/>
<path opacity="0.7" d="M312.578 754.784C312.578 754.316 313.046 753.849 313.514 753.849C313.982 753.849 314.45 754.316 314.45 754.784C314.45 755.251 313.982 755.719 313.514 755.719C313.046 756.186 312.578 755.719 312.578 754.784Z" fill="white"/>
<path opacity="0.7" d="M120.422 701.874C120.422 701.406 120.89 700.939 121.358 700.939C121.826 700.939 122.294 701.406 122.294 701.874C122.294 702.341 121.826 702.809 121.358 702.809C120.89 703.276 120.422 702.809 120.422 701.874Z" fill="white"/>
<path opacity="0.7" d="M195.642 689.049C195.642 688.582 196.11 688.114 196.578 688.114C197.046 688.114 197.514 688.582 197.514 689.049C197.514 689.517 197.046 689.984 196.578 689.984C196.11 689.984 195.642 689.517 195.642 689.049Z" fill="white"/>
<path opacity="0.7" d="M204.556 627.725C204.556 627.258 205.024 626.79 205.492 626.79C205.96 626.79 206.428 627.258 206.428 627.725C206.428 628.193 205.96 628.66 205.492 628.66C205.024 628.66 204.556 628.193 204.556 627.725Z" fill="white"/>
<path opacity="0.7" d="M248.654 714.366C248.654 713.898 249.123 713.431 249.591 713.431C250.059 713.431 250.527 713.898 250.527 714.366C250.527 714.833 250.059 715.301 249.591 715.301C249.123 715.768 248.654 715.301 248.654 714.366Z" fill="white"/>
<path opacity="0.7" d="M157.516 630.819C157.516 630.351 157.984 629.884 158.452 629.884C158.92 629.884 159.388 630.351 159.388 630.819C159.388 631.286 158.92 631.754 158.452 631.754C157.984 631.754 157.516 631.286 157.516 630.819Z" fill="white"/>
<path opacity="0.7" d="M272.204 738.573C272.204 738.105 272.672 737.638 273.14 737.638C273.608 737.638 274.077 738.105 274.077 738.573C274.077 739.04 273.608 739.508 273.14 739.508C272.672 739.508 272.204 739.04 272.204 738.573Z" fill="white"/>
<path opacity="0.7" d="M217.869 729.153C217.869 728.218 218.805 727.283 219.741 727.283C220.677 727.283 221.613 728.218 221.613 729.153C221.613 730.088 220.677 731.023 219.741 731.023C218.805 731.023 217.869 730.088 217.869 729.153Z" fill="white"/>
<path opacity="0.7" d="M239.041 631.497C239.041 630.562 239.977 629.627 240.913 629.627C241.849 629.627 242.785 630.562 242.785 631.497C242.785 632.432 241.849 633.367 240.913 633.367C239.977 633.367 239.041 632.432 239.041 631.497Z" fill="white"/>
<path opacity="0.7" d="M269.03 657.919C269.03 656.984 269.966 656.049 270.902 656.049C271.838 656.049 272.775 656.984 272.775 657.919C272.775 658.854 271.838 659.789 270.902 659.789C269.966 659.789 269.03 659.322 269.03 657.919Z" fill="white"/>
<path opacity="0.7" d="M342.58 693.704C342.58 692.769 343.516 691.834 344.452 691.834C345.389 691.834 346.325 692.769 346.325 693.704C346.325 694.639 345.389 695.574 344.452 695.574C343.516 695.574 342.58 695.107 342.58 693.704Z" fill="white"/>
<path opacity="0.7" d="M292.408 702.691C292.408 701.756 292.876 701.289 293.812 701.289C294.748 701.289 295.216 701.756 295.216 702.691C295.216 703.626 294.748 704.094 293.812 704.094C292.876 704.094 292.408 703.159 292.408 702.691Z" fill="white"/>
<path opacity="0.7" d="M218.141 514.21C218.141 513.742 218.609 513.275 219.077 513.275C219.545 513.275 220.013 513.742 220.013 514.21C220.013 514.677 219.545 515.145 219.077 515.145C218.609 515.612 218.141 515.145 218.141 514.21Z" fill="white"/>
<path opacity="0.7" d="M496.669 495.021C496.669 494.085 497.605 493.15 498.542 493.15C499.478 493.15 500.414 494.085 500.414 495.021C500.414 495.956 499.478 496.891 498.542 496.891C497.605 496.891 496.669 496.423 496.669 495.021Z" fill="white"/>
<path opacity="0.7" d="M134.824 433.424C134.824 432.957 135.292 432.489 135.76 432.489C136.228 432.489 136.696 432.957 136.696 433.424C136.696 433.892 136.228 434.359 135.76 434.359C135.292 434.359 134.824 433.892 134.824 433.424Z" fill="white"/>
<path opacity="0.7" d="M325.11 433.82C325.11 432.885 325.578 432.417 326.514 432.417C327.451 432.417 327.919 432.885 327.919 433.82C327.919 434.755 327.451 435.223 326.514 435.223C325.578 435.223 325.11 434.755 325.11 433.82Z" fill="white"/>
<path opacity="0.7" d="M34.9369 643.913C34.9369 643.445 35.4051 642.978 35.8732 642.978C36.3413 642.978 36.8093 643.445 36.8093 643.913C36.8093 644.38 36.3413 644.848 35.8732 644.848C35.4051 645.315 34.9369 644.848 34.9369 643.913Z" fill="white"/>
<path opacity="0.7" d="M13.3254 452.659C13.3254 452.191 13.7935 451.724 14.2615 451.724C14.7296 451.724 15.1976 452.191 15.1976 452.659C15.1976 453.126 14.7296 453.594 14.2615 453.594C13.7935 453.594 13.3254 453.126 13.3254 452.659Z" fill="white"/>
<path opacity="0.7" d="M106.092 532.13C106.092 531.195 107.028 530.26 107.964 530.26C108.901 530.26 109.837 531.195 109.837 532.13C109.837 533.065 108.901 534 107.964 534C107.028 534 106.092 533.065 106.092 532.13Z" fill="white"/>
<path opacity="0.7" d="M85.5782 556.313C85.5782 555.378 86.5144 554.443 87.4505 554.443C88.3866 554.443 89.3228 555.378 89.3228 556.313C89.3228 557.249 88.3866 558.184 87.4505 558.184C86.0463 558.184 85.5782 557.249 85.5782 556.313Z" fill="white"/>
<path opacity="0.7" d="M107.712 432.021C107.712 431.085 108.648 430.15 109.584 430.15C110.52 430.15 111.456 431.085 111.456 432.021C111.456 432.956 110.52 433.891 109.584 433.891C108.648 433.891 107.712 432.956 107.712 432.021Z" fill="white"/>
<path opacity="0.7" d="M9.70302 563.95C9.70302 563.015 10.6391 562.08 11.5752 562.08C12.5113 562.08 13.4474 563.015 13.4474 563.95C13.4474 564.885 12.5113 565.82 11.5752 565.82C10.171 565.82 9.70302 564.885 9.70302 563.95Z" fill="white"/>
<path opacity="0.7" d="M57.1023 440.519C57.1023 439.584 57.5704 439.117 58.5065 439.117C59.4426 439.117 59.9106 439.584 59.9106 440.519C59.9106 441.454 59.4426 441.922 58.5065 441.922C57.5704 441.922 57.1023 441.454 57.1023 440.519Z" fill="white"/>
<path opacity="0.7" d="M46.3088 589.297C46.3088 588.362 46.7768 587.894 47.713 587.894C48.6491 587.894 49.1172 588.362 49.1172 589.297C49.1172 590.232 48.6491 590.699 47.713 590.699C46.7768 590.699 46.3088 590.232 46.3088 589.297Z" fill="white"/>
<path opacity="0.7" d="M63.9228 741.448C63.9228 740.98 64.3908 740.513 64.8589 740.513C65.3269 740.513 65.795 740.98 65.795 741.448C65.795 741.915 65.3269 742.383 64.8589 742.383C64.3908 742.851 63.9228 742.383 63.9228 741.448Z" fill="white"/>
<path opacity="0.7" d="M8.70228e-06 701.034C8.70228e-06 700.566 0.468047 700.099 0.936101 700.099C1.40415 700.099 1.87219 700.566 1.87219 701.034C1.87219 701.501 1.40415 701.969 0.936101 701.969C0.468047 702.436 8.70228e-06 701.969 8.70228e-06 701.034Z" fill="white"/>
<path opacity="0.7" d="M23.5489 725.237C23.5489 724.769 24.017 724.302 24.485 724.302C24.9531 724.302 25.4211 724.769 25.4211 725.237C25.4211 725.704 24.9531 726.172 24.485 726.172C24.017 726.172 23.5489 725.704 23.5489 725.237Z" fill="white"/>
<path opacity="0.7" d="M613.039 483.988C613.039 482.585 614.443 481.183 615.848 481.183C617.252 481.183 618.656 482.585 618.656 483.988C618.656 485.39 617.252 486.793 615.848 486.793C613.975 486.325 613.039 485.39 613.039 483.988Z" fill="white"/>
<g opacity="0.7">
<path opacity="0.7" d="M549.611 689.707L549.143 679.889L538.845 678.954L548.675 678.486L549.611 668.2L550.547 678.486L560.376 678.954L550.547 679.889L549.611 689.707Z" fill="white"/>
<path opacity="0.7" d="M545.399 683.629L548.675 679.421L545.399 674.746L549.611 678.486L554.292 674.278L550.548 678.954L554.292 683.629L549.611 679.889L545.399 683.629Z" fill="white"/>
</g>
<g opacity="0.7">
<path opacity="0.7" d="M654.633 715.473L653.697 705.654L643.867 704.719L653.697 704.252L654.633 693.966L655.569 704.252L665.398 704.719L655.569 705.654L654.633 715.473Z" fill="white"/>
<path opacity="0.7" d="M650.421 709.395L653.698 704.719L650.421 700.511L654.634 703.784L659.314 700.044L655.102 704.719L659.314 708.927L654.634 705.654L650.421 709.395Z" fill="white"/>
</g>
<g opacity="0.7">
<path opacity="0.7" d="M600.507 454.125L600.038 447.579L593.017 446.644H600.038L600.507 439.164L600.975 446.644H607.996L600.975 447.579L600.507 454.125Z" fill="white"/>
<path opacity="0.7" d="M597.697 449.918L600.037 447.113L597.697 443.84L600.505 446.645L603.781 443.84L600.973 447.113L603.781 449.918L600.505 447.58L597.697 449.918Z" fill="white"/>
</g>
<g opacity="0.7">
<path opacity="0.7" d="M819.19 737.883L818.722 731.337L811.701 730.402H818.254L819.19 722.922L819.659 730.402H826.68L819.659 731.337L819.19 737.883Z" fill="white"/>
<path opacity="0.7" d="M815.912 733.676L818.253 730.871L815.912 727.598L819.189 729.935L822.465 727.598L819.657 730.403L822.465 733.676L819.189 731.338L815.912 733.676Z" fill="white"/>
</g>
<g opacity="0.7">
<path opacity="0.7" d="M384.112 722.039L383.644 715.494L376.623 714.558H383.644L384.112 707.078L384.58 714.558H391.601L384.58 715.494L384.112 722.039Z" fill="white"/>
<path opacity="0.7" d="M380.834 717.832L383.643 715.027L380.834 711.754L384.111 714.092L387.387 711.754L384.579 714.559L387.387 717.832L384.111 715.494L380.834 717.832Z" fill="white"/>
</g>
<g opacity="0.7">
<path opacity="0.7" d="M197.27 459.648L196.334 450.298L186.504 448.895H196.334L197.27 438.142L198.206 448.895H208.035L198.206 450.298L197.27 459.648Z" fill="white"/>
<path opacity="0.7" d="M193.058 454.039L196.335 449.364L193.058 444.688L197.271 448.429L201.951 444.688L197.739 449.364L201.951 453.572L197.271 450.299L193.058 454.039Z" fill="white"/>
</g>
<g opacity="0.7">
<path opacity="0.7" d="M116.226 700.18L115.758 693.634L108.737 692.699H115.758L116.226 685.218L116.694 692.699H123.715L116.694 693.634L116.226 700.18Z" fill="white"/>
<path opacity="0.7" d="M113.416 695.973L115.757 693.167L113.416 689.895L116.225 692.232L119.501 689.895L116.693 692.7L119.501 695.973L116.225 693.635L113.416 695.973Z" fill="white"/>
</g>
<g opacity="0.7">
<path opacity="0.7" d="M273.665 552.711L273.197 545.698L266.176 545.23L273.197 544.763L273.665 537.75L274.133 544.763L281.154 545.23L274.133 545.698L273.665 552.711Z" fill="white"/>
<path opacity="0.7" d="M270.855 548.504L273.195 545.231L270.855 541.958L273.663 544.764L276.94 541.958L274.131 545.231L276.94 548.036L273.663 545.699L270.855 548.504Z" fill="white"/>
</g>
<g opacity="0.7">
<path opacity="0.7" d="M375.082 514.605L374.614 507.592L367.593 507.125L374.614 506.657L375.082 499.644L375.551 506.657L382.572 507.125L375.551 507.592L375.082 514.605Z" fill="white"/>
<path opacity="0.7" d="M372.272 510.398L374.613 507.126L372.272 503.853L375.081 506.658L378.357 503.853L375.549 507.126L378.357 509.931L375.081 507.593L372.272 510.398Z" fill="white"/>
</g>
<path opacity="0.7" d="M898.28 396.785C898.28 395.85 898.748 395.382 899.685 395.382C900.621 395.382 901.089 395.85 901.089 396.785C901.089 397.72 900.621 398.188 899.685 398.188C899.217 398.188 898.28 397.72 898.28 396.785Z" fill="white"/>
<path opacity="0.7" d="M840.787 393.674C840.787 393.207 841.255 392.739 841.723 392.739C842.191 392.739 842.659 393.207 842.659 393.674C842.659 394.142 842.191 394.61 841.723 394.61C841.255 395.077 840.787 394.61 840.787 393.674Z" fill="white"/>
<path opacity="0.7" d="M307.532 346.815C307.532 346.347 308 345.88 308.468 345.88C308.936 345.88 309.404 346.347 309.404 346.815C309.404 347.282 308.936 347.75 308.468 347.75C308 347.75 307.532 347.282 307.532 346.815Z" fill="white"/>
<path opacity="0.7" d="M829.206 417.401C829.206 416.933 829.674 416.466 830.142 416.466C830.61 416.466 831.078 416.933 831.078 417.401C831.078 417.868 830.61 418.336 830.142 418.336C829.674 418.336 829.206 417.868 829.206 417.401Z" fill="white"/>
<path opacity="0.7" d="M784.586 357.938C784.586 357.003 785.522 356.068 786.458 356.068C787.395 356.068 788.331 357.003 788.331 357.938C788.331 358.874 787.395 359.809 786.458 359.809C785.054 359.809 784.586 358.874 784.586 357.938Z" fill="white"/>
<path opacity="0.7" d="M954.307 435.864C954.307 434.929 955.244 433.994 956.18 433.994C957.116 433.994 958.052 434.929 958.052 435.864C958.052 436.799 957.116 437.734 956.18 437.734C955.244 437.734 954.307 436.799 954.307 435.864Z" fill="white"/>
<path opacity="0.7" d="M914.56 372.819C914.56 372.351 915.028 371.884 915.496 371.884C915.964 371.884 916.432 372.351 916.432 372.819C916.432 373.287 915.964 373.754 915.496 373.754C915.028 374.222 914.56 373.754 914.56 372.819Z" fill="white"/>
<path opacity="0.7" d="M404.068 373.53C404.068 373.062 404.536 372.595 405.004 372.595C405.472 372.595 405.94 373.062 405.94 373.53C405.94 373.997 405.472 374.465 405.004 374.465C404.536 374.465 404.068 373.997 404.068 373.53Z" fill="white"/>
<path opacity="0.7" d="M430.359 407.767C430.359 406.831 431.295 405.896 432.231 405.896C433.167 405.896 434.103 406.831 434.103 407.767C434.103 408.702 433.167 409.637 432.231 409.637C431.295 409.637 430.359 408.702 430.359 407.767Z" fill="white"/>
<path opacity="0.7" d="M476.397 423.345C476.397 422.41 477.333 421.475 478.27 421.475C479.206 421.475 480.142 422.41 480.142 423.345C480.142 424.28 479.206 425.215 478.27 425.215C477.333 425.215 476.397 424.28 476.397 423.345Z" fill="white"/>
<path opacity="0.7" d="M504.609 351.768C504.609 351.301 505.077 350.833 505.545 350.833C506.013 350.833 506.481 351.301 506.481 351.768C506.481 352.236 506.013 352.703 505.545 352.703C505.077 352.703 504.609 352.236 504.609 351.768Z" fill="white"/>
<path opacity="0.7" d="M647.335 382.464C647.335 381.062 648.739 379.659 650.143 379.659C651.548 379.659 652.952 381.062 652.952 382.464C652.952 383.867 651.548 385.27 650.143 385.27C648.739 384.802 647.335 383.867 647.335 382.464Z" fill="white"/>
<path opacity="0.7" d="M679.831 388.319C679.831 387.851 680.299 387.384 680.767 387.384C681.235 387.384 681.703 387.851 681.703 388.319C681.703 388.786 681.235 389.254 680.767 389.254C680.299 389.254 679.831 388.786 679.831 388.319Z" fill="white"/>
<path opacity="0.7" d="M733.778 335.03C733.778 334.562 734.246 334.095 734.714 334.095C735.182 334.095 735.65 334.562 735.65 335.03C735.65 335.497 735.182 335.965 734.714 335.965C734.246 336.433 733.778 335.965 733.778 335.03Z" fill="white"/>
<path opacity="0.7" d="M580.551 404.065C580.551 403.597 581.019 403.13 581.487 403.13C581.955 403.13 582.423 403.597 582.423 404.065C582.423 404.532 581.955 405 581.487 405C581.019 405 580.551 404.532 580.551 404.065Z" fill="white"/>
<path opacity="0.7" d="M684.388 434.452C684.388 433.984 684.856 433.517 685.324 433.517C685.792 433.517 686.26 433.984 686.26 434.452C686.26 434.919 685.792 435.387 685.324 435.387C684.856 435.387 684.388 434.919 684.388 434.452Z" fill="white"/>
<path opacity="0.7" d="M802.511 390.735C802.511 389.8 803.447 388.865 804.383 388.865C805.319 388.865 806.255 389.8 806.255 390.735C806.255 391.67 805.319 392.605 804.383 392.605C803.447 392.605 802.511 391.67 802.511 390.735Z" fill="white"/>
<path opacity="0.7" d="M781.997 414.919C781.997 413.984 782.933 413.049 783.869 413.049C784.805 413.049 785.742 413.984 785.742 414.919C785.742 415.854 784.805 416.789 783.869 416.789C782.933 416.789 781.997 415.854 781.997 414.919Z" fill="white"/>
<path opacity="0.7" d="M706.122 422.556C706.122 421.621 707.058 420.685 707.995 420.685C708.931 420.685 709.867 421.621 709.867 422.556C709.867 423.491 708.931 424.426 707.995 424.426C707.058 424.426 706.122 423.491 706.122 422.556Z" fill="white"/>
<path opacity="0.7" d="M614.628 345.593C614.628 344.191 616.032 342.788 617.436 342.788C618.84 342.788 620.245 344.191 620.245 345.593C620.245 346.996 618.84 348.398 617.436 348.398C615.564 348.398 614.628 347.463 614.628 345.593Z" fill="white"/>
<path opacity="0.7" d="M634.122 436.535C634.122 435.132 635.526 433.729 636.93 433.729C638.335 433.729 639.739 435.132 639.739 436.535C639.739 437.937 638.335 439.34 636.93 439.34C635.526 439.34 634.122 437.937 634.122 436.535Z" fill="white"/>
<path opacity="0.7" d="M591.676 423.911C591.676 422.976 592.612 422.041 593.548 422.041C594.484 422.041 595.42 422.976 595.42 423.911C595.42 424.846 594.484 425.781 593.548 425.781C592.612 425.781 591.676 424.846 591.676 423.911Z" fill="white"/>
<path opacity="0.7" d="M560.394 412.843C560.394 411.908 560.862 411.441 561.798 411.441C562.734 411.441 563.202 411.908 563.202 412.843C563.202 413.779 562.734 414.246 561.798 414.246C561.33 414.246 560.394 413.311 560.394 412.843Z" fill="white"/>
<path opacity="0.7" d="M520.785 443.366C520.785 443.833 520.317 444.301 519.849 444.301C519.38 444.301 518.912 443.833 518.912 443.366C518.912 442.898 519.38 442.431 519.849 442.431C520.317 442.431 520.785 442.898 520.785 443.366Z" fill="white"/>
<path opacity="0.7" d="M448.547 374.413C448.547 374.88 448.078 375.348 447.61 375.348C447.142 375.348 446.674 374.88 446.674 374.413C446.674 373.945 447.142 373.477 447.61 373.477C448.078 373.477 448.547 373.945 448.547 374.413Z" fill="white"/>
<path opacity="0.7" d="M550.475 370.414C550.475 371.816 549.071 373.219 547.667 373.219C546.263 373.219 544.858 371.816 544.858 370.414C544.858 369.011 546.263 367.608 547.667 367.608C549.539 368.076 550.475 369.011 550.475 370.414Z" fill="white"/>
<path opacity="0.7" d="M201.862 359.433C201.862 358.498 202.33 358.031 203.266 358.031C204.202 358.031 204.67 358.498 204.67 359.433C204.67 360.368 204.202 360.836 203.266 360.836C202.798 360.836 201.862 360.368 201.862 359.433Z" fill="white"/>
<path opacity="0.7" d="M231.597 364.28C231.597 363.812 232.065 363.345 232.533 363.345C233.001 363.345 233.469 363.812 233.469 364.28C233.469 364.747 233.001 365.215 232.533 365.215C232.065 365.215 231.597 364.747 231.597 364.28Z" fill="white"/>
<path opacity="0.7" d="M144.367 356.327C144.367 355.859 144.835 355.392 145.303 355.392C145.772 355.392 146.24 355.859 146.24 356.327C146.24 356.794 145.772 357.262 145.303 357.262C144.835 357.729 144.367 357.262 144.367 356.327Z" fill="white"/>
<path opacity="0.7" d="M132.787 380.053C132.787 379.586 133.256 379.118 133.724 379.118C134.192 379.118 134.66 379.586 134.66 380.053C134.66 380.521 134.192 380.988 133.724 380.988C133.256 380.988 132.787 380.521 132.787 380.053Z" fill="white"/>
<path opacity="0.7" d="M236.154 410.413C236.154 409.945 236.623 409.478 237.091 409.478C237.559 409.478 238.027 409.945 238.027 410.413C238.027 410.88 237.559 411.348 237.091 411.348C236.623 411.348 236.154 410.88 236.154 410.413Z" fill="white"/>
<path opacity="0.7" d="M256.804 348.804C256.804 347.869 257.272 347.402 258.208 347.402C259.145 347.402 259.613 347.869 259.613 348.804C259.613 349.739 259.145 350.207 258.208 350.207C257.74 350.207 256.804 349.739 256.804 348.804Z" fill="white"/>
<path opacity="0.7" d="M333.763 390.88C333.763 389.945 334.699 389.01 335.635 389.01C336.572 389.01 337.508 389.945 337.508 390.88C337.508 391.815 336.572 392.75 335.635 392.75C334.699 392.75 333.763 391.815 333.763 390.88Z" fill="white"/>
<path opacity="0.7" d="M257.889 398.517C257.889 397.581 258.825 396.646 259.761 396.646C260.697 396.646 261.633 397.581 261.633 398.517C261.633 399.452 260.697 400.387 259.761 400.387C258.825 400.387 257.889 399.452 257.889 398.517Z" fill="white"/>
<path opacity="0.7" d="M218.141 335.467C218.141 335 218.609 334.532 219.077 334.532C219.545 334.532 220.013 335 220.013 335.467C220.013 335.935 219.545 336.403 219.077 336.403C218.609 336.87 218.141 336.403 218.141 335.467Z" fill="white"/>
<path opacity="0.7" d="M106.092 353.388C106.092 352.453 107.028 351.518 107.964 351.518C108.901 351.518 109.837 352.453 109.837 353.388C109.837 354.323 108.901 355.258 107.964 355.258C107.028 355.258 106.092 354.323 106.092 353.388Z" fill="white"/>
<path opacity="0.7" d="M85.5782 377.571C85.5782 376.636 86.5144 375.701 87.4505 375.701C88.3866 375.701 89.3228 376.636 89.3228 377.571C89.3228 378.506 88.3866 379.441 87.4505 379.441C86.0463 379.441 85.5782 378.506 85.5782 377.571Z" fill="white"/>
<path opacity="0.7" d="M9.70302 385.204C9.70302 384.269 10.6391 383.334 11.5752 383.334C12.5113 383.334 13.4474 384.269 13.4474 385.204C13.4474 386.139 12.5113 387.074 11.5752 387.074C10.171 387.074 9.70302 386.139 9.70302 385.204Z" fill="white"/>
<path opacity="0.7" d="M46.3088 410.554C46.3088 409.619 46.7768 409.152 47.713 409.152C48.6491 409.152 49.1172 409.619 49.1172 410.554C49.1172 411.489 48.6491 411.957 47.713 411.957C46.7768 411.957 46.3088 411.489 46.3088 410.554Z" fill="white"/>
<g opacity="0.7">
<path opacity="0.7" d="M273.665 373.969L273.197 366.956L266.176 366.488L273.197 366.021L273.665 359.008L274.133 366.021L281.154 366.488L274.133 366.956L273.665 373.969Z" fill="white"/>
<path opacity="0.7" d="M270.855 369.762L273.195 366.489L270.855 363.216L273.663 366.021L276.94 363.216L274.131 366.489L276.94 369.294L273.663 366.956L270.855 369.762Z" fill="white"/>
</g>
<g opacity="0.7">
<path opacity="0.7" d="M375.082 335.863L374.614 328.85L367.593 328.383L374.614 327.915L375.082 320.902L375.551 327.915L382.572 328.383L375.551 328.85L375.082 335.863Z" fill="white"/>
<path opacity="0.7" d="M372.272 331.656L374.613 328.384L372.272 325.111L375.081 327.916L378.357 325.111L375.549 328.384L378.357 331.189L375.081 328.851L372.272 331.656Z" fill="white"/>
</g>
<g opacity="0.7">
<path opacity="0.7" d="M322.632 697.203L321.696 690.658L315.143 689.723H321.696L322.632 682.242L323.1 689.723H330.121L323.1 690.658L322.632 697.203Z" fill="white"/>
<path opacity="0.7" d="M319.354 692.996L321.694 690.191L319.354 686.918L322.162 689.256L325.907 686.918L323.098 689.723L325.907 692.996L322.63 690.658L319.354 692.996Z" fill="white"/>
</g>
</svg>
