<svg width="216" height="172" viewBox="0 0 216 172" fill="none" xmlns="http://www.w3.org/2000/svg">
<path d="M211.728 42.5632C202.296 18.5636 173.242 4.1714 148.634 13.6956C120.544 24.5669 129.858 69.2451 104.344 78.2796C90.5619 83.1598 70.1879 64.9298 56.2635 62.1344C30.6046 56.9833 7.37622 75.0881 1.65645 100.16C-4.17892 125.738 5.18036 159.901 33.2831 166.844C66.7589 175.113 84.1962 145.021 112.279 136.38C141.097 127.512 173.14 148.455 196.997 122.974C214.623 104.15 221.067 66.3283 211.728 42.5632Z" fill="#FBF0E2"/>
<path opacity="0.2" d="M201.17 53.1224C201.17 36.4592 187.662 22.9512 170.999 22.9512C158.089 22.9512 147.079 31.0617 142.771 42.4629H33.6714C29.0114 42.4629 25.2339 46.2403 25.2339 50.9004V144.308C25.2339 148.968 29.0114 152.745 33.6714 152.745H182.329C186.989 152.745 190.767 148.968 190.767 144.308V75.9049C197.136 70.3728 201.17 62.2214 201.17 53.1224Z" fill="#7B8682"/>
<path d="M182.33 142.19H33.6714C29.0113 142.19 25.2339 138.413 25.2339 133.753V40.3457C25.2339 35.6857 29.0113 31.9082 33.6714 31.9082H182.329C186.989 31.9082 190.767 35.6857 190.767 40.3457V133.753C190.767 138.413 186.989 142.19 182.33 142.19Z" fill="#C6D0CD"/>
<path d="M190.767 40.3496V75.998C185.472 80.5923 178.562 83.3766 170.998 83.3766C154.334 83.3766 140.825 69.8682 140.825 53.2084C140.825 44.8974 144.188 37.367 149.626 31.9121H182.329C186.987 31.9121 190.767 35.6879 190.767 40.3496Z" fill="#A9B1AE"/>
<path d="M190.767 40.3496V50.9851L115.711 108.643C113.509 110.334 110.771 111.262 108 111.262C105.228 111.262 102.49 110.334 100.288 108.643L25.2319 50.9851V40.3496C25.2319 35.6879 29.0119 31.9121 33.6694 31.9121H182.33C186.987 31.9121 190.767 35.6879 190.767 40.3496Z" fill="#A9B1AE"/>
<path d="M110.571 72.1487L190.767 133.753C190.767 138.413 186.99 142.19 182.33 142.19H33.6714C29.0114 142.19 25.2339 138.413 25.2339 133.753L105.431 72.1487C106.946 70.9843 109.055 70.9843 110.571 72.1487Z" fill="#A9B1AE"/>
<path d="M136.893 92.3711L115.711 108.643C113.508 110.334 110.77 111.263 107.999 111.263C105.227 111.263 102.489 110.334 100.287 108.643L79.1045 92.3711L105.429 72.1506C106.944 70.9863 109.053 70.9863 110.568 72.1506L136.893 92.3711Z" fill="#7B8682"/>
<path d="M105.431 101.95L25.2339 40.3457C25.2339 35.6857 29.0113 31.9082 33.6714 31.9082H182.329C186.989 31.9082 190.767 35.6857 190.767 40.3457L110.571 101.95C109.055 103.114 106.946 103.114 105.431 101.95Z" fill="#C6D0CD"/>
<path d="M156.494 130.975H142.937C141.772 130.975 140.828 130.031 140.828 128.866V119.52C140.828 118.355 141.772 117.41 142.937 117.41H156.494C157.658 117.41 158.603 118.355 158.603 119.52V128.866C158.603 130.031 157.658 130.975 156.494 130.975Z" fill="#7B8682"/>
<path d="M131.57 122.371H119.828C118.663 122.371 117.719 121.427 117.719 120.262C117.719 119.097 118.663 118.152 119.828 118.152H131.57C132.735 118.152 133.68 119.097 133.68 120.262C133.68 121.427 132.735 122.371 131.57 122.371Z" fill="#7B8682"/>
<path d="M131.57 130.971H90.2969C89.1317 130.971 88.1875 130.026 88.1875 128.861C88.1875 127.697 89.1317 126.752 90.2969 126.752H131.57C132.735 126.752 133.679 127.697 133.679 128.861C133.679 130.026 132.735 130.971 131.57 130.971Z" fill="#7B8682"/>
<path d="M170.998 72.7389C187.661 72.7389 201.17 59.2308 201.17 42.5677C201.17 25.9046 187.661 12.3965 170.998 12.3965C154.335 12.3965 140.827 25.9046 140.827 42.5677C140.827 59.2308 154.335 72.7389 170.998 72.7389Z" fill="#FBE7CF"/>
<path d="M170.999 74.8483C188.798 74.8483 203.279 60.3674 203.279 42.5677C203.279 24.768 188.798 10.2871 170.999 10.2871C153.199 10.2871 138.718 24.768 138.718 42.5677C138.718 52.9222 143.624 62.1469 151.228 68.0578L109.285 100.277C108.53 100.859 107.472 100.859 106.715 100.277L27.4188 39.3644C27.8917 36.3396 30.5158 34.0176 33.671 34.0176H130.435C131.6 34.0176 132.544 33.073 132.544 31.9082C132.544 30.7434 131.6 29.7988 130.435 29.7988H33.6714C27.8558 29.7988 23.1245 34.5301 23.1245 40.3457V133.753C23.1245 139.568 27.8558 144.3 33.6714 144.3H182.329C188.145 144.3 192.876 139.568 192.876 133.753V78.0064C192.876 76.8416 191.932 75.897 190.767 75.897C189.602 75.897 188.658 76.8416 188.658 78.0064V129.473L133.431 87.0493L154.921 70.5413C159.659 73.2751 165.147 74.8483 170.999 74.8483ZM82.5696 87.0493L27.3433 129.473V44.626L82.5696 87.0493ZM188.574 134.729C188.102 137.755 185.486 140.081 182.329 140.081H33.6714C30.5145 140.081 27.898 137.755 27.4264 134.729L86.0328 89.7092L104.146 103.623C105.28 104.494 106.641 104.93 108.001 104.93C109.361 104.93 110.72 104.495 111.856 103.623L129.968 89.7088L188.574 134.729ZM142.937 42.5677C142.937 27.0946 155.525 14.5059 170.999 14.5059C186.472 14.5059 199.061 27.0942 199.061 42.5677C199.061 58.0412 186.472 70.6295 170.999 70.6295C155.525 70.6295 142.937 58.0408 142.937 42.5677Z" fill="#262626"/>
<path d="M157.826 32.2756L162.132 42.5647L157.826 52.8537C157.095 54.6011 158.859 56.3519 160.6 55.6077L186.596 44.5044C188.303 43.775 188.303 41.3543 186.596 40.6249L160.6 29.5216C158.859 28.7774 157.095 30.5282 157.826 32.2756Z" fill="#EBC699"/>
<path d="M139.565 12.2283C137.998 12.2283 136.431 11.6322 135.239 10.4396C132.854 8.05432 132.854 4.1735 135.239 1.78864C137.623 -0.595792 141.505 -0.596636 143.89 1.78864C146.275 4.17392 146.275 8.05475 143.89 10.4396C142.697 11.6322 141.131 12.2283 139.565 12.2283ZM139.565 4.21653C139.079 4.21653 138.592 4.40131 138.222 4.77172C137.482 5.51169 137.482 6.71614 138.222 7.45653C138.963 8.1965 140.166 8.19692 140.907 7.45653C141.647 6.71656 141.647 5.51211 140.907 4.77172C140.537 4.40173 140.05 4.21653 139.565 4.21653Z" fill="#C6D0CD"/>
<path d="M92.1974 171.551C90.631 171.551 89.0642 170.954 87.872 169.762C85.4867 167.377 85.4867 163.496 87.872 161.111C90.2564 158.726 94.1385 158.726 96.5229 161.111C98.9082 163.496 98.9082 167.377 96.5229 169.762C95.3307 170.955 93.7639 171.551 92.1974 171.551ZM92.1974 163.539C91.7114 163.539 91.225 163.724 90.8546 164.094C90.1147 164.834 90.1147 166.038 90.8546 166.779C91.5954 167.519 92.799 167.519 93.5399 166.779C94.2798 166.039 94.2798 164.834 93.5399 164.094C93.1699 163.724 92.6834 163.539 92.1974 163.539Z" fill="#C6D0CD"/>
<path d="M124.36 17.6539C123.82 17.6539 123.28 17.448 122.868 17.0362L120.352 14.5202L117.835 17.0362C117.012 17.8597 115.676 17.8597 114.853 17.0362C114.029 16.2123 114.029 14.8767 114.853 14.0532L118.861 10.0454C119.684 9.22186 121.02 9.22186 121.843 10.0454L125.851 14.0532C126.675 14.8771 126.675 16.2127 125.851 17.0362C125.44 17.4476 124.9 17.6539 124.36 17.6539Z" fill="#C5AE92"/>
<path d="M185.516 163.541C184.976 163.541 184.436 163.335 184.024 162.923L181.508 160.407L178.991 162.923C178.168 163.746 176.832 163.746 176.009 162.923C175.185 162.099 175.185 160.763 176.009 159.94L180.016 155.932C180.839 155.109 182.176 155.109 182.999 155.932L187.007 159.94C187.831 160.764 187.831 162.099 187.007 162.923C186.596 163.334 186.055 163.541 185.516 163.541Z" fill="#C5AE92"/>
<path d="M75.4686 165.544C74.929 165.544 74.3886 165.339 73.9773 164.927L71.4608 162.411L68.9443 164.927C68.1213 165.75 66.7848 165.75 65.9617 164.927C65.1378 164.103 65.1378 162.767 65.9617 161.944L69.9695 157.936C70.7926 157.112 72.1291 157.112 72.9521 157.936L76.96 161.944C77.7839 162.768 77.7839 164.103 76.96 164.927C76.5482 165.338 76.0082 165.544 75.4686 165.544Z" fill="#A9B1AE"/>
</svg>
