<svg width="460" height="373" viewBox="0 0 460 373" fill="none" xmlns="http://www.w3.org/2000/svg">
<path fill-rule="evenodd" clip-rule="evenodd" d="M344.033 135.353C346.365 132.245 346.309 126.672 343.884 120.445C341.566 114.494 338.031 113.605 336.13 113.605C333.371 113.605 331.096 115.313 330.151 116.899C325.886 124.052 324.634 129.519 326.429 133.149C327.637 135.591 330.228 137.199 334.128 137.927C335.265 138.14 336.341 138.248 337.327 138.248C337.327 138.248 337.328 138.248 337.328 138.248C340.336 138.248 342.593 137.273 344.033 135.353ZM337.328 137.621C337.328 137.621 337.328 137.621 337.328 137.621C336.385 137.621 335.353 137.518 334.259 137.313C330.581 136.626 328.152 135.137 327.039 132.886C325.338 129.449 326.582 124.172 330.737 117.204C331.59 115.772 333.642 114.231 336.13 114.231C339.109 114.231 341.639 116.515 343.253 120.659C345.603 126.694 345.69 132.053 343.484 134.993C342.176 136.737 340.105 137.621 337.328 137.621Z" fill="#FEBB69"/>
<path fill-rule="evenodd" clip-rule="evenodd" d="M119.261 291.07C119.262 291.07 119.262 291.07 119.262 291.07C124.72 291.07 130.469 286.086 134.642 277.739C137.523 271.973 136.584 268.497 135.287 266.597C133.56 264.064 130.471 263.161 128.157 263.161C127.392 263.161 126.663 263.253 125.99 263.431C115.515 266.216 109.274 269.986 107.441 274.635C106.211 277.754 106.974 281.276 109.705 285.103C112.533 289.062 115.748 291.07 119.261 291.07ZM108.071 274.85C109.825 270.401 115.916 266.761 126.174 264.033C126.786 263.87 127.454 263.788 128.157 263.788C130.293 263.788 133.14 264.615 134.721 266.934C135.927 268.701 136.787 271.965 134.034 277.473C130.034 285.475 124.375 290.444 119.262 290.444H119.261C115.986 290.443 112.959 288.529 110.264 284.755C107.658 281.104 106.919 277.772 108.071 274.85Z" fill="#FEBB69"/>
<path fill-rule="evenodd" clip-rule="evenodd" d="M158.372 180.342C158.373 180.342 158.374 180.342 158.375 180.342C165.163 180.342 171.972 177.095 178.613 170.689C186.932 162.665 189.953 154.843 187.593 147.44C184.278 137.045 170.137 128.263 149.763 123.949C145.987 123.15 142.455 122.744 139.265 122.744C128.66 122.744 123.634 127.107 121.285 130.767C117.575 136.548 118.451 143.66 120.835 147.823C133.193 169.399 145.822 180.34 158.372 180.342ZM121.861 131.089C124.12 127.568 128.974 123.37 139.265 123.37C142.405 123.37 145.887 123.771 149.616 124.56C169.749 128.824 183.706 137.443 186.949 147.618C189.236 154.789 186.269 162.404 178.13 170.254C171.621 176.532 164.975 179.716 158.375 179.715C158.374 179.715 158.372 179.715 158.372 179.715C146.089 179.713 133.659 168.884 121.427 147.528C119.129 143.516 118.285 136.66 121.861 131.089Z" fill="#FEBB69"/>
<path fill-rule="evenodd" clip-rule="evenodd" d="M160.105 165.896C160.106 165.896 160.106 165.896 160.107 165.896C163.542 165.896 166.954 164.285 170.246 161.11C174.392 157.111 175.884 153.166 174.678 149.385C173.029 144.212 166.136 139.873 156.24 137.778C154.4 137.388 152.674 137.191 151.109 137.191C145.717 137.191 143.133 139.454 141.914 141.353C139.987 144.356 140.409 147.943 141.682 150.165C147.66 160.602 153.859 165.895 160.105 165.896ZM143.641 142.32C145.006 140.194 147.588 139.071 151.109 139.071C152.524 139.071 154.101 139.252 155.795 139.611C164.835 141.525 171.331 145.476 172.749 149.921C173.731 153.003 172.402 156.328 168.8 159.803C165.901 162.599 162.976 164.017 160.107 164.017H160.106C154.66 164.016 149.058 159.057 143.457 149.279C142.485 147.58 142.127 144.678 143.641 142.32Z" fill="#FEBB69"/>
<path fill-rule="evenodd" clip-rule="evenodd" d="M356.702 125.927C356.702 107.029 343.588 88.7505 332.731 86.2172C331.123 85.8418 329.817 85.6595 328.738 85.6595C327.179 85.6595 326.053 86.0436 325.296 86.8356C323.873 88.3219 324.175 90.8082 324.555 93.955C324.792 95.915 325.061 98.1363 324.962 100.475C324.74 105.759 321.688 108.065 317.825 110.983C315.678 112.606 313.244 114.445 311.201 117.011C307.704 121.405 305.306 128.712 307.83 135.132C309.456 139.27 313.885 144.745 325.741 147.315C330.83 148.418 335.061 148.955 338.675 148.955C354.518 148.955 356.702 137.887 356.702 125.927ZM309.72 134.484C307.455 128.723 309.644 122.12 312.817 118.132C314.708 115.756 316.936 114.073 319.092 112.445C323.013 109.482 326.716 106.685 326.974 100.549C327.078 98.0674 326.801 95.7709 326.556 93.7438C326.244 91.1704 325.975 88.9466 326.797 88.0876C327.151 87.7185 327.786 87.5393 328.738 87.5393C329.638 87.5393 330.816 87.7072 332.243 88.0406C342.409 90.4135 354.688 107.842 354.688 125.927C354.688 141.343 350.348 147.075 338.675 147.075C335.216 147.075 331.134 146.554 326.196 145.484C317.381 143.573 311.838 139.871 309.72 134.484Z" fill="#FBF0E2"/>
<path fill-rule="evenodd" clip-rule="evenodd" d="M156.864 253.86C161.101 253.86 166.768 248.34 169.403 243.184C171.658 238.772 171.681 234.937 169.468 232.384C167.949 230.631 166.248 229.742 164.414 229.742C162.595 229.742 160.79 230.612 159.052 232.328C155.237 236.093 152.389 243.482 152.705 248.8C152.966 253.203 155.423 253.86 156.864 253.86ZM160.514 233.62C161.438 232.709 162.864 231.622 164.414 231.622C165.611 231.622 166.785 232.276 167.903 233.566C170.194 236.209 168.688 240.22 167.586 242.374C165.062 247.312 159.852 251.98 156.864 251.98C156.381 251.98 154.91 251.98 154.715 248.696C154.431 243.907 157.086 237.003 160.514 233.62Z" fill="#FEBB69"/>
<path fill-rule="evenodd" clip-rule="evenodd" d="M368.35 159.261C374.457 152.663 376.804 143.571 375.139 132.971C370.503 103.459 355.454 92.7796 344.465 84.9822C337.7 80.1819 332.357 76.3904 332.077 69.9082C331.317 52.3567 325.104 47.9611 302.558 40.9445C283.962 35.1566 282.035 31.4171 277.378 22.3835C276.448 20.5801 275.394 18.5349 274.079 16.239C271.364 11.4963 268.304 8.88533 265.465 8.88533C264.228 8.88533 263.092 9.37531 262.085 10.3415C258.991 13.311 257.451 20.4404 257.748 30.4158C258.163 44.3657 266.297 53.1311 275.717 63.2807C281.739 69.7691 288.563 77.1229 293.963 86.7449C301.484 100.145 300.477 107.842 299.203 117.587C298.181 125.395 297.023 134.246 300.076 148.078C303.333 162.837 321.734 170.56 338.227 170.56C350.726 170.56 361.706 166.442 368.35 159.261ZM300.733 147.952C297.703 134.22 298.854 125.423 299.868 117.662C301.107 108.2 302.176 100.027 294.558 86.4535C289.122 76.7669 282.27 69.3844 276.224 62.8709C266.889 52.8116 258.827 44.1244 258.419 30.3982C258.127 20.5932 259.6 13.6255 262.566 10.7783C263.441 9.93738 264.417 9.51193 265.465 9.51193C268.007 9.51193 270.931 12.0709 273.487 16.5342C274.795 18.8187 275.846 20.857 276.773 22.6554C281.379 31.59 283.48 35.6679 302.346 41.5391C324.546 48.4479 330.663 52.7608 331.406 69.9339C331.7 76.7105 337.154 80.5804 344.059 85.481C354.956 93.2138 369.879 103.804 374.475 133.061C376.134 143.626 373.903 152.302 367.843 158.851C361.325 165.895 350.531 169.933 338.227 169.933C322.005 169.933 303.917 162.383 300.733 147.952Z" fill="#FEBB69"/>
<path fill-rule="evenodd" clip-rule="evenodd" d="M105.132 53.2732C105.883 73.2159 106.734 95.8184 136.199 107.118C145.122 110.54 153.259 112.919 160.438 115.019C184.366 122.018 200.174 126.642 214.145 159.493C233.767 205.635 257.495 228.968 286.684 230.826C288.135 230.918 289.547 230.964 290.922 230.964C303.806 230.964 313.298 226.951 317.283 219.691C322.074 210.964 318.332 198.963 306.747 185.9C290.071 167.097 288.538 153.676 286.598 136.685C285.79 129.606 284.954 122.285 282.958 113.718C278.977 96.6336 269.321 84.952 259.983 73.6551C253.12 65.3521 246.637 57.509 242.639 47.9114C235.095 29.799 237.065 7.90201 238.13 0H236.103C235.011 8.2717 233.138 30.2853 240.763 48.5932C244.866 58.4426 251.435 66.3897 258.39 74.8037C267.591 85.9351 277.106 97.4463 280.991 114.119C282.964 122.585 283.794 129.854 284.596 136.885C286.494 153.505 288.133 167.859 305.197 187.1C316.236 199.547 319.892 210.818 315.491 218.834C311.466 226.167 301.018 229.851 286.821 228.951C258.484 227.147 235.324 204.2 216.016 158.799C201.692 125.116 185.519 120.385 161.04 113.225C153.899 111.137 145.807 108.77 136.964 105.379C108.7 94.5408 107.873 72.5818 107.144 53.2074C106.901 46.7748 106.673 40.6999 105.485 35.3156C102.029 19.6425 93.1739 6.26031 88.4902 0H86.0239C90.2949 5.5341 99.9092 19.3493 103.514 35.6953C104.667 40.9236 104.892 46.9226 105.132 53.2732Z" fill="#EBC699"/>
<path fill-rule="evenodd" clip-rule="evenodd" d="M127.79 46.2803C129.758 64.2354 131.793 82.8014 155.525 95.6848C166.566 101.678 176.332 104.997 184.947 107.926C199.521 112.879 211.033 116.792 221.633 130.649C224.561 134.476 227.265 138.196 229.879 141.793C240.734 156.73 249.017 168.127 259.456 168.127C261.243 168.127 263.095 167.793 265.032 167.085C267.382 166.226 269.023 164.223 269.906 161.13C274.638 144.575 256.916 100.623 244.694 86.403C243.926 85.5101 243.121 84.5834 242.287 83.6235C228.188 67.3928 204.834 40.498 211.436 -0.000137329H210.757C204.159 40.7161 227.606 67.718 241.766 84.0182C242.599 84.9776 243.403 85.903 244.17 86.7947C256.318 100.929 273.947 144.563 269.257 160.969C268.432 163.858 266.928 165.719 264.787 166.501C252.031 171.163 242.974 158.695 230.434 141.441C227.818 137.841 225.112 134.118 222.179 130.284C211.458 116.27 199.86 112.328 185.177 107.337C176.587 104.417 166.852 101.108 155.863 95.1428C132.426 82.4204 130.408 64.0154 128.457 46.2164C127.977 41.8314 127.48 37.2961 126.674 32.9031C123.77 17.0909 117.373 5.42305 113.918 -0.000137329H113.137C116.503 5.2169 123.064 16.9531 126.012 33.009C126.815 37.3813 127.311 41.9054 127.79 46.2803Z" fill="#FEBB69"/>
<path fill-rule="evenodd" clip-rule="evenodd" d="M196.791 89.6227L197.896 90.015C203.795 92.1097 208.787 93.1611 212.576 93.1611C215.952 93.1611 218.371 92.3259 219.621 90.6491C222.149 87.2586 219.591 81.0302 212.602 73.5618C199.081 59.1119 186.792 30.2459 190.708 9.15527e-05H190.033C186.124 30.41 198.492 59.434 212.097 73.9741C218.767 81.1016 221.373 87.2016 219.071 90.2907C216.608 93.5935 208.978 93.2796 198.135 89.4291L197.029 89.0375C173.966 80.8554 157.302 74.9435 153.297 45.026C150.25 22.27 143.349 6.51292 140.054 9.15527e-05H139.311C142.52 6.28109 149.549 22.0851 152.631 45.1044C156.686 75.3959 174.384 81.6744 196.791 89.6227Z" fill="#FEBB69"/>
<path fill-rule="evenodd" clip-rule="evenodd" d="M237.966 136.189C243.07 144.574 247.893 152.494 253.872 152.495C254.188 152.495 254.509 152.472 254.824 152.427C256.015 152.255 257.526 151.47 257.955 148.699C259.583 138.187 244.971 106.759 234.621 102.211C232.787 101.405 231.065 100.996 229.503 100.996C226.7 100.996 224.516 102.3 223.351 104.666C221.357 108.715 222.434 116.163 229.333 123.67C232.331 126.933 235.196 131.638 237.966 136.189ZM225.18 105.452C226.009 103.767 227.504 102.876 229.503 102.876C230.767 102.876 232.2 103.225 233.764 103.912C243.13 108.027 257.427 138.971 255.962 148.43C255.656 150.405 254.799 150.528 254.518 150.569C254.303 150.6 254.086 150.615 253.872 150.615H253.872C249.064 150.615 244.312 142.809 239.716 135.259C236.899 130.631 233.985 125.846 230.861 122.446C224.576 115.607 223.511 108.842 225.18 105.452Z" fill="#FEBB69"/>
<path fill-rule="evenodd" clip-rule="evenodd" d="M92.6805 225.009C92.8878 225.009 93.1019 225.004 93.32 224.994C101.83 224.6 122.139 206.1 124.183 198.522C124.682 196.671 123.989 195.833 123.321 195.456C122.61 195.056 121.793 194.853 120.893 194.853C117.014 194.853 111.996 198.517 106.682 202.397C103.258 204.898 99.7177 207.484 96.5152 209.008C88.9451 212.611 85.7828 218.139 86.6505 221.511C87.2223 223.734 89.4202 225.009 92.6805 225.009ZM96.8199 209.566C100.081 208.014 103.647 205.41 107.097 202.891C112.316 199.08 117.246 195.479 120.893 195.479C121.68 195.479 122.36 195.647 122.974 195.992C123.665 196.382 123.852 197.181 123.532 198.369C121.525 205.812 101.621 223.982 93.2865 224.368C89.9564 224.519 87.8364 223.44 87.3029 221.365C86.4955 218.225 89.5564 213.024 96.8199 209.566Z" fill="#FEBB69"/>
<path fill-rule="evenodd" clip-rule="evenodd" d="M292.651 219.405C294.634 219.871 295.531 219.224 295.935 218.6C296.364 217.936 296.581 217.174 296.581 216.333C296.581 212.712 292.657 208.027 288.501 203.066C285.822 199.869 283.053 196.563 281.42 193.572C277.561 186.505 271.64 183.552 268.029 184.362C265.648 184.896 264.282 186.948 264.282 189.993C264.282 190.185 264.288 190.385 264.299 190.589C264.721 198.535 284.535 217.498 292.651 219.405ZM268.186 184.971C271.548 184.217 277.119 187.075 280.822 193.857C282.484 196.901 285.275 200.231 287.972 203.452C292.054 208.325 295.91 212.928 295.91 216.333C295.91 217.068 295.73 217.704 295.361 218.276C294.944 218.921 294.087 219.097 292.815 218.798C284.843 216.924 265.383 198.34 264.969 190.558C264.808 187.449 265.963 185.47 268.186 184.971Z" fill="#FEBB69"/>
<path fill-rule="evenodd" clip-rule="evenodd" d="M315.569 82.2443C317.95 81.7104 319.316 79.6577 319.316 76.6137C319.316 76.4207 319.311 76.2208 319.299 76.0172C318.877 68.0713 299.063 49.1087 290.947 47.2007C288.964 46.7351 288.067 47.3818 287.664 48.0065C287.234 48.67 287.017 49.4326 287.017 50.2735C287.017 53.894 290.942 58.5796 295.098 63.5404C297.776 66.7373 300.545 70.0432 302.178 73.0339C306.037 80.1013 311.958 83.0539 315.569 82.2443ZM302.776 72.7495C301.114 69.7048 298.324 66.3751 295.626 63.1544C291.544 58.2814 287.688 53.6784 287.688 50.2735C287.688 49.5379 287.868 48.9025 288.238 48.3298C288.654 47.685 289.511 47.5096 290.783 47.8085C298.755 49.6826 318.215 68.2662 318.629 76.0479C318.79 79.1577 317.635 81.1365 315.412 81.6352C312.05 82.389 306.479 79.5311 302.776 72.7495Z" fill="#FEBB69"/>
<path fill-rule="evenodd" clip-rule="evenodd" d="M32.6647 319.52C30.6923 303.264 28.8293 287.91 33.9559 283.209C35.3062 281.971 37.1255 281.511 39.5214 281.806C52.3517 283.382 64.1028 296.724 75.4674 309.627C86.6259 322.296 98.1649 335.397 111.123 337.879C132.891 342.047 140.953 331.304 160.426 305.344C165.511 298.565 171.274 290.881 178.307 282.073C204.339 249.468 226.995 255.026 253.231 261.464C261.031 263.378 269.097 265.356 277.737 266.509C301.057 269.62 320.179 265.532 330.195 255.295C337.774 247.548 340.013 236.484 336.672 223.299C329.512 195.05 337.026 193.23 353.49 189.241C355.8 188.682 358.19 188.103 360.756 187.402C372.639 184.152 382.584 176.156 388.759 164.886C396.094 151.498 397.986 133.644 394.23 113.257C386.159 69.4519 355.285 50.0249 318.781 30.8624C294.356 18.041 288.479 5.61932 287.076 0H284.965C286.229 5.90503 292.016 18.9683 317.795 32.5009C353.842 51.4235 384.325 70.5854 392.246 113.575C395.928 133.559 394.102 151.006 386.966 164.03C381.046 174.835 371.537 182.495 360.191 185.598C357.654 186.291 355.28 186.866 352.984 187.422C336.294 191.465 327.1 193.692 334.713 223.732C337.893 236.284 335.817 246.76 328.708 254.027C319.149 263.798 300.675 267.67 278.022 264.648C269.496 263.511 261.487 261.546 253.742 259.646C226.802 253.035 203.536 247.328 176.693 280.95C169.642 289.781 163.87 297.476 158.776 304.266C139.293 330.24 132.005 339.96 111.528 336.038C99.2676 333.69 87.9587 320.85 77.0223 308.432C65.4095 295.248 53.402 281.615 39.7845 279.942C36.7779 279.572 34.3411 280.221 32.5452 281.868C26.7187 287.211 28.5468 302.282 30.6641 319.731C33.0935 339.748 35.8115 362.218 27.1052 373H29.5568C37.7215 361.26 35.0565 339.226 32.6647 319.52Z" fill="#EBC699"/>
<path fill-rule="evenodd" clip-rule="evenodd" d="M-80.6012 135.527C-72.9022 146.185 -63.3208 159.448 -47.7195 159.448C-37.8509 159.448 -30.5337 156.892 -23.4569 154.419C-13.6923 151.007 -5.25978 148.061 7.9161 152.428C16.1996 155.174 24.108 160.387 32.4814 165.905C44.9224 174.105 57.7225 182.542 72.1399 182.541C74.6445 182.541 77.2001 182.286 79.8087 181.731C92.2852 179.077 100.803 173.278 104.441 164.962C108.988 154.569 105.76 140.894 95.1073 125.419C81.065 105.017 82.7193 87.2903 84.4715 68.5231C85.1755 60.9777 85.9037 53.1759 85.7104 44.8165C85.2057 22.969 74.5995 6.95567 69.0125 -0.000167847H66.4804C71.5252 5.98318 83.1743 22.1989 83.6977 44.8572C83.889 53.1145 83.1649 60.8649 82.4656 68.3596C80.6831 87.4564 78.9993 105.493 93.4134 126.434C103.696 141.373 106.865 154.45 102.577 164.252C99.1983 171.975 91.1705 177.387 79.361 179.898C62.6102 183.46 47.884 173.756 33.6424 164.369C25.5267 159.021 17.1345 153.49 8.58989 150.657C-5.27724 146.06 -14.4506 149.266 -24.1622 152.659C-31.0713 155.072 -38.2153 157.569 -47.7195 157.569C-62.2504 157.569 -71.4996 144.764 -78.9321 134.475C-83.193 128.577 -86.8727 123.483 -90.9121 121.361C-96.7541 118.294 -101.638 117.065 -105 116.594V118.504C-101.857 118.978 -97.3158 120.155 -91.8993 123.001C-88.276 124.904 -84.7191 129.826 -80.6012 135.527Z" fill="#EBC699"/>
<path fill-rule="evenodd" clip-rule="evenodd" d="M-63.8697 279.239C-50.3482 276.25 -41.8057 267.421 -33.545 258.884C-25.7071 250.783 -18.3034 243.132 -7.24289 241.006C1.06409 239.41 12.3622 240.386 25.4448 241.516C47.7659 243.443 75.5458 245.844 98.7997 235.193C114.174 228.152 123.128 218.847 127.933 212.283C133.895 204.135 136.742 195.551 135.549 189.32C134.578 184.25 131.102 181.176 125.763 180.665C116.663 179.793 109.66 185.468 102.243 191.475C94.1375 198.039 85.7581 204.831 73.8942 203.589C62.6981 202.421 50.4168 196.818 38.5402 191.399C26.0737 185.711 13.1823 179.829 1.49562 179.091C-6.12482 178.611 -14.6613 180.691 -23.6985 182.895C-41.444 187.222 -59.7934 191.697 -72.1727 176.423C-85.5882 159.872 -98.2923 155.351 -105 154.15V156.119C-98.5721 157.405 -86.4559 161.917 -73.7787 177.558C-60.5873 193.832 -40.7198 188.988 -23.1898 184.714C-14.3157 182.549 -5.93423 180.509 1.35938 180.966C12.6528 181.68 25.3636 187.479 37.6563 193.088C49.6873 198.577 62.1276 204.253 73.6707 205.457C86.409 206.795 95.522 199.407 103.563 192.895C110.641 187.162 117.326 181.748 125.558 182.535C131.153 183.071 133.001 186.701 133.567 189.651C135.599 200.259 124.339 221.402 97.9132 233.506C75.1673 243.925 47.7015 241.551 25.6301 239.644C12.3884 238.499 0.95269 237.512 -7.64892 239.165C-19.3551 241.415 -26.9735 249.289 -35.0389 257.624C-43.0935 265.947 -51.422 274.556 -64.3335 277.41C-82.5017 281.428 -97.7493 279.723 -105 278.415V280.325C-101.018 281.023 -94.9179 281.794 -87.3968 281.794C-80.5515 281.794 -72.5317 281.155 -63.8697 279.239Z" fill="#FBF0E2"/>
<path fill-rule="evenodd" clip-rule="evenodd" d="M2.96801 341.68C1.83518 331.432 0.551346 319.815 2.39757 307.612C5.61217 286.364 4.93839 276.016 -0.00366211 270.703C-2.60421 267.909 -6.51408 266.55 -11.9581 266.55C-20.5872 266.55 -27.7211 273.253 -35.9805 281.014C-42.4795 287.12 -49.8449 294.041 -58.7425 297.935C-73.6035 304.44 -95.489 303.667 -105 302.938V304.843C-95.2374 305.612 -73.2827 306.375 -57.8881 299.638C-48.6678 295.602 -41.1688 288.556 -34.5524 282.339C-26.6098 274.876 -19.7497 268.43 -11.9581 268.43C-7.06506 268.43 -3.74911 269.545 -1.52371 271.936C2.92708 276.72 3.48544 286.98 0.404373 307.348C-1.47675 319.78 -0.179497 331.517 0.965416 341.873C2.40427 354.895 3.5673 365.466 -1.67071 373H0.672157C5.53367 364.947 4.33305 354.035 2.96801 341.68Z" fill="#FBF0E2"/>
<path fill-rule="evenodd" clip-rule="evenodd" d="M86.5968 292.765C95.1944 304.504 103.315 315.592 114.738 315.592C128.542 315.592 142.139 300.674 157.883 283.4C168.478 271.776 179.433 259.757 191.443 251.327C199.48 245.686 208.736 242.944 219.739 242.944C231.831 242.944 243.368 246.265 252.638 248.933C258.55 250.635 263.22 251.979 266.429 251.979C267.988 251.979 269.15 251.66 269.982 251.003C270.895 250.281 271.357 249.181 271.357 247.733C271.357 240.796 262.764 234.287 251.885 226.047C243.665 219.821 234.347 212.764 226.52 203.924C216.772 192.916 212.957 181.683 210.171 173.481C207.68 166.145 206.034 161.299 201.626 160.763C201.46 160.743 201.293 160.733 201.128 160.733C197.885 160.733 194.921 164.379 190.817 169.424C183.849 177.99 174.307 189.722 158.104 189.723C158.103 189.723 158.101 189.723 158.101 189.723C156.666 189.723 155.183 189.629 153.694 189.444C153.304 189.395 152.923 189.37 152.564 189.37C147.148 189.37 146.104 194.446 144.659 201.471C142.47 212.12 139.161 228.213 118.554 240.569C105.993 248.101 88.686 251.609 64.0919 251.609C55.7413 251.609 47.6289 251.218 40.4722 250.874C34.5322 250.587 29.4022 250.34 25.0058 250.34C17.6149 250.34 13.66 251.076 11.7823 252.799C9.20791 255.163 9.34951 257.216 9.92196 258.521C12.5608 264.541 30.6613 268.43 56.0352 268.43C68.7742 268.43 77.8348 280.801 86.5968 292.765ZM11.7856 257.81C11.6018 257.39 11.0427 256.115 13.1936 254.14C15.068 252.419 20.8328 252.22 25.0058 252.22C29.3506 252.22 34.4564 252.466 40.3682 252.751C47.5497 253.097 55.6889 253.489 64.0919 253.489C89.0893 253.489 106.741 249.886 119.642 242.151C140.976 229.359 144.383 212.79 146.637 201.825C148.215 194.146 149.107 190.774 153.427 191.306C155.005 191.503 156.577 191.603 158.101 191.603C158.101 191.603 158.103 191.603 158.104 191.603C175.306 191.602 185.198 179.441 192.42 170.561C195.889 166.296 198.885 162.613 201.128 162.613C201.207 162.613 201.287 162.617 201.366 162.627C204.503 163.008 206.075 167.64 208.252 174.049C211.088 182.399 214.971 193.833 224.967 205.122C232.923 214.106 242.323 221.226 250.617 227.507C261.08 235.432 269.344 241.692 269.344 247.733C269.344 248.615 269.127 249.215 268.681 249.568C268.234 249.921 267.477 250.099 266.429 250.099C263.524 250.099 258.754 248.726 253.231 247.137C243.832 244.431 232.134 241.064 219.739 241.064C208.283 241.064 198.632 243.929 190.233 249.824C178.045 258.379 167.016 270.48 156.35 282.182C141.571 298.397 127.612 313.712 114.738 313.712C104.377 313.712 96.5474 303.022 88.2585 291.704C79.2019 279.338 69.8366 266.55 56.0352 266.55C28.2654 266.55 13.6312 262.02 11.7856 257.81Z" fill="#FEBB69"/>
<path fill-rule="evenodd" clip-rule="evenodd" d="M-70.8661 263.337C-58.1405 261.11 -47.8833 252.817 -38.8327 245.501C-32.3014 240.221 -26.1333 235.234 -20.0416 233.373C-12.0293 230.926 0.789604 231.783 14.3614 232.692C25.7576 233.455 37.5416 234.244 48.5545 233.387C61.2431 232.4 69.6112 229.151 69.8736 225.111C70.0823 221.902 65.312 219.115 56.7856 217.466C45.5694 215.296 37.5577 211.024 29.8104 206.892C23.9785 203.783 17.9485 200.568 10.6865 198.361C4.26932 196.411 -5.97787 198.708 -17.8411 201.365C-37.2113 205.704 -59.1659 210.621 -71.3654 198.445C-85.0479 184.789 -98.2064 179 -105 176.731V177.392C-98.2299 179.682 -85.3137 185.442 -71.8553 198.874C-59.3887 211.315 -37.2328 206.352 -17.6847 201.974C-6.40871 199.449 4.24045 197.064 10.4791 198.957C17.6754 201.144 23.6751 204.343 29.4768 207.437C37.2704 211.592 45.3291 215.89 56.6494 218.08C64.694 219.636 69.387 222.25 69.2038 225.073C69.0065 228.114 62.5276 231.671 48.4987 232.763C37.5389 233.614 25.7804 232.829 14.4098 232.067C0.771477 231.154 -12.1125 230.291 -20.2497 232.777C-26.4702 234.678 -32.688 239.705 -39.2722 245.027C-48.2577 252.291 -58.4425 260.525 -70.9895 262.722C-85.7821 265.31 -98.4761 262.567 -105 260.584V261.241C-100.299 262.653 -92.5932 264.403 -83.2708 264.403C-79.3831 264.403 -75.2128 264.098 -70.8661 263.337Z" fill="#FEBB69"/>
<path fill-rule="evenodd" clip-rule="evenodd" d="M-67.3756 244.212C-59.4458 242.233 -53.2957 238.383 -47.3477 234.661C-37.9213 228.761 -28.1721 222.661 -11.0152 223.828C5.55786 224.955 15.2527 223.506 17.8009 219.522C18.9908 217.662 18.6297 215.303 16.7278 212.512C13.6092 207.935 -2.64242 209.906 -21.4603 212.187C-32.3766 213.51 -43.6646 214.878 -53.2501 215.061C-72.8176 215.446 -95.4192 206.626 -105 202.44V203.129C-95.4145 207.293 -73.68 215.7 -54.4615 215.699C-54.0534 215.699 -53.642 215.695 -53.2367 215.688C-43.6143 215.505 -32.3081 214.134 -21.3744 212.809C-3.55782 210.649 13.2709 208.609 16.1614 212.849C17.9163 215.423 18.274 217.56 17.2251 219.201C14.8171 222.964 5.3337 224.312 -10.9669 223.203C-28.3566 222.024 -38.2011 228.181 -47.7208 234.14C-53.6232 237.834 -59.727 241.654 -67.5488 243.606C-82.032 247.223 -97.4353 245.654 -105 244.476V245.11C-100.92 245.741 -94.6414 246.473 -87.4659 246.473C-81.1622 246.473 -74.1699 245.908 -67.3756 244.212Z" fill="#FEBB69"/>
<path fill-rule="evenodd" clip-rule="evenodd" d="M117.024 300.707C117.026 300.707 117.025 300.707 117.026 300.707C124.1 300.707 131.23 296.241 138.217 287.434C142.567 281.951 149.077 275.841 155.97 269.374C170.81 255.451 186.154 241.053 183.325 229.951C180.513 218.918 168.964 210.675 160.518 210.675C156.823 210.675 154.239 212.31 153.241 215.281C141.033 251.596 119.301 258.346 101.732 260.169C93.6697 261.005 89.3867 262.771 87.8451 265.893C85.8714 269.89 88.3579 275.927 96.7132 287.424C103.118 296.236 109.952 300.706 117.024 300.707ZM88.4545 266.155C89.8672 263.294 94.11 261.589 101.806 260.792C113.452 259.583 122.507 256.404 130.301 250.788C140.697 243.296 148.411 231.743 153.881 215.468C155.039 212.024 158.129 211.301 160.518 211.301C167.768 211.301 179.703 218.451 182.672 230.097C185.414 240.858 170.204 255.13 155.494 268.932C148.584 275.417 142.057 281.541 137.677 287.061C130.824 295.7 123.876 300.08 117.026 300.08C117.026 300.08 117.025 300.08 117.025 300.08C110.188 300.079 103.542 295.703 97.2682 287.072C89.1726 275.932 86.619 269.872 88.4545 266.155Z" fill="#FEBB69"/>
<path fill-rule="evenodd" clip-rule="evenodd" d="M228.05 231.995C228.052 231.995 228.052 231.995 228.054 231.995C236.137 231.995 237.887 229.208 237.93 226.868C238.049 220.439 233.639 218.151 228.056 215.256C223.022 212.645 216.757 209.396 211.042 201.937C207.918 197.858 205.928 194.796 204.477 192.559C202.104 188.904 201.021 187.236 198.701 187.236C197.245 187.236 195.593 187.944 192.595 189.231C191.938 189.513 191.218 189.821 190.425 190.154C188.351 191.027 186.327 191.703 184.369 192.358C179.588 193.957 175.459 195.338 174.043 198.699C172.894 201.425 173.708 205.131 176.606 210.362C182.985 221.882 213.182 231.993 228.05 231.995ZM175.916 199.387C176.998 196.819 180.55 195.632 185.048 194.128C186.949 193.492 189.106 192.771 191.252 191.869C192.051 191.533 192.775 191.223 193.435 190.939C195.995 189.841 197.685 189.115 198.701 189.115C199.833 189.115 200.576 190.177 202.755 193.534C204.224 195.796 206.235 198.894 209.405 203.031C215.384 210.833 221.868 214.197 227.078 216.899C232.459 219.69 236.015 221.534 235.917 226.836C235.865 229.689 230.969 230.115 228.054 230.115C228.053 230.115 228.051 230.115 228.051 230.115C213.666 230.114 184.28 220.128 178.394 209.5C175.819 204.849 175.008 201.541 175.916 199.387Z" fill="#FEBB69"/>
<path fill-rule="evenodd" clip-rule="evenodd" d="M-82.0253 109.762C-74.0578 117.861 -65.8206 126.235 -53.3501 130.127C-40.0876 134.264 -30.5579 133.409 -20.4671 132.504C-12.1158 131.753 -3.48065 130.979 7.49601 133.321C17.162 135.384 28.4541 143.02 39.3743 150.404C52.2234 159.092 64.5168 167.406 74.3875 167.405C77.1887 167.405 79.7952 166.735 82.1636 165.215C93.9557 157.642 87.5157 147.026 80.059 134.734C76.0082 128.056 71.8191 121.152 69.8702 113.843C66.6368 101.719 67.6368 90.834 68.7951 78.23C69.6407 69.0285 70.5145 59.5136 69.8796 48.2355C68.7079 27.4338 53.2448 7.70792 46.4613 0.000152588H45.5922C52.1248 7.34698 68.0267 27.269 69.2092 48.2687C69.842 59.5036 68.9696 68.9959 68.126 78.1761C66.963 90.8365 65.9583 101.77 69.2186 113.995C71.1903 121.386 75.4022 128.329 79.4751 135.042C86.7694 147.067 93.0685 157.451 81.7838 164.698C79.5402 166.139 77.0591 166.775 74.3794 166.774C64.7289 166.773 52.5241 158.522 39.7683 149.896C28.793 142.476 17.4445 134.802 7.64566 132.711C-3.43636 130.346 -12.1266 131.125 -20.5309 131.88C-30.5478 132.779 -40.0091 133.629 -53.1367 129.531C-65.4435 125.692 -73.6216 117.378 -81.5306 109.339C-88.3209 102.436 -95.3166 95.3355 -105 90.8227V91.5289C-95.577 96.0022 -88.6994 102.977 -82.0253 109.762Z" fill="#FEBB69"/>
<path fill-rule="evenodd" clip-rule="evenodd" d="M-57.5593 96.2188C-44.5753 115.335 -29.9304 115.728 -14.4251 116.144C-8.66362 116.299 -2.70553 116.459 3.28143 117.613C12.9924 119.487 22.8335 125.132 31.5164 130.112C40.2153 135.102 47.9901 139.561 54.13 139.561C55.8682 139.561 57.4755 139.204 58.9359 138.4C64.3671 135.409 61.6841 129.782 57.6225 121.262C52.6898 110.914 45.2345 95.2745 47.4955 73.7986C51.4335 36.3958 41.9709 17.1605 24.9643 -3.05176e-05H24.0422C41.1884 17.1455 50.7732 36.2592 46.8277 73.7378C44.5493 95.3779 52.0476 111.108 57.0098 121.517C61.0633 130.021 63.5101 135.154 58.5949 137.86C52.3234 141.313 42.8447 135.875 31.868 129.579C23.1382 124.57 13.2434 118.895 3.41702 117C-2.62699 115.834 -8.6153 115.673 -14.4056 115.518C-29.7277 115.107 -44.1995 114.718 -56.9922 95.8835C-70.6996 75.7015 -94.8065 66.8264 -105 63.847V64.503C-94.7864 67.5107 -71.0687 76.3288 -57.5593 96.2188Z" fill="#FEBB69"/>
<path fill-rule="evenodd" clip-rule="evenodd" d="M-53.5239 65.6317C-50.5106 69.9113 -48.3107 73.8908 -46.3699 77.401C-40.64 87.7655 -36.8542 94.613 -20.1966 96.9984C-11.1837 98.2886 -2.99075 100.953 4.23776 103.305C11.7924 105.763 18.2404 107.86 23.6925 107.86C26.0622 107.86 28.244 107.464 30.2466 106.529C37.6664 103.065 36.2275 94.2245 33.8444 79.5778C32.6344 72.1401 31.1278 62.8828 30.4311 52.0464C28.8487 27.4269 10.2683 7.66026 1.97009 0.0001297H1.01442C8.9778 7.25047 28.1601 27.1731 29.7614 52.0847C30.46 62.9492 31.9686 72.2216 33.1807 79.6718C35.5188 94.0371 36.9295 102.709 29.9466 105.968C23.5892 108.935 15.1466 106.19 4.45921 102.714C-2.79681 100.353 -11.0212 97.6783 -20.0946 96.3787C-36.4153 94.0422 -40.138 87.3075 -45.7733 77.1141C-47.7222 73.5895 -49.9301 69.5949 -52.9629 65.2877C-62.304 52.0214 -93.0569 46.6947 -105 45.0937V45.726C-93.0737 47.3276 -62.698 52.6022 -53.5239 65.6317Z" fill="#FEBB69"/>
<path fill-rule="evenodd" clip-rule="evenodd" d="M-30.2613 73.9263C-25.1072 82.1253 -12.2199 88.8449 0.0547256 88.8442C3.73844 88.8442 7.36846 88.239 10.716 86.8868C14.0749 85.5302 16.4546 82.9467 17.7888 79.2078C21.6906 68.2756 15.7486 49.5103 7.86173 36.6244C-0.433174 23.0711 -14.5224 6.90118 -20.7329 -0.000144958H-21.6093C-15.611 6.64616 -1.15261 23.1589 7.27921 36.9352C15.0916 49.7002 20.9913 68.2518 17.1519 79.0105C15.8808 82.572 13.6259 85.0283 10.4495 86.3115C-3.75112 92.0468 -23.1173 84.0527 -29.6828 73.6092C-35.1718 64.8782 -52.626 40.2775 -67.2797 31.418C-77.5114 25.2329 -96.2246 21.1418 -105 19.4745V20.1136C-96.2138 21.7879 -77.7362 25.8432 -67.6447 31.9443C-53.1005 40.7374 -35.7281 65.2304 -30.2613 73.9263Z" fill="#FEBB69"/>
<path fill-rule="evenodd" clip-rule="evenodd" d="M-24.6266 51.3965C-16.2982 61.6075 -10.0119 69.3165 -4.14103 69.3159C-3.36657 69.3159 -2.59814 69.1812 -1.83374 68.9005C-0.701584 68.485 0.686943 67.3929 0.876869 64.5519C1.3151 58.0021 -4.93695 44.0127 -14.6801 29.7407C-23.4616 16.8774 -33.1443 6.42508 -42.0983 -3.8147e-05H-45.4961C-36.1596 6.06165 -25.7702 16.992 -16.378 30.7508C-6.99457 44.4965 -0.725082 58.3474 -1.13245 64.4354C-1.23177 65.9235 -1.71562 66.8371 -2.57062 67.1516C-7.70527 69.0396 -14.4674 60.751 -23.0254 50.258C-30.0868 41.5997 -38.8756 30.8248 -49.7925 22.0468C-68.9259 6.6651 -94.4394 4.26836 -105 3.97073V5.84925C-94.6851 6.14124 -69.7527 8.47971 -51.1066 23.4716C-40.3487 32.1206 -31.6317 42.8084 -24.6266 51.3965Z" fill="#EBC699"/>
<path fill-rule="evenodd" clip-rule="evenodd" d="M181.465 62.6182C181.639 62.6182 181.803 62.5856 181.957 62.5204C184.317 61.526 182.69 52.8144 179.613 37.5004C177.148 25.2304 174.141 10.256 174.252 -7.24792e-05H173.582C173.471 10.325 176.484 25.3238 178.954 37.6164C181.382 49.6978 183.674 61.1093 181.681 61.9496C181.304 62.1062 180.293 61.922 177.764 58.8937C165.844 44.6211 160.141 10.622 158.609 -7.24792e-05H157.933C159.454 10.5725 165.185 44.8517 177.235 59.279C179.136 61.5548 180.474 62.6182 181.465 62.6182Z" fill="#FEBB69"/>
<path fill-rule="evenodd" clip-rule="evenodd" d="M47.492 333.493C42.9835 309.338 47.298 304.932 49.3623 304.16C52.2333 303.082 56.6144 306.275 61.3812 312.914C69.5701 324.32 96.7312 358.709 126.175 358.705C129.064 358.704 131.98 358.373 134.897 357.656C153.537 353.075 168.084 329.875 180.919 309.405C189.585 295.583 197.771 282.528 205.923 277.375C216.007 271.001 234.036 274.692 254.912 278.965C275.276 283.133 298.357 287.859 318.36 283.73C335.369 280.219 346.172 270.434 350.472 254.648C354.065 241.452 352.471 226.669 351.416 216.887L351.251 215.343C350.251 205.937 359.196 202.506 370.521 198.162C382.084 193.728 395.189 188.701 402.409 175.862C417.79 148.508 419.286 117.065 406.514 89.597C398.893 73.2052 397.999 61.3701 403.704 52.3521C411.022 40.7814 429.466 33.5667 460 30.3423V29.7119C429.197 32.9583 410.563 40.2744 403.126 52.0332C397.303 61.2391 398.184 73.2547 405.899 89.8463C418.589 117.14 417.101 148.385 401.814 175.57C394.708 188.207 381.723 193.188 370.266 197.583C359.142 201.85 349.533 205.535 350.583 215.406L350.749 216.949C351.798 226.688 353.385 241.405 349.821 254.494C345.59 270.031 334.956 279.662 318.215 283.118C298.357 287.216 275.352 282.508 255.056 278.353C234.029 274.048 215.869 270.331 205.547 276.856C197.268 282.089 189.046 295.204 180.34 309.088C167.571 329.453 153.098 352.535 134.727 357.05C102.509 364.963 70.8687 325.003 61.9396 312.566C56.9063 305.556 52.3501 302.367 49.112 303.578C44.3599 305.358 43.5499 316.021 46.8309 333.6C51.0643 356.284 51.0596 367.982 50.6663 373H51.3629C51.7716 367.931 51.7495 356.305 47.492 333.493Z" fill="#FEBB69"/>
<path fill-rule="evenodd" clip-rule="evenodd" d="M331.586 24.3121C341.16 28.9934 348.218 33.8369 353.89 37.7281C361.705 43.0899 367.275 46.9127 374.031 46.9121C376.601 46.9121 379.345 46.3582 382.447 45.1251C387.105 43.2741 391.069 40.3353 395.658 36.9317C407.593 28.0816 422.341 17.1519 460 16.7064V16.0855C422.081 16.5911 406.624 28.0002 395.241 36.4411C390.69 39.8165 386.759 42.7308 382.184 44.5492C371.281 48.8828 364.884 44.4941 354.287 37.2231C348.597 33.3194 341.516 28.4607 331.897 23.7562C312.824 14.4281 307.931 4.818 306.699 0.000102997H305.95C307.088 4.91324 311.915 14.6913 331.586 24.3121Z" fill="#FEBB69"/>
<path fill-rule="evenodd" clip-rule="evenodd" d="M349.783 19.1389C359.663 23.7506 367.913 26.6373 375.649 26.6367C382.507 26.6361 388.96 24.3666 395.777 19.0173C402.074 14.0772 414.457 11.6179 426.433 9.23931C438.343 6.87454 449.692 4.62001 455.215 0.000120163H451.846C446.074 3.41507 435.914 5.43461 426.014 7.40087C413.796 9.82705 401.163 12.3353 394.481 17.5787C380.752 28.3511 368.96 25.9901 350.684 17.4571C337.922 11.5001 336.108 4.03289 336.198 0.000120163H334.245C334.208 4.60059 336.293 12.841 349.783 19.1389Z" fill="#FEBB69"/>
<path fill-rule="evenodd" clip-rule="evenodd" d="M375.334 15.4248C386.676 15.4248 396.483 5.23385 400.773 -0.000106812H399.927C395.563 5.24701 386.137 14.7982 375.334 14.7982C364.537 14.7982 355.986 5.23886 352.11 -0.000106812H351.298C355.116 5.24325 363.993 15.4248 375.334 15.4248Z" fill="#FEBB69"/>
<path fill-rule="evenodd" clip-rule="evenodd" d="M76.259 345.454C69.9929 339.509 65.8548 335.583 63.1328 335.788C62.4288 335.842 61.8416 336.176 61.3859 336.778C57.0096 342.571 64.7186 364.543 67.9359 373H68.6573C65.5468 364.796 57.7545 342.671 61.9348 337.139C62.2751 336.689 62.6845 336.451 63.1878 336.413C65.5991 336.22 70.0902 340.495 75.7812 345.894C84.6318 354.292 97.2278 366.234 113.347 373H115.021C98.3432 366.4 85.327 354.058 76.259 345.454Z" fill="#FEBB69"/>
<path fill-rule="evenodd" clip-rule="evenodd" d="M394.649 318.755C373.214 301.228 341.817 303.743 318.891 305.581C316.716 305.756 314.618 305.923 312.614 306.068C294.032 307.402 276.585 301.492 261.194 296.276C247.332 291.581 235.361 287.523 225.75 289.847C207.778 294.191 198.693 312.369 189.075 331.616C187.849 334.07 186.582 336.607 185.301 339.101C176.964 355.343 162.554 367.929 156.169 373H159.237C166.36 367.116 179.327 355.089 187.116 339.914C188.402 337.411 189.672 334.869 190.9 332.411C200.312 313.577 209.201 295.788 226.254 291.667C235.263 289.49 246.961 293.454 260.507 298.044C276.089 303.323 293.748 309.312 312.769 307.941C314.778 307.798 316.882 307.629 319.063 307.454C341.629 305.646 372.532 303.17 393.323 320.169C406.573 331.002 414.165 348.77 415.92 373H417.939C416.163 348.189 408.338 329.947 394.649 318.755Z" fill="#FBF0E2"/>
<path fill-rule="evenodd" clip-rule="evenodd" d="M325.736 325.49C319.122 325.722 312.284 325.963 305.98 325.811C288.346 325.387 274.166 319.571 261.657 314.438C255.423 311.882 249.535 309.466 243.839 307.978C238.877 306.68 234.165 307.189 229.835 309.491C219.185 315.15 212.931 330.279 209.56 341.975C205.335 356.631 192.978 367.926 186.55 373H187.583C194.216 367.663 206.067 356.504 210.208 342.138C213.546 330.558 219.719 315.588 230.166 310.035C234.337 307.82 238.875 307.33 243.658 308.581C249.308 310.058 255.175 312.465 261.386 315.012C273.954 320.167 288.197 326.01 305.963 326.438C312.289 326.589 319.137 326.349 325.761 326.116C347.199 325.363 369.365 324.585 380.702 336.304C392.28 348.273 394.369 365.865 394.728 373H395.399C395.038 365.798 392.928 348.007 381.2 335.884C369.653 323.949 347.327 324.731 325.736 325.49Z" fill="#FEBB69"/>
<path fill-rule="evenodd" clip-rule="evenodd" d="M355.909 340.972C347.238 339.212 336.542 339.565 325.217 339.938C308.817 340.478 290.23 341.091 274.15 335.218C272.221 334.514 270.364 333.826 268.576 333.164C253.284 327.499 243.182 323.758 235.743 327.185C231.27 329.245 228.084 333.837 225.716 341.634C220.829 357.722 214.437 368.379 211.311 373H213.705C217.079 367.862 222.985 357.514 227.653 342.147C229.855 334.898 232.709 330.678 236.634 328.87C243.273 325.812 253.044 329.432 267.833 334.911C269.625 335.575 271.485 336.264 273.417 336.969C289.885 342.983 308.694 342.363 325.287 341.816C336.482 341.448 347.056 341.099 355.481 342.809C371.574 346.075 373.987 365.332 374.304 373H376.313C375.979 364.97 373.395 344.521 355.909 340.972Z" fill="#FEBB69"/>
<path fill-rule="evenodd" clip-rule="evenodd" d="M313.06 355.942C309.487 355.917 305.791 355.89 301.826 355.83C280.861 355.51 268.599 349.914 260.486 346.212C253.963 343.235 250.026 341.44 246.265 344.366C239.72 349.458 237.499 365.98 236.838 373H237.523C238.206 366.023 240.443 349.711 246.694 344.846C250.122 342.18 253.911 343.91 260.191 346.775C268.358 350.502 280.7 356.134 301.815 356.457C305.783 356.517 309.481 356.543 313.056 356.568C332.763 356.707 345.782 356.799 351.654 362.654C354.056 365.049 355.277 368.382 355.417 373H356.088C355.945 368.212 354.666 364.74 352.144 362.226C346.076 356.175 332.941 356.082 313.06 355.942Z" fill="#FEBB69"/>
<path fill-rule="evenodd" clip-rule="evenodd" d="M337.58 369.802C335.105 367.951 331.045 368.376 324.32 369.081C319.966 369.538 314.547 370.106 307.783 370.237C291.477 370.556 281.678 368.327 273.803 366.539C270.343 365.753 267.355 365.074 264.271 364.689C261.62 364.361 259.575 364.901 258.198 366.299C256.462 368.063 256.137 370.828 256.205 373H256.886C256.821 370.937 257.113 368.327 258.692 366.723C259.912 365.484 261.761 365.011 264.183 365.312C267.231 365.691 270.203 366.366 273.645 367.147C281.558 368.943 291.407 371.177 307.796 370.864C314.591 370.732 320.027 370.162 324.395 369.704C330.948 369.018 334.903 368.603 337.16 370.291C337.959 370.888 338.549 371.769 338.978 373H339.688C339.214 371.539 338.528 370.511 337.58 369.802Z" fill="#FEBB69"/>
<path fill-rule="evenodd" clip-rule="evenodd" d="M376.255 299.025C364.658 297.146 354.643 295.524 351.903 289.983C348.718 283.54 353.034 276.87 358.033 269.146C362.382 262.425 367.31 254.809 367.634 246.186C367.802 241.709 367.403 237.61 367.016 233.644C365.835 221.525 364.982 212.769 381.756 206.599L382.834 206.203C404.512 198.24 421.635 191.95 428.381 151.592C432.169 128.916 427.944 111.6 424.546 97.6863C421.734 86.1676 419.512 77.0695 422.228 68.4575C426.895 53.6598 449.873 52.2017 460 52.297V51.6722C449.725 51.582 426.374 53.0946 421.584 68.2802C418.818 77.0494 421.169 86.6777 423.892 97.826C427.276 111.688 431.491 128.938 427.718 151.495C421.031 191.498 404.906 197.422 382.588 205.62L381.51 206.017C364.268 212.358 365.186 221.777 366.348 233.701C366.732 237.647 367.13 241.726 366.963 246.164C366.646 254.624 361.765 262.167 357.458 268.822C352.361 276.698 347.959 283.5 351.294 290.246C354.181 296.085 364.357 297.734 376.141 299.643C390.417 301.956 406.599 304.578 416.883 314.866C432.652 330.637 437.249 362.763 438.343 373H439.014C437.927 362.767 433.303 330.376 417.374 314.438C406.936 303.997 389.924 301.24 376.255 299.025Z" fill="#FEBB69"/>
<path fill-rule="evenodd" clip-rule="evenodd" d="M443.692 79.284C439.632 82.3412 437.477 86.9016 437.283 92.838C437.048 100.036 439.182 108.102 441.645 117.443C446.249 134.885 451.98 156.593 442.135 179.682C433.713 199.421 422.312 204.759 412.255 209.468C404.488 213.105 397.781 216.246 394.188 225.085C390.735 233.578 389.765 239.219 388.909 244.196C387.775 250.79 386.955 255.555 380.815 263.552C375.435 270.561 373.76 276.22 375.694 280.856C377.849 286.022 384.412 289.608 395.76 291.822L396.822 292.028C415.812 295.714 446.329 301.647 460 348.278V341.873C454.383 325.944 446.108 313.675 435.276 305.265C422.069 295.008 407.714 292.222 397.232 290.187L396.172 289.981C385.691 287.937 379.432 284.638 377.57 280.174C375.925 276.232 377.568 271.009 382.451 264.647C388.868 256.29 389.764 251.085 390.897 244.494C391.738 239.605 392.691 234.065 396.07 225.751C399.385 217.598 405.768 214.609 413.158 211.148C423.022 206.529 435.296 200.78 444.001 180.376C454.094 156.729 448.276 134.696 443.598 116.993C441.169 107.787 439.068 99.8364 439.296 92.8956C439.471 87.5351 441.37 83.4497 444.947 80.7516C449.45 77.356 455.745 76.7821 460 76.8548V74.9549C455.443 74.8728 448.692 75.5132 443.692 79.284Z" fill="#EBC699"/>
<path fill-rule="evenodd" clip-rule="evenodd" d="M428.256 219.657C417.212 231.316 410.414 245.431 407.345 252.807C403.517 262.008 402.786 266.952 404.737 270.44C407.459 275.305 415.439 277.109 429.926 280.384L433.43 281.178C447.987 284.493 455.832 295.237 460 304.64V303.063C455.631 293.862 447.725 283.788 433.592 280.569L430.084 279.775C415.788 276.544 407.912 274.763 405.332 270.15C403.482 266.843 404.222 262.045 407.971 253.033C412.532 242.071 429.286 207.369 460 202.101V201.461C448.551 203.384 437.887 209.487 428.256 219.657Z" fill="#FEBB69"/>
<path fill-rule="evenodd" clip-rule="evenodd" d="M431.847 241.659C426.913 250.659 425.593 256.719 427.694 260.73C429.961 265.058 436.061 266.685 442.323 267.798C450.208 269.2 456.228 274.379 460 278.664V277.695C456.128 273.45 450.168 268.556 442.45 267.182C434.122 265.702 430.024 263.753 428.297 260.455C426.297 256.636 427.615 250.754 432.444 241.944C439.578 228.928 452.832 222.952 460 220.565V219.901C452.785 222.276 439.155 228.328 431.847 241.659Z" fill="#FEBB69"/>
<path fill-rule="evenodd" clip-rule="evenodd" d="M445.611 251.765C445.021 257.491 454.128 261.282 460 263.118V262.437C454.302 260.617 445.746 257.004 446.283 251.824C446.813 246.701 454.624 239.534 460 235.166V234.317C454.551 238.685 446.189 246.223 445.611 251.765Z" fill="#FEBB69"/>
<mask id="mask0_889_11481" style="mask-type:alpha" maskUnits="userSpaceOnUse" x="-105" y="-1" width="565" height="374">
<rect x="-105" y="-0.127441" width="565" height="373.127" fill="#FFF9F9"/>
</mask>
<g mask="url(#mask0_889_11481)">
</g>
<rect x="-51" width="511" height="373" fill="url(#paint0_linear_889_11481)"/>
<defs>
<linearGradient id="paint0_linear_889_11481" x1="352" y1="201" x2="-107" y2="-26" gradientUnits="userSpaceOnUse">
<stop/>
<stop offset="1" stop-opacity="0"/>
</linearGradient>
</defs>
</svg>
